<svg width="131" height="150" viewBox="0 0 131 150" fill="none" xmlns="http://www.w3.org/2000/svg">
<g clip-path="url(#clip0_73_163)">
<path d="M21.6804 35.2035C24.9497 22.1947 32.0044 12.3811 43.3608 5.87674C68.3678 -8.38723 100.028 4.22212 108.345 31.7801C109.148 34.4047 110.237 35.6029 112.99 35.2035C114.023 35.0323 115.113 35.1464 116.145 35.2035C120.217 35.4317 122.454 37.7139 122.511 41.7649C122.569 51.2933 122.511 60.7645 122.511 70.2929C122.511 92.5447 122.569 114.796 122.454 137.048C122.454 139.502 122.913 140.643 125.666 140.586C129.05 140.586 131.115 142.697 131 145.321C130.943 147.889 128.706 149.715 125.437 149.943C124.691 150 123.888 149.943 123.142 149.943C84.7141 149.943 46.2859 149.943 7.85771 149.943C6.53853 149.943 5.162 150 3.90018 149.658C1.66332 149.03 -0.114705 147.718 5.71785e-06 145.036C0.114717 142.412 1.89274 141.213 4.18696 140.7C8.54598 139.73 8.54598 139.787 8.54598 135.337C8.54598 104.641 8.54598 73.8874 8.54598 43.1913C8.54598 37.0863 10.4961 35.2035 16.5758 35.2035C18.2391 35.2035 19.845 35.2035 21.6804 35.2035ZM75.5946 112.229C75.5946 108.064 75.5372 103.842 75.5946 99.6767C75.6519 97.965 75.021 97.3374 73.3004 97.3374C68.1384 97.4515 62.9764 97.4515 57.8144 97.3374C55.9216 97.2803 55.3481 97.965 55.3481 99.7908C55.4054 108.064 55.4054 116.337 55.3481 124.61C55.3481 126.379 55.8643 127.178 57.8144 127.178C62.8617 127.064 67.9663 127.064 73.0136 127.178C75.0784 127.235 75.6519 126.436 75.5946 124.496C75.5372 120.445 75.5946 116.337 75.5946 112.229ZM45.7124 111.43C45.7124 107.151 45.7697 102.986 45.655 98.8208C45.655 98.3073 44.6226 97.4515 44.049 97.4515C38.4282 97.3374 32.8074 97.3374 27.1292 97.4515C26.5556 97.4515 25.5806 98.1932 25.5806 98.6497C25.4659 102.872 25.5232 107.094 25.5232 111.43C32.4059 111.43 38.887 111.43 45.7124 111.43ZM105.534 111.43C105.534 107.094 105.592 103.1 105.419 99.1632C105.419 98.5356 104.215 97.5085 103.527 97.5085C98.0779 97.3944 92.6292 97.3944 87.2377 97.5085C86.6068 97.5085 85.4024 98.4214 85.4024 98.9349C85.2303 103.1 85.345 107.208 85.345 111.487C92.1703 111.43 98.5941 111.43 105.534 111.43ZM55.6349 50.0951C55.6349 54.8878 55.6349 59.3952 55.6349 63.9597C62.3455 63.9597 68.7693 63.9597 75.4225 63.9597C75.4225 59.2811 75.4225 54.7737 75.4225 50.0951C68.7693 50.0951 62.3455 50.0951 55.6349 50.0951ZM85.2877 49.981C85.2877 54.4884 85.2303 58.7105 85.345 62.9327C85.345 63.3321 86.5495 64.0738 87.1804 64.0738C92.6292 64.1879 98.0779 64.1879 103.469 64.0738C104.158 64.0738 105.362 62.9897 105.362 62.4192C105.534 58.8246 105.534 55.2301 105.362 51.6356C105.362 51.065 104.387 50.0951 103.871 50.0951C97.8485 49.9239 91.7688 49.981 85.2877 49.981ZM45.7124 49.981C39.2312 49.981 33.1515 49.9239 27.0718 50.038C26.4983 50.038 25.5806 51.1221 25.5232 51.7497C25.3511 55.2301 25.3511 58.7676 25.5232 62.305C25.5806 62.9327 26.7277 64.0167 27.3586 64.0167C32.8647 64.1308 38.4282 64.1308 43.9343 64.0167C44.5079 64.0167 45.5403 63.1609 45.5976 62.6474C45.7697 58.5964 45.7124 54.4313 45.7124 49.981ZM35.3884 73.5451C32.8074 73.5451 30.2264 73.6021 27.6454 73.5451C26.0968 73.5451 25.4085 74.1727 25.4085 75.7702C25.4659 79.0795 25.2938 82.4458 25.5232 85.755C25.5806 86.4397 26.785 87.6379 27.4733 87.6949C32.9221 87.8661 38.3708 87.8661 43.8196 87.6949C44.4505 87.6949 45.5976 86.5538 45.655 85.9262C45.8271 82.5028 45.7124 79.0795 45.7697 75.6561C45.7697 74.0015 44.9094 73.5451 43.4181 73.6021C40.7224 73.6021 38.0841 73.5451 35.3884 73.5451ZM65.6147 73.5451C62.919 73.5451 60.2807 73.6021 57.5849 73.5451C55.979 73.488 55.3481 74.0586 55.3481 75.7132C55.4054 79.0224 55.4054 82.3887 55.3481 85.698C55.2907 87.3526 56.0363 87.809 57.5849 87.809C62.8617 87.752 68.081 87.752 73.3577 87.809C74.9063 87.809 75.5946 87.2955 75.5946 85.698C75.5372 82.3887 75.5372 79.0224 75.5946 75.7132C75.6519 74.1156 74.9637 73.5451 73.3577 73.6021C70.7767 73.6021 68.1957 73.5451 65.6147 73.5451ZM95.1528 87.752C97.9059 87.752 100.716 87.8661 103.469 87.6379C104.215 87.5808 105.362 86.4397 105.419 85.698C105.649 82.3887 105.477 79.0795 105.534 75.7132C105.592 74.1156 104.846 73.488 103.297 73.488C98.0206 73.5451 92.8012 73.5451 87.5245 73.488C85.7465 73.488 85.1729 74.1727 85.1729 75.8844C85.2303 79.1365 85.2303 82.3317 85.1729 85.5839C85.1729 87.1814 85.8039 87.809 87.4098 87.752C89.9908 87.6949 92.5718 87.752 95.1528 87.752ZM70.4899 30.639C69.1708 26.4739 70.5473 23.3929 73.6445 20.5972C69.2281 20.7683 66.9339 18.4861 65.5574 14.6063C64.1808 18.6002 61.6572 20.6542 57.1835 20.426C58.7321 22.423 60.338 23.6211 60.8542 25.2187C61.3131 26.7592 60.6821 28.6421 60.4527 31.2096C63.9514 28.2997 67.0486 28.1286 70.4899 30.639ZM36.6502 20.7113C40.493 23.3929 41.1239 26.7592 39.7474 30.8672C43.1314 28.1856 46.458 28.1856 49.9567 30.639C48.4654 26.4169 50.014 23.3929 53.1112 20.426C48.1786 21.2248 46.5153 18.0297 44.7947 13.7505C43.5328 18.4861 41.296 20.8254 36.6502 20.7113ZM91.2526 30.6961C89.4746 26.4739 91.0806 23.507 94.2351 20.9966C89.9908 19.2278 89.9908 19.2278 85.6318 14.4922C84.8862 18.7143 82.1905 20.5972 77.8314 20.7683C81.5022 23.3929 82.0184 26.7022 81.1581 30.8672C84.6567 27.5009 87.8113 28.8132 91.2526 30.6961Z" fill="white"/>
</g>
<defs>
<clipPath id="clip0_73_163">
<rect width="131" height="150" fill="white"/>
</clipPath>
</defs>
</svg>
