<svg width="133" height="143" viewBox="0 0 133 143" fill="none" xmlns="http://www.w3.org/2000/svg">
<g clip-path="url(#clip0_73_167)">
<path d="M133 143C88.6666 143 44.5 143 0.166626 143C0.166626 141.999 0.166626 141.165 0.166626 140.33C0.166626 105.623 0.166626 70.9161 0.166626 36.2089C0.166626 33.706 0.833293 33.0386 3.33329 33.0386C45.5 33.0386 87.8333 33.0386 130 33.0386C132.167 33.0386 133.167 33.3723 133.167 35.8752C133.167 70.7492 133.167 105.623 133.167 140.497C133 141.331 133 141.999 133 143ZM81.6666 108.627C81.6666 103.955 81.6666 99.1156 81.6666 94.4435C81.6666 92.4411 81 91.9406 79.1666 91.9406C70.6666 91.9406 62.1666 91.9406 53.8333 91.9406C52 91.9406 51.3333 92.4411 51.3333 94.4435C51.3333 103.955 51.3333 113.299 51.3333 122.81C51.3333 124.645 52 125.146 53.8333 125.146C62.3333 125.146 71 124.979 79.5 125.146C81.5 125.146 82 124.312 82 122.476C81.6666 117.971 81.6666 113.299 81.6666 108.627ZM25.6666 108.627C25.6666 103.788 25.6666 98.9487 25.6666 94.2766C25.6666 92.608 25.1666 91.9406 23.3333 91.9406C20.5 92.1074 17.6666 91.9406 14.8333 91.9406C13.3333 91.9406 12.8333 92.4411 12.8333 93.9429C12.8333 103.788 12.8333 113.466 12.8333 123.31C12.8333 124.478 13.3333 125.146 14.6666 125.146C17.5 125.146 20.3333 124.979 23.1666 125.146C25.1666 125.313 25.6666 124.478 25.6666 122.643C25.6666 117.971 25.6666 113.299 25.6666 108.627ZM107.333 108.293C107.333 113.132 107.333 118.138 107.333 122.977C107.333 124.478 107.833 125.146 109.333 124.979C112.333 124.979 115.167 124.979 118.167 124.979C119.667 124.979 120.167 124.312 120 122.81C120 113.132 120 103.621 120 93.9429C120 92.1074 119.333 91.6068 117.667 91.7737C115 91.7737 112.333 91.7737 109.667 91.7737C108 91.7737 107.333 92.2743 107.333 94.1098C107.333 98.9487 107.333 103.621 107.333 108.293ZM60.1666 58.5683C60.1666 62.9067 60.1666 67.412 60.1666 71.7504C60.1666 73.419 60.6666 74.0864 62.5 74.0864C65.3333 73.9196 68 74.0864 70.8333 74.0864C72.3333 74.0864 73 73.5858 73 71.9172C73 63.0736 73 54.2299 73 45.5532C73 44.0514 72.5 43.5508 71 43.5508C68.1666 43.5508 65.5 43.7177 62.6666 43.5508C60.8333 43.5508 60.1666 44.0514 60.3333 45.8869C60.1666 50.0584 60.1666 54.3968 60.1666 58.5683ZM83.6666 43.7177C83.6666 53.5625 83.6666 63.2404 83.6666 72.7515C83.6666 73.2521 84.8333 73.9196 85.5 73.9196C88.5 74.0864 91.5 73.9196 94.5 73.9196C96 73.9196 96.5 73.419 96.5 71.9172C96.5 62.9067 96.5 53.8962 96.5 44.7189C96.5 44.3851 96.3333 43.8846 96.3333 43.5508C92.1666 43.7177 88 43.7177 83.6666 43.7177ZM36.5 43.5508C36.5 53.5625 36.5 63.2404 36.5 72.9184C36.5 73.2521 37.5 74.0864 38 74.0864C41.1666 74.2533 44.3333 74.2533 47.5 74.0864C48.1666 74.0864 49.1666 73.0853 49.1666 72.4178C49.3333 63.4073 49.3333 54.3968 49.1666 45.2194C49.1666 44.7189 48.1666 43.7177 47.6666 43.7177C44.1666 43.5508 40.5 43.5508 36.5 43.5508ZM13 43.5508C13 53.3956 13 63.0736 13 72.5847C13 73.0853 14 73.9196 14.6666 74.0864C17.8333 74.2533 20.8333 74.2533 24 74.0864C24.6666 74.0864 25.6666 73.0853 25.6666 72.4178C25.8333 63.4073 25.8333 54.2299 25.6666 45.2194C25.6666 44.7189 24.6666 43.7177 24.1666 43.7177C20.5 43.5508 17 43.5508 13 43.5508ZM107.333 43.5508C107.333 53.5625 107.333 63.0736 107.333 72.5847C107.333 73.0853 108.333 73.9196 109 73.9196C112 74.0864 115 74.0864 118 73.9196C118.667 73.9196 119.667 72.9184 119.667 72.2509C119.833 63.2404 119.833 54.2299 119.667 45.0526C119.667 44.552 118.667 43.5508 118.167 43.384C114.833 43.5508 111.167 43.5508 107.333 43.5508ZM91.5 130.152C89.6666 130.152 88 130.152 86.1666 130.152C72 130.152 57.6666 130.152 43.5 130.152C42.6666 130.152 41.5 130.319 41.1666 130.819C39.8333 132.988 41.3333 135.158 43.6666 135.158C58.5 135.158 73.5 135.158 88.3333 135.158C92 135.158 92 135.158 91.8333 131.487C91.8333 131.32 91.6666 130.819 91.5 130.152ZM88.8333 86.601C88.8333 86.4341 88.8333 86.2673 88.8333 86.1004C81.6666 83.9312 74.5 81.762 67.5 79.5928C66.5 79.2591 65.3333 79.426 64.3333 79.7597C58.1666 81.5952 52 83.4306 45.8333 85.433C45 85.5998 44.3333 85.9336 43.6666 86.2673C43.6666 86.4341 43.8333 86.601 43.8333 86.7679C59 86.601 74 86.601 88.8333 86.601ZM45.8333 108.627C45.8333 103.788 45.8333 98.9487 45.8333 94.2766C45.8333 92.4411 45 91.9406 43.3333 91.9406C41.6666 91.9406 40.8333 92.2743 40.8333 94.2766C40.8333 103.955 40.8333 113.466 40.8333 123.144C40.8333 125.313 42 125.313 43.5 125.313C45 125.313 46 125.146 45.8333 123.31C45.8333 118.305 45.8333 113.466 45.8333 108.627ZM91.8333 108.794C91.8333 103.955 91.8333 99.1156 91.8333 94.2766C91.8333 92.608 91.3333 91.7737 89.5 91.7737C87.6666 91.7737 86.8333 92.1074 86.8333 94.2766C86.8333 103.788 86.8333 113.132 86.8333 122.643C86.8333 124.645 87.6666 124.979 89.5 125.146C91.3333 125.146 92 124.645 91.8333 122.81C91.6666 118.138 91.8333 113.466 91.8333 108.794Z" fill="white"/>
<path d="M33.5 24.8623C44.3333 16.6861 55.1667 8.34306 66.3333 0C77.5 8.34306 88.5 16.6861 99.6667 24.8623C99.6667 25.0292 99.5 25.196 99.5 25.3629C77.6667 25.3629 55.6667 25.3629 33.8333 25.3629C33.5 25.196 33.5 25.0292 33.5 24.8623Z" fill="white"/>
<path d="M92.5 10.0117C93.8333 10.0117 94.8333 10.0117 95.8333 10.0117C100.667 10.0117 105.667 10.0117 110.5 10.0117C111.5 10.0117 112.5 10.1786 113.167 10.6792C119.333 15.1844 125.333 19.8565 131.333 24.3618C131.5 24.5286 131.667 24.6955 132 25.3629C131.167 25.5298 130.5 25.6967 129.833 25.6967C124.667 25.6967 119.333 25.6967 114.167 25.6967C113.167 25.6967 112.167 25.5298 111.5 25.0292C105.333 20.524 99.3333 15.8519 93.1667 11.1797C93 11.0129 92.8333 10.6792 92.5 10.0117Z" fill="white"/>
<path d="M40.5 10.5123C38.5 12.0141 36.8333 13.1821 35.1667 14.517C30.8333 17.8542 26.6667 21.1914 22.3333 24.1949C21.1667 25.0292 19.6667 25.5298 18.3333 25.5298C12.6667 25.6967 7 25.5298 0.5 25.5298C1.5 24.5286 2 24.0281 2.66667 23.5275C8.16667 19.3559 13.6667 15.1844 19.1667 11.0129C19.8333 10.5123 20.8333 10.0117 21.8333 10.0117C27.6667 10.0117 33.3333 10.0117 39.1667 10.0117C39.5 10.0117 39.6667 10.1786 40.5 10.5123Z" fill="white"/>
</g>
<defs>
<clipPath id="clip0_73_167">
<rect width="133" height="143" fill="white"/>
</clipPath>
</defs>
</svg>
