<svg width="143" height="143" viewBox="0 0 143 143" fill="none" xmlns="http://www.w3.org/2000/svg">
<g clip-path="url(#clip0_74_275)">
<path d="M73.6443 46.9773C73.6443 48.3068 73.6443 49.1932 73.6443 50.2273C73.6443 62.3409 73.7922 74.3068 73.6443 86.4205C73.6443 88.9318 74.3837 89.8182 76.7498 89.5227C77.9328 89.375 79.1159 89.2273 80.151 89.6705C81.0383 89.9659 81.7777 91.1477 82.5171 91.8864C81.7777 92.625 81.0383 93.5114 80.151 93.9546C79.5595 94.25 78.6722 94.1023 77.9328 94.1023C53.3847 94.1023 28.8366 94.1023 4.28856 94.1023C3.84492 94.1023 3.40128 94.1023 3.10552 94.1023C1.47884 94.1023 -0.295721 94.1023 -0.147841 91.7387C-0.147841 89.8182 1.47884 89.5227 2.95764 89.5227C3.9928 89.5227 4.88008 89.375 5.91524 89.5227C8.28132 89.6705 8.87284 88.7841 8.87284 86.7159C8.72496 76.6705 8.87284 66.625 8.87284 56.7273C8.87284 54.6591 8.87284 52.5909 8.87284 50.6705C8.87284 47.125 8.87284 47.125 12.2741 47.125C23.3651 47.125 34.604 47.125 45.695 47.125C53.9763 47.125 62.2575 47.125 70.6867 47.125C71.574 46.9773 72.4613 46.9773 73.6443 46.9773ZM33.7167 89.375C38.5967 89.375 43.3289 89.375 47.9132 89.375C48.3568 89.375 48.9483 88.7841 48.9483 88.3409C48.8004 83.7614 49.0962 79.0341 48.3568 74.4546C47.9132 71.0568 44.0683 69.1364 40.3713 69.4318C37.1179 69.7273 33.8646 72.2387 33.5688 75.4887C33.4209 79.9205 33.7167 84.5 33.7167 89.375Z" fill="white"/>
<path d="M127.177 52.5909C127.177 62.4886 127.177 71.6477 127.177 80.8068C127.177 82.1363 127.768 82.7272 129.099 82.5795C132.648 82.5795 136.05 82.5795 139.599 82.5795C141.078 82.5795 142.704 82.5795 142.852 84.6477C142.852 86.7159 141.225 87.0113 139.599 87.0113C132.057 87.0113 124.663 87.0113 117.121 87.0113C113.276 87.0113 111.649 88.6363 111.649 92.4772C111.649 98.0909 111.649 103.705 111.649 109.318C111.649 110.795 111.206 111.386 109.579 111.682C105.438 112.273 101.446 113.011 97.3051 113.75C96.8614 113.898 96.122 114.341 95.9742 114.784C94.939 117.591 94.939 117.739 91.3899 118.92C91.3899 114.193 91.3899 109.761 91.3899 104.886C90.0589 104.886 89.0238 104.886 87.9886 104.886C60.1872 104.886 32.3857 104.886 4.58428 104.886C2.80972 104.886 0.147874 105.625 -5.7104e-06 102.67C-0.147886 99.7159 2.66184 100.455 4.4364 100.455C32.3857 100.455 60.1872 100.455 88.1365 100.455C91.3899 100.455 91.3899 100.455 91.3899 97.0568C91.3899 95.1363 91.3899 93.2159 91.3899 91.1477C91.5377 86.7159 95.0869 83.0227 99.3754 82.5795C100.854 82.4318 102.333 82.7272 102.629 84.5C102.777 86.125 101.594 86.8636 100.115 87.1591C97.6008 87.6022 96.7135 88.6363 96.4178 91.1477C96.7135 91.2954 97.0093 91.4432 97.3051 91.4432C100.411 91.4432 103.664 91.4432 106.917 91.4432C107.213 90.4091 107.361 89.5227 107.805 88.6363C109.135 85.0909 111.797 83.0227 115.642 82.7272C116.086 82.7272 116.677 82.7272 117.121 82.7272C122.888 82.7272 122.888 82.7272 122.888 76.8182C122.888 68.9886 122.888 61.0113 122.888 52.8863C122.001 52.7386 121.114 52.7386 120.374 52.7386C117.86 52.7386 115.346 52.7386 112.832 52.7386C107.065 52.7386 106.326 51.8522 107.805 46.0909C109.875 37.9659 117.565 32.2045 125.698 32.6477C134.275 33.0909 141.521 39.4432 142.852 47.7159C143.444 51.8522 142.704 52.7386 138.711 52.7386C134.867 52.5909 131.17 52.5909 127.177 52.5909ZM101.741 96.0227C100.411 96.0227 98.9317 96.0227 97.6008 96.0227C96.122 96.0227 95.9742 96.9091 95.9742 98.0909C95.9742 99.2727 95.9741 100.455 97.6008 100.455C100.263 100.455 102.925 100.455 105.734 100.307C106.178 100.307 106.917 99.4204 107.065 98.8295C107.509 96.7613 106.917 95.4318 104.403 95.875C103.516 96.1704 102.629 96.0227 101.741 96.0227ZM107.065 105.034C103.664 105.034 100.558 104.886 97.6008 105.182C97.0093 105.182 96.122 106.364 96.122 106.955C96.122 107.693 96.8614 109.17 97.3051 109.17C100.558 109.318 103.812 109.318 107.065 109.318C107.065 107.841 107.065 106.659 107.065 105.034Z" fill="white"/>
<path d="M137.381 31.6136C118.008 20.6818 99.3754 37.6704 103.22 54.0682C95.3826 55.9886 87.3971 56.1363 79.4116 55.6932C78.968 55.6932 78.0807 54.8068 78.0807 54.2159C77.7849 53.0341 78.0807 51.8522 77.9328 50.5227C77.7849 48.3068 78.0807 46.9772 80.5946 46.2386C83.7001 45.3522 85.4747 41.5113 84.2916 38.4091C82.5171 34.2727 80.5946 30.2841 78.0807 26.5909C74.9752 22.1591 70.0952 20.2386 64.7715 20.0909C62.9969 20.0909 61.2224 20.0909 59.0042 20.0909C59.2999 19.2045 59.4478 18.6136 59.7436 18.0227C62.7012 12.7045 65.8066 7.38634 68.7642 2.06816C70.5388 -1.03411 72.1655 -1.03411 73.7922 2.06816C79.4116 11.8182 85.031 21.7159 90.5026 31.6136C90.9462 32.5 91.5378 33.2386 92.1293 34.2727C92.7208 33.3863 93.1644 32.9432 93.6081 32.3522C100.115 22.3068 106.622 12.2613 113.128 2.21589C115.199 -1.03411 116.382 -1.03411 118.452 2.06816C124.367 11.0795 130.134 20.0909 136.05 29.1022C136.493 29.8409 136.789 30.4318 137.381 31.6136Z" fill="white"/>
<path d="M41.1106 42.5454C29.4281 42.5454 17.7456 42.5454 6.21091 42.5454C1.92239 42.5454 1.33087 41.5113 3.10543 37.6704C3.99271 35.8977 4.87999 34.125 5.76728 32.5C8.42912 27.1818 12.7176 24.6704 18.485 24.6704C33.5687 24.6704 48.8004 24.6704 63.8841 24.6704C69.6515 24.6704 73.7921 27.1818 76.4539 32.3522C77.4891 34.2727 78.3764 36.1931 79.4115 38.2613C80.8903 41.2159 80.0031 42.5454 76.7497 42.5454C64.9193 42.5454 53.0889 42.5454 41.1106 42.5454Z" fill="white"/>
<path d="M138.12 129.409C133.092 129.409 128.656 126.75 124.219 123.943C116.677 119.216 108.988 119.364 101.298 123.943C98.3402 125.716 95.2348 127.636 91.9814 128.523C84.2916 130.591 76.8976 129.557 70.3909 124.83C66.546 122.023 62.2575 120.546 57.3775 120.546C52.7932 120.546 48.6526 121.875 45.1034 124.534C39.6319 128.523 33.5688 129.852 26.9142 129.261C22.7735 128.818 19.2244 127.489 15.8232 125.125C11.8304 122.466 7.68978 120.398 2.66186 120.398C1.18306 120.398 -0.295742 119.659 0.147898 117.886C0.443658 117 1.92246 115.966 2.95762 115.966C8.42918 115.818 13.1613 117.739 17.5977 120.841C23.0693 124.682 29.1324 125.864 35.4912 124.091C37.8573 123.5 40.2234 122.318 42.2937 120.841C52.6453 114.046 62.849 114.046 73.2006 120.841C81.334 126.159 89.6153 126.159 97.7487 120.841C108.1 114.046 118.304 114.046 128.508 120.841C131.909 123.057 135.458 124.682 139.599 124.682C141.225 124.682 143 124.83 143 126.898C143 129.261 141.078 129.114 139.451 129.114C139.007 129.409 138.712 129.409 138.12 129.409Z" fill="white"/>
<path d="M139.007 142.852C133.979 142.705 129.691 140.932 125.698 138.125C120.818 134.58 115.347 133.102 109.431 134.432C106.178 135.17 103.073 136.648 100.115 138.42C95.3828 141.227 90.5027 143.148 84.8833 143C79.4117 143 74.6796 141.227 70.2432 138.125C65.3631 134.58 59.8916 133.102 54.1242 134.432C50.723 135.17 47.3218 136.795 44.3642 138.568C36.9702 143.148 29.4283 144.33 21.2949 141.375C18.9288 140.489 16.7106 139.159 14.6403 137.83C11.0911 135.614 7.54203 133.989 3.25351 133.989C1.62683 133.989 -0.147734 133.693 0.148026 131.477C0.295906 129.409 2.07047 129.261 3.69715 129.409C8.42931 129.705 12.8657 131.034 16.7106 133.841C25.5834 140.045 34.3083 139.898 43.329 133.989C53.237 127.489 63.2928 127.932 73.0529 134.432C79.8554 139.011 87.1015 139.75 94.6434 136.352C96.4179 135.466 98.0446 134.284 99.8192 133.25C108.544 128.227 117.565 128.08 126.29 133.25C130.874 136.057 135.458 138.568 140.93 138.716C141.669 138.716 142.852 140.045 142.852 140.784C142.852 141.523 141.669 142.409 140.782 142.852C140.19 143.148 139.451 142.852 139.007 142.852Z" fill="white"/>
<path d="M40.8149 20.3864C31.0548 20.3864 21.8863 20.3864 12.5698 20.3864C12.7177 20.091 12.8656 19.5 13.3092 18.9091C16.8583 13.2955 20.5553 7.68186 24.2523 2.06823C26.1748 -0.886319 27.5057 -0.886319 29.2803 1.9205C32.8294 7.23868 36.2306 12.7046 39.7798 18.1705C40.0755 18.7614 40.2234 19.2046 40.8149 20.3864Z" fill="white"/>
<path d="M110.319 62.341C104.403 63.0796 98.4882 63.966 92.573 64.4092C88.5802 64.7046 84.4396 64.5569 80.4468 64.7046C78.5244 64.7046 77.9329 63.966 77.9329 62.0455C77.9329 59.9774 79.1159 60.1251 80.4468 60.1251C88.5802 60.716 96.7136 59.3864 104.699 58.5001C108.396 58.0569 112.241 58.2046 115.938 58.0569C117.86 57.9092 118.304 58.7955 118.304 60.5683C118.304 62.341 117.565 62.7842 115.938 62.6364C114.016 62.4887 112.241 62.6364 110.319 62.6364C110.319 62.6364 110.319 62.4887 110.319 62.341Z" fill="white"/>
<path d="M136.493 60.4204C137.824 60.4204 139.303 60.1249 140.634 60.5681C141.521 60.8636 142.704 62.0454 142.704 62.784C142.704 63.5227 141.373 64.8522 140.634 64.8522C138.12 64.9999 135.458 64.8522 132.796 64.5568C130.874 64.409 131.613 62.6363 131.613 61.6022C131.613 61.159 132.649 60.4204 133.24 60.2727C134.275 59.9772 135.31 60.2727 136.346 60.2727C136.493 60.1249 136.493 60.2727 136.493 60.4204Z" fill="white"/>
<path d="M4.88019 60.8637C4.14079 61.4546 3.54927 62.4887 2.80986 62.6364C1.33106 62.7842 -0.295616 62.1933 0.148024 60.4205C0.295904 59.5342 1.7747 58.5001 2.80986 58.2046C4.28867 57.6137 4.43655 58.9433 4.88019 60.8637Z" fill="white"/>
<path d="M4.28849 48.75C4.28849 50.8182 4.28849 52 4.28849 53.9205C2.80969 53.4773 1.47877 53.1818 0.443606 52.5909C-3.39001e-05 52.4432 -3.39001e-05 50.6705 0.295726 50.375C1.33089 49.6364 2.66181 49.3409 4.28849 48.75Z" fill="white"/>
</g>
<defs>
<clipPath id="clip0_74_275">
<rect width="143" height="143" fill="white"/>
</clipPath>
</defs>
</svg>
