<svg width="152" height="151" viewBox="0 0 152 151" fill="none" xmlns="http://www.w3.org/2000/svg">
<g clip-path="url(#clip0_71_3)">
<path d="M84.5788 119.338C69.897 119.338 55.2151 119.338 40.5333 119.338C39.2667 119.338 38 119.338 36.7909 119.108C33.7394 118.532 31.6667 115.826 31.897 112.602C32.0697 109.551 34.2576 107.018 37.3091 106.846C40.6485 106.615 44.0454 106.615 47.3848 106.788C49.9757 106.903 51.0697 106.212 50.8394 103.449C50.6091 100.686 50.7818 97.8651 50.7818 95.1019C50.897 86.5819 55.9636 81.7462 64.4273 81.3432C80.4909 80.5373 95.6909 83.3005 110.085 90.554C113.424 92.2235 117.109 93.2021 120.333 95.1019C123.73 97.1167 127.07 99.477 129.776 102.355C134.094 106.846 132.885 112.775 132.77 118.244C132.77 118.647 130.985 119.338 130.064 119.338C114.864 119.395 99.7212 119.338 84.5788 119.338Z" fill="white"/>
<path d="M19.1727 87.7907C19.1727 90.554 19.1727 92.9718 19.1727 95.3321C19.1727 104.37 19.2879 113.351 19.1152 122.389C19.0576 125.037 19.8636 125.785 22.5121 125.785C62.1243 125.728 101.736 125.728 141.406 125.728C145.609 125.728 145.609 125.728 145.609 129.93C145.609 136.09 145.552 142.192 145.667 148.352C145.724 150.367 145.091 151.058 143.076 151C139.852 150.885 136.57 150.942 132.942 150.942C132.942 147.604 132.827 144.552 133 141.559C133.115 139.141 132.482 138.22 129.833 138.22C93.9636 138.278 58.094 138.278 22.1667 138.22C19.9212 138.22 19.0576 138.853 19.2303 141.156C19.403 144.322 19.2879 147.431 19.2879 150.77C14.9697 150.77 10.997 150.77 6.73638 150.77C6.6788 149.618 6.56365 148.582 6.56365 147.546C6.56365 128.721 6.62122 109.954 6.50607 91.1297C6.50607 88.5391 7.13941 87.5029 9.84547 87.6756C12.7243 87.9634 15.7182 87.7907 19.1727 87.7907Z" fill="white"/>
<path d="M151.482 37.1887C140.37 33.5043 129.488 29.8776 118.606 26.2508C105.133 21.7605 91.7182 17.2703 78.2454 12.8951C76.9212 12.4346 75.1939 12.4921 73.8697 12.8951C50.4939 20.5516 27.2333 28.3233 3.97273 36.0949C2.87879 36.4403 1.84243 36.7857 0.748487 37.1311C-0.690907 31.95 -0.345453 31.2016 4.14546 29.3595C27.3485 19.6881 50.4939 10.0167 73.697 0.402937C75.0212 -0.115172 76.9212 -0.172739 78.1879 0.34537C101.909 10.1319 125.63 20.0335 149.352 29.8776C152.23 31.0865 152.461 31.8349 151.482 37.1887Z" fill="white"/>
<path d="M44.3909 90.8418C44.4485 96.1956 40.3606 100.398 35.0061 100.398C29.7667 100.398 25.3909 96.0805 25.4485 90.957C25.5061 85.891 29.6515 81.631 34.7758 81.5159C40.0152 81.3432 44.3333 85.5456 44.3909 90.8418Z" fill="white"/>
<path d="M100.182 45.2484C100.815 45.4211 101.506 45.4787 102.197 45.7089C105.364 46.8027 107.264 49.8538 106.803 53.1352C106.342 56.359 103.636 59.0646 100.412 59.0646C98.0515 59.0646 96.2667 59.6403 94.5394 61.2522C92.5818 63.0944 89.9333 63.8428 87.2273 64.0155C85.0394 64.1306 84.2909 63.6125 84.1758 61.4249C84.1182 59.6403 83.3121 58.4314 82.103 57.28C80.203 55.4954 78.0152 54.1714 75.5394 53.2503C75.0788 53.0776 74.7333 52.5595 74.3303 52.2141C74.1576 52.0414 74.1 51.6384 73.9273 51.4657C71.6242 49.2206 72.8909 46.4573 72.8909 43.9243C72.8909 43.2335 73.9273 42.2549 74.7333 41.967C76.8061 41.1035 78.9939 40.24 81.2394 39.837C86.1909 38.9735 91.1424 39.2038 95.9212 40.8733C96.4394 41.046 96.9 41.2762 97.3606 41.5065C99.2606 42.4851 99.7788 43.176 100.182 45.2484ZM96.3818 44.6152C92.0636 41.6216 79.4545 41.967 76.403 44.6727C80.0303 47.436 92.2939 47.436 96.3818 44.6152ZM99.1455 56.0136C101.506 56.4165 103.579 54.9198 103.809 52.5595C104.039 50.4871 102.427 48.6449 100.297 48.4722C99.9515 51.0052 99.5485 53.4806 99.1455 56.0136Z" fill="white"/>
<path d="M65.1758 50.5444C67.0182 50.8898 68.803 51.1201 70.5303 51.5806C72.3727 52.0988 73.0636 53.4804 72.4879 55.265C71.394 58.6615 70.2424 62.1155 69.0909 65.512C68.5727 67.0088 67.7091 67.5845 66.1546 67.5845C65.5212 67.5845 64.9455 67.5845 64.3121 67.5845C62.8727 67.5845 61.9515 66.8937 61.4909 65.6272C60.2818 62.1155 59.0727 58.6039 57.9212 55.0347C57.403 53.4228 58.1515 52.0412 59.7636 51.5806C61.5485 51.1777 63.3909 50.8898 65.1758 50.5444Z" fill="white"/>
<path d="M74.7909 55.2075C77.6121 56.1862 79.8576 57.6829 81.5848 59.9281C82.2757 60.7916 82.2182 61.8854 81.4121 62.6337C78.9939 64.7062 76.5182 66.7211 73.9848 68.6784C72.9485 69.4843 71.797 69.0813 70.4727 67.7573C71.9121 63.6124 73.3515 59.4675 74.7909 55.2075Z" fill="white"/>
<path d="M55.7909 55.2651C57.2303 59.4676 58.5545 63.6124 59.9364 67.7573C58.5545 69.3116 57.3455 69.4844 55.7333 68.1027C53.7182 66.4908 51.703 64.8789 49.7455 63.2095C48.2485 62.0006 48.1909 60.7916 49.4576 59.3524C51.1273 57.4527 53.2576 56.1287 55.7909 55.2651Z" fill="white"/>
<path d="M47.6152 64.3032C50.0909 66.2605 52.4515 68.1027 54.9849 70.1751C52.9121 71.5568 51.0121 72.9384 48.997 74.0322C47.9606 74.6078 46.8091 74.2049 45.9455 73.3414C45.0818 72.4778 44.8515 71.4416 45.2545 70.2903C46.0606 68.333 46.8091 66.4332 47.6152 64.3032Z" fill="white"/>
<path d="M82.8515 64.188C83.7152 66.5483 84.7515 68.6783 85.3273 70.9234C85.8455 73.0534 83.2546 74.9531 81.297 73.8594C79.397 72.8231 77.6121 71.4415 75.597 70.0599C78.0727 68.1026 80.3182 66.2604 82.8515 64.188Z" fill="white"/>
<path d="M82.1606 26.8266C81.7 28.2082 81.3545 29.5323 80.8364 30.7412C80.203 32.238 80.0303 33.6772 80.5485 35.2891C80.6636 35.7496 80.3182 36.3829 80.203 36.901C79.6848 36.6707 78.9939 36.6131 78.6485 36.2677C77.1515 34.5407 77.0364 32.5834 77.7848 30.511C78.0727 29.7626 78.3606 29.0142 78.7061 28.2658C79.2242 27.172 79.397 26.1358 79.0515 24.9269C78.9364 24.4664 79.1091 23.6028 79.4545 23.3726C80.1454 22.7969 80.6636 23.4877 81.0091 24.0634C81.4121 24.9269 81.7576 25.848 82.1606 26.8266Z" fill="white"/>
<path d="M88.7818 26.1934C88.3212 27.575 88.0333 28.7839 87.5727 29.8777C86.8818 31.5472 86.594 33.1015 87.2273 34.8861C87.3424 35.2891 87.0546 35.8072 86.9394 36.2677C86.4212 36.1526 85.7303 36.1526 85.4424 35.8647C83.9455 34.2528 83.7727 32.2955 84.3485 30.2807C84.5788 29.4172 84.9818 28.6112 85.3849 27.8053C85.9606 26.6539 86.0758 25.5026 85.6727 24.2361C85.5576 23.8331 85.903 23.2574 86.0758 22.7969C86.5364 22.9696 87.2273 22.9696 87.4 23.315C87.9182 24.1209 88.3212 25.2147 88.7818 26.1934Z" fill="white"/>
<path d="M90.2788 32.8711C90.797 31.3168 91.2 29.9352 91.7758 28.6687C92.294 27.4022 92.697 26.1933 92.2364 24.7541C92.1212 24.3511 92.4667 23.7754 92.6394 23.2573C93.1576 23.4876 93.8485 23.5452 94.1364 23.9481C95 25.2146 95.4606 26.6538 94.9424 28.2657C94.597 29.1868 94.3091 30.1079 93.9061 31.029C93.3303 32.4106 93.2727 33.7922 93.6758 35.2314C93.7909 35.6919 93.503 36.3252 93.3879 36.8433C92.8697 36.6706 92.1212 36.613 91.8909 36.2101C91.2576 35.1738 90.8546 34.0225 90.2788 32.8711Z" fill="white"/>
</g>
<defs>
<clipPath id="clip0_71_3">
<rect width="152" height="151" fill="white"/>
</clipPath>
</defs>
</svg>
