<svg width="144" height="175" viewBox="0 0 144 175" fill="none" xmlns="http://www.w3.org/2000/svg">
<g clip-path="url(#clip0_74_288)">
<path d="M71.8107 175C49.2831 175 26.7555 175 4.29097 175C0.126205 175 0.0631025 174.937 0.0631025 170.782C0.0631025 144.154 0.126205 117.464 0 90.8362C0 88.1293 0.883436 86.6815 3.34443 85.5484C13.1253 80.9531 22.78 76.043 32.5609 71.3847C34.454 70.5034 35.2112 69.3703 35.1481 67.293C35.0219 61.5016 35.1481 55.7732 35.085 49.9818C35.0219 47.9045 35.7791 46.7085 37.6722 45.8272C48.3997 40.7283 59.0009 35.5034 69.7914 30.4675C71.0535 29.838 73.1358 29.9009 74.461 30.5304C85.1884 35.5664 95.8528 40.7912 106.58 45.8901C108.473 46.7714 109.167 48.0304 109.104 50.0448C109.041 55.8991 109.104 61.8164 109.041 67.6707C109.041 69.4962 109.672 70.4405 111.376 71.2588C121.22 75.9171 131.001 80.7642 140.908 85.4225C143.18 86.4926 144.126 87.8146 144.126 90.4585C144 117.212 144.063 143.966 144.063 170.719C144.063 174.811 143.874 175 139.772 175C117.055 175 94.4645 175 71.8107 175ZM105.066 141.574C105.129 140.503 105.318 139.622 105.318 138.678C105.318 109.847 105.318 81.016 105.381 52.1221C105.381 50.1707 104.813 49.1006 102.983 48.2822C93.518 43.8128 84.1157 39.0916 74.5872 34.748C73.199 34.1185 71.0535 34.1185 69.6652 34.811C60.2629 39.2175 50.9869 43.8757 41.5846 48.3452C39.5653 49.2894 38.9343 50.5484 38.9343 52.6887C38.9974 81.2049 38.9974 109.721 38.9974 138.3C38.9974 139.37 39.1867 140.503 39.2498 141.637C61.3357 141.574 83.0429 141.574 105.066 141.574ZM39.1867 170.971C61.2095 170.971 83.043 170.971 105.129 170.971C105.129 162.473 105.129 154.163 105.129 145.665C83.1061 145.665 61.2726 145.665 39.1867 145.665C39.1867 154.163 39.1867 162.473 39.1867 170.971ZM109.231 154.478C119.706 154.478 129.928 154.478 140.151 154.478C140.214 153.912 140.34 153.597 140.34 153.282C140.34 132.698 140.403 112.176 140.277 91.5916C140.277 90.5214 139.078 89.0106 138.005 88.507C129.171 84.0376 120.337 79.757 111.439 75.4765C110.808 75.1617 110.177 75.0358 109.294 74.7211C109.23 101.538 109.231 128.039 109.231 154.478ZM34.9588 74.5952C33.823 75.0988 32.9395 75.3506 32.1823 75.7912C23.6004 79.9459 15.0815 84.2265 6.43646 88.3182C4.48028 89.1995 3.91236 90.3326 3.91236 92.347C3.97546 112.05 3.97546 131.753 3.97546 151.52C3.97546 152.527 4.10167 153.534 4.22787 154.541C14.6398 154.541 24.7362 154.541 35.085 154.541C34.9588 127.913 34.9588 101.475 34.9588 74.5952ZM140.088 171.034C140.088 166.628 140.088 162.662 140.088 158.57C129.676 158.57 119.579 158.57 109.357 158.57C109.357 162.851 109.357 166.879 109.357 171.034C119.706 171.034 129.739 171.034 140.088 171.034ZM35.0219 158.633C24.4838 158.633 14.3243 158.633 4.16477 158.633C4.16477 162.913 4.16477 166.942 4.16477 170.908C14.5767 170.908 24.6731 170.908 35.0219 170.908C35.0219 166.753 35.0219 162.851 35.0219 158.633Z" fill="white"/>
<path d="M80.7712 28.642C78.815 27.2571 76.7327 26.061 74.9027 24.4873C73.0096 22.8506 71.3689 22.7247 69.3497 24.3614C67.3304 25.9981 65.1218 27.32 62.156 29.2715C62.9763 26.3758 63.4811 24.3614 64.049 22.41C65.5004 17.6887 65.5635 17.6887 61.4618 14.6042C59.8843 13.4082 58.3698 12.2121 56.9185 10.1977C59.5688 10.1977 62.2191 10.0718 64.8694 10.2607C67.078 10.3866 68.34 9.69413 68.971 7.42794C69.6652 4.84701 70.7379 2.39197 71.6214 -0.126015C71.8738 -0.126015 72.1893 -0.126015 72.4417 -0.188965C73.3251 2.20312 74.2717 4.53226 74.9658 6.98729C75.6599 9.37938 76.7958 10.4495 79.4461 10.1977C81.9702 9.94593 84.5574 10.1348 87.1446 10.1348C87.2077 10.3866 87.2708 10.6384 87.3339 10.8902C85.1253 12.5898 82.9798 14.3524 80.7081 15.9261C79.1306 17.0592 78.5626 18.1294 79.3199 20.1438C80.3295 22.7247 80.8343 25.4945 81.5916 28.1384C81.3391 28.4531 81.0867 28.579 80.7712 28.642Z" fill="white"/>
<path d="M94.4645 35.5663C95.2217 32.293 96.7993 29.3343 96.1051 27.1311C95.4741 25.0537 92.4452 23.7318 90.489 21.3397C91.8773 21.3397 93.3286 21.2138 94.6538 21.3397C97.6196 21.6545 99.4496 20.7732 99.9544 17.6257C100.207 16.2408 100.964 14.9818 101.847 12.7786C102.605 14.9818 103.236 16.3667 103.551 17.8145C104.119 20.4584 105.444 21.7804 108.347 21.4027C109.861 21.2138 111.376 21.3397 113.648 21.3397C110.997 23.7948 108.158 25.3055 107.4 27.5088C106.706 29.5861 108.284 32.4189 108.978 35.3775C106.138 33.7408 103.867 31.2858 101.595 31.2858C99.4496 31.3487 97.241 33.8037 94.4645 35.5663Z" fill="white"/>
<path d="M34.2015 35.5663C34.9588 32.293 36.5363 29.3343 35.8422 27.1311C35.2112 25.0537 32.1823 23.7318 30.2261 21.3397C31.6143 21.3397 33.0657 21.2138 34.3908 21.3397C37.3567 21.6545 39.1866 20.7732 39.6915 17.6257C39.9439 16.2408 40.7011 14.9818 41.5845 12.7786C42.3418 14.9818 42.9728 16.3667 43.2883 17.8145C43.8562 20.4584 45.1814 21.7804 48.0841 21.4027C49.5986 21.2138 51.113 21.3397 53.3847 21.3397C50.7344 23.7948 47.8948 25.3055 47.1376 27.5088C46.4434 29.5861 48.021 32.4189 48.7151 35.3775C45.8755 33.7408 43.6038 31.2858 41.3321 31.2858C39.1866 31.3487 36.978 33.8037 34.2015 35.5663Z" fill="white"/>
<path d="M26.1875 37.6437C24.6099 39.0916 22.3382 40.2876 21.7072 42.0502C21.1393 43.6869 22.3382 45.9531 23.0324 49.0376C18.9938 45.0718 15.2707 44.1905 11.2322 48.471C13.3146 43.498 12.6835 39.784 7.31982 37.329C12.8097 37.8955 16.028 36.07 16.8483 30.3416C18.2997 35.2516 20.5714 38.525 26.3137 36.5736C26.2506 37.0142 26.2506 37.329 26.1875 37.6437Z" fill="white"/>
<path d="M121.725 48.4711C123.996 43.4352 122.797 40.0359 117.875 37.4549C123.176 37.9585 126.457 36.133 127.341 30.4675C128.666 35.5665 131.19 38.3992 136.996 37.0772C132.957 39.9729 130.18 42.9945 133.462 48.2823C129.36 45.3236 125.7 44.1905 121.725 48.4711Z" fill="white"/>
<path d="M71.8738 114.253C63.7336 114.253 64.5539 114.82 64.617 106.951C64.6801 98.0754 63.3549 99.0196 72.7572 98.9567C80.645 98.8937 79.6354 98.6419 79.6985 105.944C79.6985 106.133 79.6985 106.385 79.6985 106.574C79.5723 115.135 80.645 114.19 71.8738 114.253ZM68.4031 106.574C67.7721 109.469 68.6556 110.665 71.8738 110.602C74.9658 110.602 75.9755 109.847 75.9755 106.637C75.9124 103.552 75.2182 102.482 71.9369 102.545C68.8449 102.671 67.7721 103.615 68.4031 106.574Z" fill="white"/>
<path d="M90.9939 114.254C82.4751 114.254 83.2954 114.946 83.2954 106.448C83.2954 98.5791 82.3489 98.9568 90.6784 98.9568C99.3234 98.9568 98.5031 98.2014 98.5662 106.951C98.6293 115.198 98.8186 114.191 90.9939 114.254ZM87.0816 106.196C86.766 108.84 86.8291 110.917 90.426 110.602C93.0132 110.414 95.1587 110.602 94.8432 106.888C94.5908 104.496 95.0325 102.293 91.3094 102.608C88.7853 102.86 86.1981 102.419 87.0816 106.196Z" fill="white"/>
<path d="M53.2586 114.254C45.1184 114.254 45.6232 115.072 45.6863 106.637C45.6863 98.3902 44.9922 98.9568 53.2586 98.9568C61.9668 98.9568 60.9571 98.3902 60.9571 106.763C60.9571 115.009 61.6512 114.254 53.2586 114.254ZM53.511 102.797C50.4821 102.167 49.2831 103.174 49.3462 106.385C49.4093 109.218 49.7249 110.791 53.1955 110.665C55.972 110.539 57.4234 110.162 57.2341 106.951C57.1079 104.182 57.171 101.915 53.511 102.797Z" fill="white"/>
<path d="M79.6355 129.676C79.5724 138.489 80.5821 137.23 71.8739 137.293C63.923 137.293 64.4909 138.3 64.554 130.117C64.6171 121.178 63.1027 122.248 72.6311 122.248C80.8976 122.185 79.5093 121.682 79.6355 129.676ZM75.6601 133.39C75.6601 130.935 75.6601 128.732 75.6601 126.214C73.1991 126.214 70.8643 126.214 68.5295 126.214C68.5295 128.732 68.5295 130.998 68.5295 133.39C70.9905 133.39 73.2622 133.39 75.6601 133.39Z" fill="white"/>
<path d="M90.8045 68.0484C82.4118 68.1113 83.2953 68.2372 83.2953 60.5574C83.2953 51.8703 82.538 52.8146 91.0569 52.8146C98.8185 52.8146 98.5661 51.7444 98.5661 60.2426C98.503 68.7408 99.3233 68.0484 90.8045 68.0484ZM90.9307 56.6545C87.5231 55.7732 86.9552 57.4728 86.8921 60.4944C86.8921 63.516 87.7756 64.4602 90.8045 64.3973C93.6441 64.3343 94.9061 63.7678 94.843 60.5574C94.7799 57.7246 94.5275 55.7102 90.9307 56.6545Z" fill="white"/>
<path d="M53.4479 75.7913C61.7143 75.7913 60.9571 75.0989 60.9571 83.2194C60.9571 91.5287 62.0299 91.0251 53.1955 91.0251C45.0553 91.0251 45.6863 91.5917 45.6863 83.5341C45.6232 74.8471 45.0553 75.8543 53.4479 75.7913ZM53.1955 87.374C56.3506 88.1294 57.3603 86.8705 57.2341 83.7859C57.0447 79.7571 57.171 79.946 53.1955 79.6942C50.0404 79.5053 49.2831 80.7014 49.3462 83.66C49.4093 86.5557 49.9773 88.2553 53.1955 87.374Z" fill="white"/>
<path d="M53.1323 137.293C45.3707 137.167 45.6231 138.552 45.6231 129.865C45.6863 121.367 44.7397 122.185 53.4479 122.185C61.9667 122.185 60.8309 121.682 60.894 129.613C60.9571 138.489 61.6512 137.23 53.1323 137.293ZM57.0447 129.865C57.865 126.655 56.4137 125.836 53.3848 125.899C50.6082 125.899 49.22 126.34 49.2831 129.613C49.3462 132.761 50.0403 133.831 53.3217 133.705C56.1613 133.579 57.9912 133.264 57.0447 129.865Z" fill="white"/>
<path d="M60.957 60.3685C60.8939 68.426 62.0298 68.0483 53.3847 68.0483C45.0552 68.0483 45.6862 68.6778 45.6862 60.4314C45.6862 51.7444 45.2445 52.8145 53.3216 52.8145C61.5881 52.8145 60.957 51.9332 60.957 60.3685ZM49.5355 59.9908C49.0307 62.8865 49.5986 64.5861 53.1323 64.3973C55.7826 64.2714 57.5495 64.0825 57.234 60.7462C57.0447 58.3541 57.4864 56.0879 53.7633 56.5286C51.4285 56.7803 48.5258 55.962 49.5355 59.9908Z" fill="white"/>
<path d="M91.057 75.7913C98.9448 75.8543 98.6293 74.8471 98.5662 83.2194C98.5662 91.7176 99.2603 91.0251 90.8045 91.0881C82.3488 91.0881 83.2953 91.3399 83.2953 83.5971C83.2953 75.0359 82.4119 75.8543 91.057 75.7913ZM94.78 84.1007C94.78 79.7572 94.78 79.883 90.9939 79.6942C88.0911 79.5053 86.8922 80.2607 86.8922 83.4712C86.8922 86.5557 87.6494 87.6888 90.9308 87.5629C93.8966 87.5 95.4741 86.8705 94.78 84.1007Z" fill="white"/>
<path d="M91.057 137.293C82.6643 137.23 83.2954 138.363 83.2954 129.55C83.3585 121.681 82.2226 122.185 90.8046 122.185C99.3865 122.185 98.5031 121.304 98.5662 129.928C98.6293 138.615 98.8186 137.167 91.057 137.293ZM90.2998 133.579C94.78 133.579 94.5907 133.579 94.8431 129.991C95.0955 126.906 94.2121 125.773 90.8677 125.836C87.9019 125.899 86.8291 126.654 86.9553 129.739C87.0184 132.572 87.3339 134.397 90.2998 133.579Z" fill="white"/>
<path d="M72.1893 52.8147C80.4558 52.8777 79.6354 51.9964 79.6354 60.1798C79.5723 68.8039 80.9606 67.9856 71.7476 68.0485C63.6074 68.1115 64.617 68.2374 64.617 60.9352C64.617 60.7464 64.617 60.4946 64.617 60.3057C64.617 51.8705 63.7336 52.8777 72.1893 52.8147ZM76.4172 56.0881C73.0097 56.6546 70.0439 56.2769 68.7187 57.5989C67.7091 58.6061 67.9615 62.2571 69.0342 63.642C69.8545 64.7122 74.0193 64.8381 74.7134 63.9568C75.9755 62.2571 75.7862 59.4874 76.4172 56.0881Z" fill="white"/>
<path d="M64.5538 83.3453C64.6169 74.973 63.6073 75.8543 72.1892 75.8543C80.5188 75.8543 79.6984 75.0359 79.6353 83.2194C79.5722 91.8435 80.8974 91.0881 71.7475 91.0881C63.3549 91.0881 64.68 91.3399 64.5538 83.3453ZM72.1261 87.3741C75.4075 88.3183 75.9754 86.6187 75.9754 83.723C75.9754 80.9532 75.5337 79.6313 72.2523 79.6313C69.0341 79.6313 68.0876 80.5126 68.2138 83.723C68.34 86.5557 68.8448 88.2554 72.1261 87.3741Z" fill="white"/>
<path d="M133.146 121.178C133.083 129.361 134.282 128.795 125.574 128.795C116.866 128.795 118.128 129.047 118.128 121.367C118.128 112.617 116.866 113.498 125.953 113.498C134.093 113.498 133.02 112.806 133.146 121.178ZM125.637 117.338C122.482 116.457 121.725 117.968 121.725 120.926C121.725 123.759 121.977 125.207 125.511 125.144C128.855 125.081 129.486 123.948 129.423 120.989C129.423 118.156 128.982 116.394 125.637 117.338Z" fill="white"/>
<path d="M118.065 97.8235C118.128 89.2624 117.118 90.3955 125.385 90.4584C133.967 90.4584 133.146 89.0106 133.083 98.0753C133.083 106.322 134.345 105.503 125.448 105.503C116.613 105.503 118.254 106.07 118.065 97.8235ZM129.613 94.3613C126.521 94.3613 124.312 94.3613 121.535 94.3613C121.851 96.9422 121.535 99.712 122.734 101.349C123.492 102.356 127.719 102.293 128.477 101.349C129.676 99.712 129.297 96.9422 129.613 94.3613Z" fill="white"/>
<path d="M133.146 144.154C133.02 152.401 134.282 151.708 125.574 151.771C116.803 151.771 118.128 152.149 118.128 144.406C118.128 135.467 116.929 136.538 125.953 136.538C133.904 136.475 133.083 135.593 133.146 144.154ZM121.851 148.183C123.492 148.183 124.691 148.057 125.89 148.183C128.982 148.687 129.486 147.113 129.486 144.406C129.423 141.825 129.486 140 125.953 140.252C121.914 140.566 121.851 140.315 121.851 144.343C121.851 145.602 121.851 146.672 121.851 148.183Z" fill="white"/>
<path d="M26.1244 121.241C25.9982 129.299 27.4496 128.795 18.489 128.795C10.0332 128.795 11.0429 129.11 11.0429 121.304C11.0429 112.491 10.0332 113.561 18.9938 113.498C27.3233 113.435 25.9982 112.932 26.1244 121.241ZM22.4013 117.212C20.7607 117.212 19.5617 117.338 18.3628 117.212C15.2708 116.709 14.7659 118.282 14.7659 120.989C14.829 123.57 14.829 125.396 18.2997 125.144C22.3382 124.829 22.4013 125.081 22.4013 120.989C22.4013 119.856 22.4013 118.723 22.4013 117.212Z" fill="white"/>
<path d="M18.7414 90.3956C27.071 90.5215 26.1244 89.2625 26.0613 97.7607C25.9982 106.259 27.6389 105.504 18.489 105.504C9.90706 105.504 11.106 106.133 11.106 98.1384C11.106 89.0107 10.2226 90.5844 18.7414 90.3956ZM15.3339 94.2355C14.1349 102.293 14.2611 102.419 22.149 101.286C22.149 98.9567 22.149 96.6276 22.149 94.2355C19.7511 94.2355 17.6687 94.2355 15.3339 94.2355Z" fill="white"/>
<path d="M26.1244 144.343C25.9982 152.212 27.4495 151.771 18.7414 151.771C9.907 151.771 11.1691 152.401 11.106 143.903C11.0428 135.656 10.4118 136.538 18.2365 136.538C27.2602 136.475 26.0613 135.468 26.1244 144.343ZM22.9692 148.687C22.2751 145.288 22.4013 142.518 21.0762 140.755C20.4451 139.874 16.2804 140.126 15.46 141.133C14.3873 142.518 14.198 146.232 15.2076 147.113C16.7221 148.435 19.6248 148.12 22.9692 148.687Z" fill="white"/>
</g>
<defs>
<clipPath id="clip0_74_288">
<rect width="144" height="175" fill="white"/>
</clipPath>
</defs>
</svg>
