<svg width="142" height="155" viewBox="0 0 142 155" fill="none" xmlns="http://www.w3.org/2000/svg">
<g clip-path="url(#clip0_73_21)">
<path d="M90.3776 114.632C82.1335 118.484 77.0483 118.484 74.3516 114.786C72.8877 112.783 73.0418 111.243 74.4286 109.702C75.5073 111.243 76.9712 114.401 77.8188 114.247C79.8991 113.862 82.2876 112.398 83.5974 110.626C91.4563 100.149 99.7775 97.5298 111.951 103.231C118.346 106.235 123.431 105.542 128.439 100.919C129.672 99.8409 131.136 98.9165 132.6 98.2231C135.836 96.7594 139.766 98.3772 140.921 101.536C142.077 104.617 140.536 108.007 137.531 109.162C134.295 110.318 131.444 108.777 130.058 105.157C129.826 104.54 129.672 103.924 129.441 103.308C126.128 104.925 122.892 106.543 119.733 108.084C120.889 110.164 122.122 112.552 123.354 114.94C122.969 115.171 122.507 115.403 122.122 115.634C121.582 114.863 120.966 114.093 120.504 113.246C118.269 109.085 114.956 106.158 110.487 104.771C105.479 103.308 100.625 104.001 96.9267 107.853C92.9973 112.013 90.6088 116.943 91.6875 122.875C92.3809 126.65 95.3858 127.883 98.7759 128.191C102.474 128.499 106.558 126.342 107.251 123.492C107.482 122.644 106.327 121.489 106.095 120.41C105.864 119.409 105.556 117.945 106.095 117.329C106.635 116.635 108.253 116.173 109.023 116.481C109.871 116.789 110.795 118.176 110.795 119.023C110.487 125.957 105.402 130.425 98.6218 130.04C91.9186 129.655 88.3744 124.801 89.6842 117.637C89.8383 116.866 90.0694 116.019 90.3776 114.632ZM100.009 103.077C90.4547 101.69 87.1416 108.931 82.6728 115.48C90.7629 114.093 93.6907 106.158 100.009 103.077ZM139.92 104.617C139.92 104.078 139.92 103.539 139.997 102.999C138.533 101.998 136.992 100.149 135.528 100.149C134.295 100.149 131.907 102.383 132.061 103.462C132.215 105.002 134.064 107.16 135.451 107.391C136.761 107.545 138.379 105.619 139.92 104.617Z" fill="white"/>
<path d="M99.3152 130.887C99.007 130.887 98.7759 130.887 98.4677 130.887C95.0776 130.733 92.3809 129.423 90.6088 127.189C88.6826 124.801 88.0662 121.411 88.8367 117.56C88.9137 117.02 89.0678 116.558 89.2219 115.942C81.5171 119.254 76.4319 119.023 73.6582 115.171C72.0401 112.937 72.1172 111.011 73.7352 109.085L74.3516 108.315L74.8909 109.085C75.2762 109.625 75.6614 110.241 76.0467 110.934C76.5089 111.705 77.2794 113.014 77.6647 113.322C79.5138 112.937 81.6712 111.628 82.8269 110.087C91.1481 98.9935 99.8546 96.7594 112.105 102.46C118.269 105.388 122.969 104.694 127.746 100.303C128.979 99.2246 130.443 98.2231 132.138 97.4527C133.91 96.6823 135.913 96.6053 137.762 97.3757C139.534 98.069 140.844 99.4557 141.461 101.151C142.077 102.845 142 104.617 141.307 106.235C140.613 107.853 139.303 109.085 137.608 109.702C133.987 111.011 130.674 109.317 129.133 105.234C128.979 104.925 128.902 104.54 128.825 104.232L120.658 108.238L124.279 115.017L121.813 116.481L121.428 115.865C121.274 115.634 121.12 115.403 120.889 115.171C120.504 114.632 120.118 114.093 119.733 113.477C117.499 109.317 114.263 106.62 110.179 105.388C106.635 104.309 101.473 104.001 97.389 108.238C93.0743 112.783 91.3793 117.483 92.3809 122.567C92.9202 125.417 94.9235 126.958 98.7759 127.266C102.166 127.574 105.864 125.571 106.404 123.106C106.481 122.875 106.173 122.336 105.941 121.951C105.71 121.488 105.402 120.949 105.248 120.41C104.94 119.023 104.709 117.56 105.402 116.712C106.095 115.788 108.099 115.171 109.254 115.634C110.41 116.096 111.566 117.791 111.489 118.946C111.335 122.49 109.948 125.571 107.636 127.729C105.479 129.886 102.551 130.887 99.3152 130.887ZM91.4563 113.245L91.0711 114.786C90.994 115.248 90.8399 115.711 90.7629 116.096C90.6088 116.789 90.4547 117.328 90.3776 117.868C89.7613 121.334 90.2235 124.185 91.8416 126.265C93.3055 128.114 95.6169 129.192 98.5448 129.346C101.704 129.5 104.555 128.576 106.558 126.727C108.638 124.878 109.794 122.182 109.948 119.023C109.948 118.484 109.254 117.405 108.715 117.174C108.253 117.02 106.943 117.328 106.712 117.714C106.558 117.945 106.481 118.484 106.866 120.179C106.943 120.487 107.174 120.949 107.405 121.334C107.791 122.028 108.253 122.798 108.022 123.646C107.328 126.804 102.937 129.346 98.7759 128.961C94.2301 128.576 91.6875 126.65 90.994 123.029C89.9924 117.483 91.7645 112.167 96.3874 107.314C100.086 103.462 105.017 102.306 110.718 104.001C115.187 105.311 118.731 108.315 121.197 112.783C121.505 113.322 121.813 113.785 122.199 114.247L118.654 107.622L129.826 102.075L130.135 102.922C130.212 103.154 130.289 103.308 130.289 103.539C130.443 103.924 130.52 104.309 130.674 104.694C131.907 108.007 134.372 109.317 137.146 108.238C138.379 107.776 139.38 106.851 139.92 105.542C139.997 105.388 140.074 105.234 140.074 105.079C139.689 105.311 139.303 105.696 138.841 106.004C137.608 107.005 136.375 108.007 135.143 107.776C133.371 107.545 131.367 104.925 131.136 103.153C131.059 102.383 131.598 101.536 132.138 100.996C132.985 99.995 134.372 99.0705 135.374 99.0705C136.684 99.0705 137.839 100.072 138.995 100.996C139.38 101.305 139.766 101.69 140.151 101.921C140.151 101.767 140.074 101.69 139.997 101.536C139.534 100.303 138.456 99.2246 137.146 98.6853C135.759 98.069 134.141 98.069 132.754 98.6853C131.29 99.3787 129.903 100.226 128.748 101.228C123.431 106.081 118.115 106.774 111.412 103.616C103.63 99.995 97.4661 99.6868 91.9186 103.076C94.076 101.998 96.6956 101.459 99.9316 101.921L102.397 102.306L100.163 103.385C97.6972 104.617 95.694 106.62 93.6907 108.7C90.6858 111.782 87.681 114.94 82.6728 115.788L80.9007 116.096L81.9023 114.555C82.4417 113.785 82.981 112.937 83.5203 112.167C84.8302 110.087 86.217 108.007 87.835 106.312C86.6023 107.545 85.3695 109.008 84.0597 110.626C82.5958 112.552 80.0532 114.093 77.8188 114.555C76.7401 114.786 75.8926 113.322 74.7368 111.397C74.5827 111.165 74.4286 110.857 74.2745 110.626C73.7352 111.628 73.9663 112.629 74.8909 113.939C77.2794 117.328 82.2105 117.174 89.9924 113.554L91.4563 113.245ZM97.5431 103.693C91.3022 103.77 88.2973 108.315 84.9843 113.477C84.8302 113.708 84.6761 114.016 84.4449 114.247C87.9121 113.091 90.3006 110.626 92.7661 108.084C94.2301 106.466 95.771 104.925 97.5431 103.693ZM135.528 100.919C134.757 100.919 132.831 102.768 132.831 103.385C132.985 104.617 134.526 106.466 135.528 106.62C136.144 106.697 137.223 105.85 138.071 105.156C138.456 104.848 138.841 104.54 139.226 104.232V103.385C138.841 103.076 138.533 102.845 138.148 102.537C137.223 101.69 136.221 100.919 135.528 100.919Z" fill="white"/>
<path d="M67.4173 108.315C69.1894 111.243 68.9582 113.246 67.4173 115.171C64.6435 118.561 59.8665 118.484 52.0076 114.863C52.2387 117.02 52.5469 119.177 52.5469 121.257C52.4699 126.188 49.5421 129.423 44.611 130.117C39.1405 130.887 33.9783 128.268 32.5914 123.954C32.1291 122.644 31.5128 121.257 31.5128 119.948C31.5128 118.869 31.975 117.406 32.7455 116.866C33.3619 116.404 35.2881 116.635 35.6734 117.251C36.2127 118.022 36.4438 120.102 35.9045 120.564C32.5914 123.337 35.134 125.109 36.9832 126.65C39.834 129.038 44.4569 129.115 47.4618 127.189C50.6207 125.109 50.8519 122.028 50.3125 118.638C49.1568 111.32 44.3798 105.696 38.3701 104.617C31.6669 103.385 25.1948 106.774 21.4194 113.4C20.9571 114.247 20.4178 114.94 19.8785 115.711C19.4932 115.48 19.108 115.326 18.7227 115.094C19.8785 112.783 21.0342 110.472 22.1129 108.238C19.108 106.774 15.872 105.157 12.5589 103.462C12.3277 104.155 12.0966 105.002 11.7884 105.773C10.4015 109.085 7.39664 110.472 4.31471 109.24C1.46392 108.084 3.03984e-06 104.848 1.00163 101.921C1.92621 98.9935 5.47043 96.9135 8.39827 98.0691C10.4786 98.9165 12.4818 100.226 14.2539 101.69C18.9539 105.696 23.6538 106.235 29.5095 103.693C33.7472 101.844 38.6012 101.151 43.3011 100.919C49.0027 100.611 53.7027 103.154 56.7075 108.315C57.7092 109.933 58.7108 111.782 60.1747 112.86C61.4075 113.862 63.4107 114.401 64.9517 114.247C65.6451 114.17 66.0304 111.859 66.5697 110.549C66.8009 110.01 66.955 109.625 67.4173 108.315ZM59.3272 115.48C54.9354 109.008 51.6224 101.767 42.2225 103.154C48.3863 106.312 51.2371 114.016 59.3272 115.48ZM10.8638 104.694C10.8638 104.078 10.8638 103.462 10.8638 102.845C9.39989 101.844 7.85893 100.072 6.47206 100.149C5.16224 100.226 2.77374 102.46 2.92784 103.462C3.15898 105.002 5.00814 107.082 6.39501 107.391C7.70483 107.622 9.32285 105.619 10.8638 104.694Z" fill="white"/>
<path d="M42.6848 130.887C37.5996 130.887 33.1308 128.191 31.8209 124.031C31.7439 123.723 31.5898 123.415 31.5128 123.106C31.1275 122.028 30.7423 120.949 30.7423 119.794C30.7423 118.561 31.2046 116.789 32.2832 116.019C32.9767 115.48 34.0553 115.634 34.5176 115.711C35.057 115.788 35.9045 116.019 36.3668 116.558C36.9832 117.483 37.5225 120.025 36.5209 120.872C35.5963 121.643 35.134 122.336 35.2111 122.875C35.2111 123.8 36.2897 124.647 37.2914 125.418L37.6766 125.726C40.2192 127.806 44.3798 128.037 47.2306 126.188C49.6191 124.647 50.3896 122.413 49.7732 118.407C48.6945 111.474 44.1487 106.081 38.4471 105.08C32.0521 103.924 25.8882 107.16 22.344 113.477C22.0358 114.093 21.6506 114.632 21.2653 115.172C21.1112 115.403 20.9571 115.634 20.803 115.865L20.4178 116.481L17.9523 115.249L21.3424 108.392L13.0982 104.386C12.9441 104.848 12.79 105.388 12.5589 105.927C11.0179 109.625 7.55073 111.243 4.08356 109.856C0.847533 108.546 -0.770481 104.925 0.308195 101.613C0.847533 99.918 2.2344 98.3773 4.00651 97.5299C5.54748 96.7595 7.24254 96.6825 8.70646 97.2217C10.7097 97.9921 12.79 99.3017 14.7933 100.997C19.2621 104.771 23.5768 105.388 29.2013 102.923C32.9767 101.305 37.5225 100.38 43.2241 100.072C49.3109 99.764 54.1649 102.46 57.401 107.853L57.478 108.007C58.4026 109.548 59.3272 111.166 60.637 112.167C61.7157 112.937 63.4107 113.477 64.7206 113.4C64.9517 113.091 65.1829 112.167 65.414 111.628C65.5681 111.089 65.7222 110.626 65.8763 110.164C65.9533 109.933 66.0304 109.702 66.1845 109.24C66.2615 108.931 66.4156 108.546 66.5697 108.084L67.1091 106.543L67.9566 107.93C69.8058 110.934 69.8058 113.323 67.8795 115.634C65.0288 119.177 60.3288 119.332 52.7781 116.096C52.7781 116.327 52.8551 116.558 52.8551 116.789C53.0092 118.253 53.2404 119.717 53.1633 121.257C53.0863 126.496 49.9273 130.117 44.611 130.81C43.9946 130.887 43.3011 130.887 42.6848 130.887ZM33.6701 117.252C33.439 117.252 33.2078 117.252 33.1308 117.329C32.5914 117.714 32.2062 118.869 32.2062 119.794C32.2062 120.718 32.5914 121.643 32.8996 122.644C33.0537 122.952 33.1308 123.338 33.2078 123.646C34.5176 127.575 39.2946 130.04 44.3798 129.269C48.9257 128.653 51.5453 125.649 51.6224 121.18C51.6224 119.794 51.4683 118.407 51.3142 116.943C51.2371 116.25 51.1601 115.557 51.083 114.863L50.9289 113.554L52.1617 114.093C59.7124 117.56 64.1812 117.714 66.7238 114.632C67.8795 113.246 68.1107 111.936 67.4943 110.241C67.4173 110.395 67.4173 110.549 67.3402 110.703C67.1861 111.089 67.032 111.551 66.8779 112.013C66.4156 113.554 66.0304 114.786 65.0288 114.863C63.2566 115.017 61.0993 114.478 59.7124 113.323C58.1715 112.167 57.0928 110.318 56.1682 108.7L56.0912 108.546C53.2404 103.693 48.7716 101.228 43.3782 101.536C37.9078 101.844 33.439 102.691 29.8947 104.309C23.6538 107.006 18.7227 106.389 13.8687 102.152C12.0195 100.611 10.0933 99.3788 8.24417 98.6854C7.16549 98.3003 5.93272 98.3773 4.69995 98.9165C3.31308 99.5328 2.2344 100.765 1.84916 102.075C1.00163 104.617 2.31145 107.468 4.69995 108.469C7.31959 109.548 9.93923 108.315 11.095 105.465C10.7097 105.696 10.3245 106.081 9.93923 106.389C8.70646 107.391 7.47369 108.392 6.24091 108.161C4.54585 107.853 2.3885 105.465 2.15735 103.616C2.08031 103.077 2.31145 102.383 2.92784 101.69C3.77537 100.611 5.31633 99.5329 6.47206 99.4558C7.78188 99.3788 8.9376 100.38 10.0933 101.305C10.5556 101.69 10.9409 101.998 11.4031 102.306L11.7884 102.537V104.078C11.7884 104.001 11.8654 103.924 11.8654 103.924C11.9425 103.693 12.0195 103.462 12.0966 103.231L12.4048 102.383L23.4227 107.853L20.4948 113.708C20.6489 113.477 20.803 113.169 20.9571 112.937C24.8866 106.004 31.6669 102.537 38.6782 103.77C44.9962 104.925 50.0814 110.78 51.2371 118.407C51.6994 121.489 51.7765 125.263 48.0011 127.652C44.611 129.809 39.6028 129.578 36.5979 127.035L36.2127 126.727C34.9799 125.726 33.5931 124.57 33.5931 122.952C33.5931 121.874 34.2094 120.795 35.5193 119.717C35.6734 119.486 35.5193 118.022 35.134 117.483C34.8258 117.329 34.2094 117.252 33.6701 117.252ZM6.54911 100.92C5.54748 100.997 3.69832 102.768 3.62127 103.385C3.77537 104.617 5.39338 106.389 6.47206 106.62C7.0114 106.697 8.01302 105.85 8.86055 105.157C9.2458 104.848 9.63104 104.54 10.0163 104.232V103.231C9.63104 103 9.32284 102.691 8.9376 102.383C8.16712 101.69 7.24254 100.92 6.54911 100.92ZM60.9452 116.558L59.1731 116.25C54.165 115.326 51.083 112.167 48.0781 109.086C46.0749 107.006 44.2257 105.08 41.7602 103.847L39.6028 102.768L41.9913 102.46C50.7748 101.228 54.6272 107.083 58.3256 112.783C58.8649 113.554 59.3272 114.324 59.8665 115.094L60.9452 116.558ZM44.611 103.77C46.306 105.003 47.7699 106.543 49.2339 108.007C51.6994 110.626 54.0879 113.092 57.5551 114.247C57.401 114.016 57.2469 113.785 57.0928 113.554C53.7797 108.392 50.7748 103.847 44.611 103.77Z" fill="white"/>
<path d="M73.7352 128.268C80.7466 134.508 79.4368 126.804 71.732 131.118C71.1156 131.426 69.9598 154.461 69.4205 154.075C61.8698 149.222 60.7141 134.97 67.6484 128.191C68.573 129.346 69.4976 130.425 70.6533 131.734C71.6549 130.579 72.7336 129.423 73.7352 128.268ZM67.4173 131.58C63.0255 138.745 64.4894 147.527 70.7303 152.303C76.9712 147.219 78.3581 138.437 73.8123 131.426C71.809 134.893 69.5746 134.508 67.4173 131.58Z" fill="white"/>
<path d="M69.3435 155L68.9582 154.769C65.414 152.458 62.9485 147.912 62.3321 142.597C61.7157 136.742 63.4878 131.118 67.032 127.651L67.6484 127.035L70.5762 130.579L73.6582 127.189L74.1975 127.729C74.8139 128.268 75.3532 128.73 75.7385 129.038C77.2794 128.961 78.3581 129.423 78.8204 130.04C79.1286 130.502 79.1286 131.041 78.7434 131.426C78.127 131.966 76.9712 131.734 75.3532 130.656C75.045 130.733 74.6598 130.81 74.3516 130.887L74.4286 131.041C79.2056 138.36 77.8188 147.527 71.1926 152.92L70.7303 153.305L70.4221 153.074C70.191 154.615 70.0369 154.692 69.7287 154.846L69.3435 155ZM67.5713 129.346C64.7206 132.505 63.4107 137.358 63.9501 142.443C64.4124 146.834 66.2615 150.609 68.9582 152.843C68.9582 152.535 69.0353 152.227 69.0353 151.841C63.4107 146.603 62.4091 138.206 66.7238 131.195L67.3402 130.194L68.0336 131.118C68.7271 132.043 69.6517 133.044 70.6533 133.121C70.6533 133.044 70.6533 132.967 70.6533 132.89L70.5762 132.967L67.5713 129.346ZM70.6533 151.225C76.0467 146.603 77.2024 139.13 73.7352 132.813C73.1959 133.506 72.5795 134.046 71.9631 134.354C71.732 136.588 71.5008 139.823 71.2697 142.597C71.0385 146.757 70.8074 149.453 70.6533 151.225ZM67.4943 132.967C64.4124 138.745 65.1058 145.37 69.1894 149.915C69.4205 147.758 69.5746 144.985 69.8058 142.52C70.1139 138.899 70.268 136.434 70.4221 134.739C69.4976 134.585 68.4959 133.969 67.4943 132.967ZM72.3483 131.657C72.3483 131.811 72.2713 131.966 72.2713 132.197C72.5024 131.966 72.6565 131.657 72.8877 131.426C72.7336 131.503 72.5024 131.58 72.3483 131.657Z" fill="white"/>
<path d="M76.7401 123.954C78.6663 125.186 80.9007 126.188 82.5958 127.806C84.8302 129.963 86.6023 132.428 90.3006 131.503C90.994 131.349 92.535 132.505 92.6891 133.275C92.9203 134.046 92.1498 135.432 91.3793 136.049C88.9908 137.974 85.6777 137.127 83.3663 134.277C80.9778 131.272 78.6663 128.191 76.2778 125.109C76.509 124.647 76.6631 124.262 76.7401 123.954Z" fill="white"/>
<path d="M88.5285 137.743C86.5252 137.743 84.4449 136.665 82.8269 134.662C81.1319 132.505 79.4368 130.348 77.8188 128.268C77.1253 127.343 76.4319 126.419 75.6614 125.494L75.4303 125.186L76.2778 122.798L77.1253 123.337C77.7417 123.723 78.3581 124.108 78.9745 124.416C80.4384 125.263 81.9023 126.111 83.0581 127.266C83.3663 127.574 83.6744 127.883 83.9056 128.114C85.7548 129.963 87.2187 131.426 90.0695 130.733C91.2252 130.425 93.1514 131.966 93.4596 133.044C93.7678 134.277 92.7661 135.895 91.9186 136.588C90.917 137.358 89.7613 137.743 88.5285 137.743ZM77.5876 125.34C78.127 126.034 78.5893 126.727 79.1286 127.343C80.7466 129.423 82.4417 131.657 84.0597 133.737C86.14 136.28 88.9137 136.973 90.994 135.355C91.6104 134.893 92.0727 133.737 91.9957 133.429C91.9186 132.967 90.8399 132.197 90.4547 132.197C86.8334 133.121 84.8302 131.118 82.904 129.115C82.5958 128.807 82.3646 128.576 82.0564 128.268C80.9778 127.266 79.6679 126.496 78.2811 125.649C78.0499 125.571 77.8188 125.417 77.5876 125.34Z" fill="white"/>
<path d="M65.5681 124.724C62.9485 128.037 60.7141 130.964 58.4797 133.891C56.0141 137.05 53.2404 137.974 50.5437 136.203C49.6961 135.663 48.9257 134.2 49.0027 133.198C49.0027 132.582 50.7748 131.272 51.4683 131.503C55.3207 132.505 57.0928 129.886 59.1731 127.651C60.8682 125.725 62.7173 123.954 65.5681 124.724Z" fill="white"/>
<path d="M53.2404 137.82C52.1617 137.82 51.083 137.512 50.0814 136.819C49.0027 136.049 48.0781 134.431 48.1552 133.121C48.1552 132.428 48.8486 131.812 49.388 131.426C49.7732 131.118 50.7748 130.502 51.6224 130.733C54.6272 131.503 56.0912 129.809 57.8633 127.806C58.0944 127.574 58.3256 127.343 58.5567 127.035C60.0206 125.417 62.255 123.029 65.7222 123.954L66.8779 124.262L63.7189 128.345C62.1009 130.425 60.637 132.351 59.096 134.277C57.2469 136.588 55.2436 137.82 53.2404 137.82ZM49.6961 133.275C49.6961 133.969 50.3125 135.124 50.9289 135.509C53.7797 137.435 56.2453 135.355 57.8633 133.352C59.3272 131.426 60.8681 129.5 62.4862 127.42L64.1042 125.263C62.4091 125.34 61.0993 126.496 59.6354 128.037C59.4042 128.268 59.1731 128.499 59.019 128.73C57.1698 130.81 55.0895 133.121 51.2371 132.12C50.9289 132.197 49.9273 132.89 49.6961 133.275Z" fill="white"/>
<path d="M46.306 58.1636C45.9208 59.3962 45.6896 60.7059 45.1503 61.8614C41.2208 69.8734 30.5111 74.8038 22.0358 72.0304C19.5703 71.183 17.3359 69.103 15.3326 67.2541C14.1769 66.1755 13.7916 64.2496 12.713 63.094C11.2491 61.5533 9.3999 60.3977 7.70483 59.011C6.8573 60.6288 5.93272 62.3237 4.93109 64.1726C3.00489 63.2481 3.54422 61.3222 4.31471 59.4732C6.00977 55.4673 9.70809 55.0821 17.8752 57.9325C17.8752 55.2362 17.49 52.5399 17.9523 49.9976C19.2621 43.2953 26.8128 40.9071 31.975 45.3753C32.2062 45.5294 32.3603 45.7605 32.5144 45.9146C38.3701 51.5384 42.8389 52.925 47.3847 50.4598C52.1617 47.9176 56.0141 39.3664 55.0895 33.4345C54.5502 30.0448 52.5469 28.0418 49.2339 27.7337C46.0749 27.4255 43.3782 28.6581 42.0684 31.7397C41.6831 32.5871 42.4536 33.8967 42.6077 34.9752C42.7618 36.2078 42.993 37.5175 42.6848 38.6731C42.6077 39.0582 40.2963 39.5205 40.1422 39.2123C39.5258 38.1338 39.0635 36.8241 38.9864 35.5915C38.9864 34.3589 39.4487 33.1263 39.7569 31.8937C40.8356 28.0418 44.611 25.5766 48.9257 25.7307C53.1633 25.8848 56.1682 28.427 56.7075 32.7411C57.0157 35.1293 56.7846 37.5945 56.7846 40.2908C61.1763 38.596 65.7992 36.1308 69.5746 40.9842C70.5762 42.2938 70.268 44.682 70.5762 46.5309C70.1139 46.685 69.5746 46.8391 69.1123 46.9931C68.9582 46.685 68.8041 46.2998 68.7271 45.9916C68.1877 44.4509 67.5714 42.9101 67.032 41.3694C65.414 42.4479 63.3337 43.1412 62.3321 44.605C54.3961 56.4688 49.1568 57.9325 35.2881 51.4613C35.5193 52.4628 35.9045 53.2332 35.7504 53.9265C35.5193 54.928 35.134 56.1606 34.3635 56.7769C33.8242 57.1621 32.1291 56.854 31.7439 56.3147C31.2046 55.5443 30.9734 54.0806 31.3587 53.2332C32.9767 49.3043 32.2832 47.2242 28.4308 45.6835C24.8096 44.2198 20.8801 45.9916 19.7244 49.6124C17.9523 55.3132 21.7276 64.9429 26.8899 67.9474C31.6669 70.7208 37.7537 69.0259 41.6831 63.6333C42.9929 61.8614 43.9946 59.7814 45.0732 57.8555C45.5355 57.9325 45.9208 58.0866 46.306 58.1636ZM12.5589 58.5488C15.949 63.9414 17.567 71.4141 27.5062 70.4897C20.9571 67.3311 19.185 60.1666 12.5589 58.5488ZM48.2322 52.6939C55.0895 54.1576 58.4026 48.842 61.8698 40.8301C61.6386 40.599 61.4075 40.3679 61.1763 40.0597C56.8616 44.2198 52.5469 48.3798 48.2322 52.6939Z" fill="white"/>
<path d="M26.9669 73.5712C25.1948 73.5712 23.4227 73.34 21.7276 72.8008C19.2621 72.0304 17.1047 70.0274 15.1785 68.2555L14.7162 67.8704C14.0228 67.177 13.5605 66.3296 13.1753 65.4822C12.8671 64.7888 12.4818 64.0955 12.0195 63.6333C11.0179 62.6318 9.86218 61.7844 8.62941 60.8599C8.32122 60.6288 8.09007 60.4747 7.78188 60.2436L5.08519 65.2511L4.39175 64.9429C1.54097 63.5562 2.92784 60.3977 3.39013 59.2421C5.47043 54.3887 10.2474 54.6969 16.8736 56.931C16.8736 56.4688 16.7965 56.0065 16.7965 55.5443C16.7195 53.6954 16.6424 51.7695 16.9506 49.9206C17.6441 46.6079 19.8014 43.9886 22.8833 42.9101C26.0423 41.8316 29.5865 42.5249 32.2832 44.8361C32.4373 44.9901 32.5914 45.1442 32.7455 45.2983L32.8996 45.4524C38.5241 50.845 42.6848 52.1546 46.8454 49.8435C51.3142 47.4553 55.0125 39.2123 54.165 33.5885C53.7027 30.5841 51.9305 28.8122 49.0027 28.5811C45.9208 28.2729 43.6864 29.5826 42.6077 32.1248C42.4536 32.433 42.6848 33.0493 42.8389 33.5885C42.9929 34.0508 43.147 34.513 43.147 34.9752C43.147 35.2063 43.2241 35.3604 43.2241 35.5915C43.3782 36.7471 43.5323 37.9027 43.2241 38.9812C43.147 39.2123 42.9929 39.8286 40.9126 40.1368C40.2192 40.2138 39.6028 40.2138 39.2946 39.7516C38.5241 38.4419 38.1389 37.0552 38.0619 35.7456C38.0619 34.59 38.3701 33.5115 38.6782 32.433C38.7553 32.2019 38.8323 31.9708 38.9094 31.7396C40.0651 27.5796 44.1487 24.8062 48.8486 25.0374C53.6256 25.1914 56.7846 28.1189 57.401 32.7411C57.6321 34.436 57.5551 36.1308 57.478 37.9027C57.478 38.3649 57.478 38.8271 57.478 39.2893C57.5551 39.2893 57.5551 39.2893 57.6321 39.2123C61.7157 37.5945 66.3386 35.7456 70.1139 40.599C70.9615 41.6775 71.0385 43.2183 71.1156 44.759C71.1156 45.3753 71.1926 45.9916 71.2697 46.5309L71.3467 47.1472L68.573 48.0716L68.1877 47.0702C68.1107 46.839 67.9566 46.6079 67.8795 46.2998C67.4943 45.1442 67.032 44.0657 66.6468 42.9101L66.4927 42.5249C66.1845 42.679 65.9533 42.8331 65.6451 42.9872C64.4894 43.6035 63.4107 44.2198 62.8714 44.9901C55.0895 56.931 49.465 58.7029 36.4438 52.925C36.5209 53.3873 36.5979 53.7724 36.5209 54.1576C36.2897 55.2362 35.8275 56.6999 34.9029 57.4703C34.3635 57.8554 33.439 57.8554 32.9767 57.7014C32.5144 57.6243 31.5898 57.3932 31.2046 56.7769C30.5111 55.6984 30.28 54.0036 30.7423 52.925C31.5128 51.0761 31.6668 49.7665 31.2816 48.765C30.8964 47.8405 29.8947 47.0702 28.1997 46.3768C26.5817 45.7605 24.8866 45.7605 23.4227 46.4539C22.0358 47.1472 20.9571 48.3028 20.4948 49.8435C18.7998 55.2362 22.4211 64.4807 27.2751 67.2541C31.7439 69.7963 37.4455 68.1015 41.0667 63.1711C41.9143 61.9384 42.6848 60.6288 43.3782 59.3192C43.6864 58.7029 44.0716 58.0866 44.3798 57.4703L44.688 56.931L47.1536 57.7784L46.9224 58.4717C46.7683 58.8569 46.6913 59.2421 46.6142 59.6273C46.3831 60.5518 46.1519 61.3992 45.6896 62.3236C42.4536 69.103 34.5176 73.5712 26.9669 73.5712ZM7.39664 57.8554L8.09007 58.3947C8.62941 58.7799 9.0917 59.1651 9.63104 59.5503C10.8638 60.4747 12.0966 61.3992 13.1753 62.4777C13.7916 63.094 14.1769 63.9414 14.5621 64.7118C14.9474 65.4822 15.2556 66.1755 15.7949 66.6378L16.2572 67.0229C18.1064 68.7178 20.1096 70.5667 22.267 71.26C30.28 73.8793 40.6815 69.3341 44.4569 61.4762C44.7651 60.7829 44.9962 60.0125 45.2273 59.2421C45.0733 59.4732 44.9962 59.7044 44.8421 59.9355C44.0716 61.3221 43.3782 62.7088 42.3766 63.9414C38.293 69.5652 31.7439 71.4911 26.5817 68.4867C21.1112 65.4051 17.1818 55.3132 19.108 49.3043C19.7244 47.3783 21.0342 45.8376 22.8063 44.9901C24.6555 44.1427 26.8128 44.0657 28.8161 44.9131C30.8964 45.7605 32.2062 46.839 32.7455 48.1487C33.2849 49.5354 33.1308 51.2302 32.2062 53.4643C31.975 54.0806 32.1291 55.2362 32.5144 55.8525C32.7455 56.0836 33.7472 56.2377 34.0553 56.0836C34.4406 55.7754 34.8258 55.005 35.057 53.6954C35.134 53.4643 34.9799 53.0021 34.8258 52.5398C34.7488 52.2317 34.6717 51.9235 34.5947 51.5383L34.2865 49.9976L35.6734 50.6909C44.2257 54.851 49.3109 55.8525 53.9338 52.925C52.2387 53.6954 50.3125 53.9265 48.0781 53.4643L46.6913 53.1561L60.0977 40.0597C59.5583 40.2908 58.9419 40.5219 58.3256 40.7531C57.9403 40.9071 57.5551 41.0612 57.0928 41.2153L56.0141 41.6005V40.4449C56.0141 39.5975 56.0141 38.7501 56.0912 37.9027C56.1682 36.2078 56.1682 34.59 56.0141 32.9722C55.4748 29.1204 52.9322 26.7322 48.9257 26.5781C44.9962 26.424 41.529 28.7352 40.5274 32.2019C40.4504 32.433 40.3733 32.6641 40.2963 32.8952C39.9881 33.8967 39.7569 34.8211 39.7569 35.6686C39.7569 36.593 40.0651 37.6715 40.6045 38.596C40.9897 38.596 41.6061 38.4419 41.9143 38.2879C42.0684 37.5175 41.9143 36.593 41.8372 35.7456C41.8372 35.5145 41.7602 35.2834 41.7602 35.1293C41.6831 34.8211 41.6061 34.436 41.452 33.9737C41.2208 33.1263 40.9126 32.2789 41.2979 31.4315C42.6077 28.1959 45.5355 26.5781 49.2339 26.9633C52.8551 27.2714 55.1666 29.5826 55.783 33.2804C56.7075 39.5205 52.701 48.3798 47.6929 51.0761C42.7618 53.6954 38.0619 52.3087 31.898 46.4539L31.7439 46.2998C31.5898 46.1457 31.5128 46.0687 31.3587 45.9146C29.0472 43.9116 26.1194 43.2953 23.4227 44.2198C20.8801 45.1442 19.108 47.2242 18.5686 50.0746C18.2604 51.7695 18.3375 53.4643 18.4145 55.3132C18.4916 56.1606 18.4916 57.008 18.4916 57.8554V58.934L17.49 58.5488C8.70646 55.4673 6.24091 56.6228 4.93109 59.7044C4.16061 61.5533 4.16061 62.4007 4.54585 62.9399L7.39664 57.8554ZM49.8502 52.1546C54.6272 52.4628 57.401 48.765 60.637 41.6005L49.8502 52.1546ZM61.6386 39.4434L62.7173 40.599L62.4862 41.0612C61.4075 43.6035 60.2518 45.9916 58.9419 47.9946C59.7895 46.9161 60.7141 45.6064 61.6386 44.2198C62.4091 43.0642 63.7189 42.3709 64.9517 41.6775C65.4911 41.3694 66.0304 41.0612 66.4927 40.7531L67.3402 40.2138L68.1107 42.3709C68.4959 43.5264 68.9582 44.6049 69.3435 45.7605C69.4205 45.8376 69.4205 45.9916 69.4976 46.0687L69.6517 45.9916C69.5746 45.5294 69.5746 45.1442 69.5746 44.682C69.4976 43.4494 69.4976 42.1397 68.8812 41.4464C66.8009 38.7501 64.3353 38.673 61.6386 39.4434ZM25.8882 71.3371C18.5686 71.3371 15.949 66.4066 13.6375 62.0155C13.0982 60.937 12.5589 59.9355 11.9425 59.011L10.9409 57.3932L12.79 57.8554C16.5654 58.7799 18.8768 61.4762 21.1112 64.0185C23.0374 66.1755 24.9636 68.4096 27.8144 69.7963L30.357 71.0289L27.5833 71.26C27.044 71.26 26.4276 71.3371 25.8882 71.3371ZM14.331 59.9355C14.5621 60.3977 14.7933 60.7829 15.0244 61.1681C17.1818 65.3281 19.2621 69.18 24.8096 69.6422C22.8833 68.2555 21.4194 66.5607 19.9555 64.8659C18.2604 63.017 16.5654 61.091 14.331 59.9355Z" fill="white"/>
<path d="M96.9267 57.3933C97.7743 58.934 98.3136 60.0896 98.93 61.2452C101.627 66.0215 105.248 69.4112 111.104 69.103C116.651 68.7949 119.502 64.943 121.12 60.3207C122.122 57.3933 122.661 54.0807 122.584 50.9991C122.584 47.6865 120.272 45.6065 116.882 45.2984C113.415 44.9902 110.95 46.685 109.563 49.7665C109.254 50.4599 109.871 51.4614 110.025 52.3858C110.179 53.6955 110.487 55.0822 110.333 56.3918C110.333 56.6999 108.022 57.2392 107.791 56.9311C107.097 55.9296 106.866 54.6199 106.481 53.3873C106.404 53.0021 106.558 52.4629 106.558 52.4629C102.397 53.4644 98.3907 54.774 94.3071 55.1592C88.9137 55.6985 84.6761 53.2332 81.9794 48.3799C81.0548 46.685 80.2073 44.9132 78.8974 43.5265C77.9729 42.525 76.3549 42.2168 75.1221 41.5235C74.5827 42.6791 73.9664 43.8346 73.5041 44.9902C73.2729 45.5295 73.35 46.1458 73.1959 47.3013C70.4992 45.2984 71.0385 43.0643 72.2713 41.4465C76.1237 36.2079 80.8236 38.6731 85.2925 40.522C85.2925 37.9027 85.0613 35.4375 85.3695 33.1264C85.9088 28.8893 88.6826 26.27 92.612 25.8848C97.1579 25.4996 100.933 27.7337 102.32 31.8167C102.782 33.2805 103.399 34.7442 103.399 36.2079C103.399 37.2864 102.782 38.519 102.012 39.3664C101.704 39.6746 99.9316 39.3664 99.7005 38.9813C99.2382 37.9798 98.8529 36.516 99.3152 35.5146C100.779 32.1249 100.317 30.199 97.2349 28.5041C93.9219 26.7323 89.7613 27.7337 88.0662 30.7382C84.522 36.9012 90.3006 49.9206 97.312 51.3073C101.704 52.2318 105.402 50.614 108.407 47.4554C112.49 43.1413 115.804 42.1398 119.887 43.9887C123.431 45.5295 124.972 48.8421 124.664 54.3888C124.587 55.5444 124.51 56.6229 124.433 58.0866C128.902 56.1607 133.448 53.8496 137.223 58.3948C138.379 59.7044 138.071 62.2467 138.456 64.1726C137.993 64.2496 137.531 64.3267 137.069 64.4808C136.838 64.0956 136.607 63.7104 136.453 63.3252C135.913 61.9385 135.374 60.4748 134.912 59.0881C133.448 59.9355 131.753 60.4748 130.597 61.6304C129.441 62.7859 128.825 64.4037 127.977 65.8674C124.279 72.0305 119.117 73.9564 111.104 72.2616C103.476 70.6438 96.8497 64.7119 96.1563 58.934C96.0792 58.6259 96.4645 58.3177 96.9267 57.3933ZM130.52 57.8555C123.123 60.2437 121.274 67.3312 115.881 70.2586C124.741 71.2601 126.359 63.9415 130.52 57.8555ZM81.2859 40.0598C80.9007 40.445 80.5155 40.7531 80.1302 41.1383C83.7515 46.1458 85.2154 53.6184 94.3842 52.9251C89.7613 48.3799 85.5236 44.2198 81.2859 40.0598Z" fill="white"/>
<path d="M116.266 73.6482C114.648 73.6482 112.876 73.4171 110.95 73.0319C102.937 71.3371 96.1563 65.174 95.3858 59.0881C95.3087 58.6258 95.5399 58.3177 95.8481 57.8554C96.0022 57.6243 96.1563 57.3932 96.3104 57.0851L97.0038 55.8525L97.6972 57.1621C98.0054 57.7014 98.2366 58.1636 98.4677 58.6258C98.93 59.4732 99.3152 60.2436 99.7005 61.014C102.705 66.4066 106.327 68.7178 111.181 68.4867C115.649 68.2556 118.654 65.5592 120.504 60.1666C121.505 57.3932 121.967 54.2347 121.967 51.0761C121.967 48.3028 120.041 46.4539 116.959 46.1457C113.954 45.8376 111.72 47.2242 110.41 50.1517C110.333 50.3057 110.487 50.845 110.641 51.2302C110.718 51.6154 110.872 51.9235 110.95 52.3087C110.95 52.5398 111.027 52.848 111.104 53.0791C111.258 54.2347 111.489 55.3902 111.335 56.5458C111.258 57.1621 110.641 57.3932 109.717 57.6243C108.099 58.0095 107.636 57.7014 107.405 57.3932C106.789 56.3917 106.481 55.3132 106.173 54.1576L106.018 53.6184C106.018 53.5413 106.018 53.5413 106.018 53.4643C105.094 53.6954 104.092 53.9265 103.245 54.1576C100.471 54.928 97.5431 55.6214 94.6923 55.9295C88.9908 56.4688 84.522 54.0036 81.5941 48.765C81.44 48.4568 81.2859 48.1487 81.1318 47.8405C80.4384 46.5309 79.6679 45.1442 78.6663 44.0657C78.127 43.5264 77.2794 43.1412 76.4319 42.8331C76.2008 42.756 76.0467 42.679 75.8155 42.602C75.7385 42.679 75.7385 42.8331 75.6614 42.9101C75.2762 43.6805 74.8909 44.5279 74.5057 45.3753C74.4286 45.6064 74.3516 45.9146 74.3516 46.3768C74.3516 46.685 74.2745 46.9931 74.2745 47.4554L74.1205 48.765L73.0418 47.9946C70.4992 46.0687 70.1139 43.5264 71.9631 41.0612C75.8155 35.8226 80.5925 37.6716 84.8302 39.4434C84.8302 39.0582 84.8302 38.596 84.8302 38.2108C84.7531 36.4389 84.7531 34.7441 84.9072 33.1263C85.4465 28.5811 88.4514 25.6537 92.8432 25.2685C97.7743 24.8062 101.858 27.3485 103.322 31.7396L103.476 32.2789C103.938 33.5886 104.4 34.9752 104.4 36.4389C104.4 38.1338 103.245 39.6745 102.859 40.1368C102.782 40.2908 102.397 40.676 101.087 40.522C100.394 40.4449 99.5464 40.2138 99.2382 39.5975C99.0071 38.9812 98.1595 36.9782 98.853 35.5145C100.163 32.433 99.7775 30.8922 97.0808 29.5055C94.076 27.9648 90.4547 28.8122 88.9908 31.4315C87.4498 34.0508 87.758 38.596 89.7613 42.9101C91.6875 47.2242 94.7694 50.2287 97.6972 50.845C101.627 51.6154 105.017 50.4598 108.099 47.2242C112.413 42.679 116.035 41.6005 120.504 43.6035C124.433 45.2983 126.051 48.842 125.743 54.7739C125.666 55.5443 125.666 56.3147 125.589 57.1621V57.2392C129.672 55.4673 134.295 53.6954 138.148 58.2406C139.072 59.3192 139.226 60.937 139.303 62.4777C139.38 63.1711 139.38 63.7874 139.534 64.3266L139.689 65.097L136.992 65.6363L136.684 65.174C136.607 65.097 136.53 64.9429 136.453 64.8659C136.298 64.5577 136.067 64.2496 135.99 63.9414C135.605 62.9399 135.22 61.8614 134.835 60.8599L134.68 60.4747C134.449 60.5518 134.295 60.7058 134.064 60.7829C133.062 61.3222 132.061 61.7844 131.367 62.4777C130.674 63.1711 130.135 64.0955 129.672 65.097C129.441 65.5592 129.21 66.0215 128.902 66.4837C125.666 71.26 121.736 73.6482 116.266 73.6482ZM96.9268 59.011C97.6972 64.3266 104.092 69.8733 111.258 71.4141C119.04 73.1089 123.817 71.26 127.361 65.4052C127.592 64.9429 127.823 64.5577 128.054 64.0955C128.594 63.017 129.21 61.9384 130.058 61.014C130.982 60.1666 132.061 59.5503 133.139 59.011C133.602 58.7799 134.064 58.5488 134.449 58.3177L135.22 57.8554L135.99 59.8584C136.375 60.8599 136.761 61.9384 137.146 62.9399C137.223 63.094 137.3 63.3251 137.454 63.4792H137.608C137.531 63.017 137.531 62.6318 137.454 62.1696C137.377 60.8599 137.223 59.4732 136.607 58.7799C135.22 57.1621 133.756 56.5458 132.215 56.4688L131.059 58.1636C130.212 59.4732 129.441 60.7829 128.671 62.0925C125.82 67.1 123.123 71.7993 115.649 70.9519L113.184 70.6437L115.341 69.4882C117.576 68.3326 119.117 66.4066 120.812 64.3266C123.2 61.3992 125.666 58.4718 130.135 57.008L131.676 56.5458C129.749 56.6228 127.669 57.4703 125.358 58.4718L123.431 59.3192L123.585 56.6999C123.662 55.8525 123.663 55.0821 123.74 54.3117C124.048 49.0731 122.738 46.0687 119.425 44.605C115.572 42.9101 112.645 43.7575 108.792 47.9176C105.402 51.5384 101.396 52.925 97.0038 52.0006C93.6137 51.3072 90.1465 47.9176 87.9891 43.2183C85.7547 38.3649 85.5236 33.4345 87.2957 30.2759C89.2219 26.9633 93.7678 25.8077 97.4661 27.7337C100.856 29.5055 101.55 31.8937 99.9316 35.6686C99.7005 36.2078 99.8546 37.2864 100.317 38.3649C100.548 38.519 101.164 38.596 101.473 38.596C102.166 37.7486 102.551 36.7471 102.551 36.0538C102.551 34.8982 102.089 33.5886 101.704 32.433L101.55 31.8937C100.317 28.1959 96.9267 26.1159 92.6891 26.5011C88.9908 26.8092 86.6023 29.1974 86.14 33.0493C85.9088 34.59 85.9859 36.2078 86.0629 37.9027C86.0629 38.673 86.14 39.5205 86.14 40.3679V41.5234L84.2908 40.7531C83.5974 40.4449 82.981 40.2138 82.2876 39.9056L96.0022 53.4643L94.3071 53.6184C86.6793 54.1576 83.9826 49.3043 81.5941 45.0672C80.9007 43.8346 80.2073 42.602 79.4368 41.5234L79.0515 40.9842L80.7466 39.4434C77.8958 38.596 75.2762 38.673 72.9647 41.8316C71.9631 43.2183 71.8861 44.4509 72.6565 45.6064C72.7336 45.2983 72.7336 44.9901 72.8877 44.682C73.2729 43.8346 73.6582 42.9872 74.0434 42.1397C74.1975 41.8316 74.3516 41.4464 74.5057 41.1383L74.8139 40.4449L75.5073 40.7531C75.8926 40.9071 76.2778 41.0612 76.663 41.2923C77.6647 41.6775 78.7433 42.1397 79.5138 42.9101C80.6696 44.1427 81.44 45.6064 82.2105 46.9931C82.3646 47.3013 82.5187 47.6094 82.6728 47.9176C85.2154 52.6169 89.299 54.851 94.3071 54.3117C97.0808 54.0806 99.7775 53.3102 102.628 52.5398C103.861 52.2317 105.171 51.8465 106.481 51.5384L107.482 51.3072L107.328 52.5398C107.328 52.6169 107.251 52.925 107.251 53.0791L107.405 53.6184C107.636 54.4658 107.868 55.3902 108.253 56.0836C108.561 56.0836 109.177 55.9295 109.563 55.7754C109.563 54.928 109.486 54.0036 109.332 53.0791C109.254 52.848 109.254 52.5398 109.177 52.3087C109.177 52.0776 109.023 51.7695 108.946 51.4613C108.715 50.768 108.484 49.9976 108.792 49.3043C110.333 45.7605 113.184 43.9886 116.882 44.3738C120.812 44.759 123.277 47.2242 123.277 50.845C123.277 54.1576 122.815 57.4703 121.736 60.4747C119.656 66.4066 116.035 69.5652 111.027 69.7963C105.633 70.1045 101.396 67.4081 98.1595 61.5533C97.6972 60.7829 97.312 60.0125 96.8497 59.0881C97.0038 59.1651 97.0038 59.0881 96.9268 59.011ZM128.594 59.5503C125.82 61.014 123.971 63.2481 122.199 65.4822C120.966 66.9459 119.733 68.4096 118.269 69.6422C123.046 69.3341 125.049 65.7903 127.438 61.4762C127.823 60.7829 128.208 60.1666 128.594 59.5503ZM81.1318 41.2923C81.8253 42.2938 82.4417 43.3723 82.981 44.3738C85.1384 48.2257 87.2187 51.9235 92.4579 52.2317L81.2089 41.1383L81.1318 41.2923Z" fill="white"/>
<path d="M71.1156 0.924561C79.8991 6.70239 81.5941 20.0299 74.1204 27.6567C73.1188 26.347 72.1172 25.1144 71.0385 23.7277C70.0369 25.1144 69.1123 26.27 68.2648 27.4256C61.4845 23.1114 61.0993 6.54832 71.1156 0.924561ZM70.9615 3.31273C64.7206 8.62834 63.3337 17.3336 67.8795 24.1129C69.9598 20.8003 72.2713 20.9544 74.2745 24.267C78.7433 16.8714 77.2024 8.16611 70.9615 3.31273Z" fill="white"/>
<path d="M74.0434 28.7351L71.0385 24.8832L68.4189 28.3499L67.8025 28.0418C64.4894 25.9617 62.4091 20.8772 62.5632 15.2535C62.7173 8.62823 65.7992 3.00447 70.6533 0.231113L71.1156 0L71.5008 0.231113C75.9696 3.15855 78.8974 8.08897 79.4368 13.6357C80.0532 19.1054 78.2811 24.3439 74.5827 28.0418L74.0434 28.7351ZM71.0385 22.495L74.1204 26.424C77.0483 23.1113 78.4352 18.5661 77.8958 13.8668C77.3565 8.85934 74.8909 4.54523 71.0385 1.84891C66.8779 4.39115 64.2583 9.39861 64.1042 15.3305C63.9501 20.1069 65.491 24.3439 68.0336 26.3469L70.8844 22.495C69.9598 22.5721 69.0353 23.6506 68.4959 24.5751L67.8795 25.5765L67.2632 24.5751C62.5632 17.4876 63.9501 8.32008 70.4992 2.77336L70.9615 2.31113L71.4238 2.69632C78.0499 7.78082 79.5138 17.0253 74.8909 24.7291L74.1975 25.8077L73.5041 24.7291C73.0418 23.7276 72.1172 22.5721 71.0385 22.495ZM71.0385 20.9543C72.1942 20.9543 73.2729 21.5706 74.1975 22.8032C77.5876 16.1779 76.3548 8.78231 70.9615 4.31412C65.7222 9.1675 64.4894 16.6402 67.8795 22.7261C68.8812 21.5706 69.9598 20.9543 71.0385 20.9543Z" fill="white"/>
<path d="M76.4319 31.1232C79.1286 27.5794 81.5171 24.4979 83.9056 21.4164C85.9859 18.7201 88.6826 18.0267 91.6875 19.6445C92.458 20.1068 93.4596 21.7246 93.1514 22.2638C92.6891 23.1883 91.0711 24.4209 90.4547 24.1898C86.9105 23.0342 85.2925 25.4994 83.4433 27.5794C81.5942 29.5824 79.6679 31.5084 76.4319 31.1232Z" fill="white"/>
<path d="M77.2794 31.9706C76.9713 31.9706 76.6631 31.9706 76.3549 31.8935L75.045 31.7395L78.2811 27.5024C80.0532 25.1912 81.6712 23.1112 83.2892 20.9542C85.6777 17.8727 88.7596 17.1793 92.0727 18.9512C93.0743 19.4905 94.3842 21.5705 93.9219 22.572C93.3825 23.6505 91.5334 25.3453 90.3006 24.8831C87.6039 24.0357 86.2941 25.4994 84.6761 27.3483C84.4449 27.5794 84.2908 27.8105 84.0597 28.0416C82.3646 29.8135 80.4384 31.9706 77.2794 31.9706ZM88.5285 19.5675C86.9875 19.5675 85.6777 20.3379 84.4449 21.8786C82.8269 23.9586 81.1319 26.1157 79.4368 28.4268L77.9729 30.3528C79.8991 30.1217 81.286 28.812 82.8269 27.0402C83.0581 26.809 83.2122 26.5779 83.4433 26.3468C85.1384 24.4209 86.9875 22.2638 90.6858 23.4194C90.994 23.4194 92.0727 22.649 92.458 21.9557C92.3809 21.5705 91.8416 20.569 91.3022 20.2608C90.3006 19.7986 89.4531 19.5675 88.5285 19.5675Z" fill="white"/>
<path d="M65.2599 31.6625C63.4878 30.661 61.4845 29.8906 59.9436 28.5039C57.478 26.2698 55.783 22.8031 51.3912 24.1898C50.8519 24.3439 49.388 23.1883 49.3109 22.495C49.2339 21.5705 49.8502 20.2609 50.5437 19.7216C53.0863 17.8727 56.4764 18.7971 58.8649 21.8787C61.0993 24.8061 63.3337 27.6565 65.491 30.5839C65.414 30.9691 65.3369 31.2773 65.2599 31.6625Z" fill="white"/>
<path d="M65.7222 32.8181L64.8747 32.3559C64.3353 32.0477 63.796 31.7396 63.1796 31.5084C61.8698 30.8151 60.56 30.1218 59.4042 29.1203C58.8649 28.581 58.3256 28.0417 57.8633 27.5025C56.0912 25.5765 54.6272 23.9587 51.6224 24.9602C51.1601 25.1143 50.6978 24.9602 50.0814 24.575C49.9273 24.498 48.6175 23.5736 48.5404 22.5721C48.3863 21.4165 49.1568 19.7987 50.0814 19.1054C52.8551 17.0253 56.7846 17.9498 59.4813 21.4165C61.0222 23.4195 62.5632 25.4225 64.1042 27.5025L66.3386 30.4299L65.7222 32.8181ZM53.3174 23.1113C55.9371 23.1113 57.478 24.8832 58.9419 26.424C59.4042 26.9632 59.8665 27.5025 60.4059 27.9647C61.3304 28.8121 62.5632 29.4284 63.796 30.1218C63.9501 30.1988 64.1042 30.2758 64.3353 30.3529L62.8714 28.4269C61.3304 26.424 59.7895 24.421 58.2485 22.3409C56.0912 19.5676 53.1633 18.7202 51.006 20.338C50.4666 20.7232 50.0043 21.8017 50.0814 22.418C50.1584 22.6491 50.9289 23.3424 51.3142 23.4195C52.0076 23.2654 52.701 23.1113 53.3174 23.1113Z" fill="white"/>
<path d="M50.2355 72.8008C49.6191 72.4926 49.1568 72.1074 48.8486 71.6452C48.5404 71.183 48.3863 70.7978 48.3863 70.3356C48.3863 70.1815 48.4634 70.1045 48.5404 70.1045C48.6945 70.8748 48.9257 71.4141 49.2339 71.7222C49.5421 72.1074 49.9273 72.3386 50.4666 72.6467C51.1601 72.9549 51.8535 73.0319 52.3928 72.8778C53.0092 72.7237 53.5486 72.2615 54.0879 71.6452C54.5502 71.0289 54.8584 70.3356 54.9354 69.5652C53.1633 68.7178 51.3142 68.2555 49.3109 68.2555C47.7699 68.2555 46.306 68.4867 44.9962 69.0259C45.4585 69.4111 45.8437 69.7963 46.1519 70.2585C46.4601 70.7208 46.6142 71.1059 46.6142 71.4911C46.6142 71.7223 46.5372 71.8763 46.306 71.8763C45.3044 71.8763 44.7651 71.0289 44.5339 69.257C43.07 69.9504 41.9913 70.8748 41.2979 72.1845C41.1438 72.4926 40.9126 73.0319 40.6815 73.8023C40.5274 74.1875 40.5274 74.7267 40.5274 75.266C40.5274 77.6542 41.452 79.5031 43.2241 80.8897L43.4552 81.0438C43.4552 81.1209 43.3782 81.1209 43.3011 81.1209C43.2241 81.1209 42.8389 80.8897 42.3766 80.4275C41.8372 79.9653 41.3749 79.2719 40.9126 78.3475C40.4504 77.423 40.2963 76.3445 40.2963 75.1119C40.2963 74.5726 40.3733 74.1104 40.4504 73.7252C40.6044 73.1089 40.8356 72.5697 41.0667 72.1074C41.7602 70.7978 42.8389 69.7193 44.3028 68.8719C43.2241 68.2556 41.6061 67.9474 39.6028 67.9474C36.675 67.9474 34.2094 68.7178 32.2832 70.3356C30.357 71.9534 29.3554 73.9563 29.3554 76.4216C29.3554 79.1179 30.5111 81.1209 32.8226 82.5846C32.9767 81.506 33.2849 80.5046 33.9012 79.8112C33.0537 79.1179 32.6685 78.1934 32.6685 77.0379C32.6685 76.9608 32.7455 76.8838 32.9767 76.8838C33.2078 76.8838 33.2849 77.0379 33.2849 77.346C33.2849 78.2705 33.516 79.0408 34.0553 79.6571C34.5176 78.9638 35.134 78.5016 35.8275 78.1164C36.5209 77.7312 37.1373 77.5771 37.8307 77.5771C39.2946 77.5771 40.0651 78.1164 40.0651 79.1949C40.0651 79.7342 39.834 80.1194 39.2946 80.4275C38.7553 80.7357 38.1389 80.8897 37.4455 80.8897C36.0586 80.8897 34.9029 80.5816 34.1324 80.0423C33.516 80.9668 33.2078 81.8912 33.2078 82.8927C34.1324 83.355 35.134 83.6631 36.2127 83.8172C36.5209 83.8942 36.752 83.8942 36.752 83.9713L36.3668 84.0483C35.5193 84.0483 34.4406 83.7401 33.2078 83.2009C33.2078 84.3564 33.5931 85.2809 34.3635 85.9742C35.134 86.6676 35.9816 87.0528 36.9832 87.0528C37.1373 87.0528 37.4455 86.9757 37.8307 86.8987L37.9848 86.9757C37.9848 87.0528 37.8307 87.1298 37.5996 87.1298C37.3684 87.1298 37.0602 87.2068 36.8291 87.2068C35.6734 87.2068 34.6717 86.8216 33.9783 86.0513C33.2078 85.2809 32.8996 84.2794 32.8996 83.0468V82.8927C31.5898 82.1994 30.5882 81.2749 29.8177 80.1194C29.0472 78.8868 28.662 77.5771 28.662 76.0364C28.662 73.7252 29.7406 71.7222 31.975 70.1815C34.1324 68.5637 36.675 67.7933 39.3717 67.7933C41.6061 67.7933 43.3011 68.1015 44.5339 68.7948V68.4096C44.5339 67.4081 44.7651 66.4837 45.3044 65.7133C45.7667 64.9429 46.5372 64.3266 47.4617 63.9414C47.5388 63.7103 47.6929 63.6333 47.847 63.6333C47.924 63.6333 48.0011 63.6333 48.0781 63.7103L48.2322 63.6333C48.3093 63.4022 48.3863 63.3251 48.6175 63.3251L48.8486 63.4792L49.0027 63.4022C49.0798 63.094 49.2339 62.9399 49.465 62.9399C49.6961 62.9399 49.8502 63.094 49.9273 63.4022H50.0814C50.1584 63.2481 50.2355 63.2481 50.3896 63.2481C50.5437 63.2481 50.6978 63.3251 50.7748 63.4792L50.9289 63.5562L51.083 63.4792C51.1601 63.4792 51.3142 63.5562 51.4683 63.7874C52.624 64.1726 53.5486 64.8659 54.242 65.7903C55.0125 66.7918 55.3977 67.8704 55.3977 69.257C57.0157 70.1045 58.1715 71.183 59.019 72.4926C59.8665 73.8023 60.3288 75.1889 60.3288 76.6527C60.3288 78.8097 59.4813 80.5816 57.8633 82.0453C58.9419 82.7387 59.8665 83.6631 60.4829 84.8957C61.1763 86.1283 61.4845 87.2839 61.4845 88.5935C61.4845 90.5195 60.7141 92.1373 59.2501 93.4469C57.7862 94.7565 56.0141 95.4499 54.0109 95.4499C53.1633 95.4499 52.2387 95.2958 51.2371 94.9877C51.3912 95.4499 51.4683 95.9891 51.4683 96.6054C51.4683 98.0692 50.8519 99.3788 49.5421 100.38C48.3093 101.459 46.8454 101.921 45.2273 101.921C43.9946 101.921 42.8388 101.69 41.6831 101.151C40.5274 100.611 39.6028 99.9951 38.9864 99.1477C38.37 98.3773 38.0619 97.8381 38.0619 97.5299L38.1389 97.3758L38.293 97.5299C38.5241 98.1462 38.9864 98.7625 39.6799 99.4559C40.3733 100.149 41.2208 100.688 42.2995 101.074C43.3782 101.459 44.3798 101.69 45.3814 101.69C46.8454 101.69 48.1552 101.151 49.2339 100.149C50.3896 99.0707 50.9289 97.9151 50.9289 96.4514C50.9289 95.8351 50.8519 95.2958 50.6207 94.7565C49.7732 94.3714 49.1568 93.9862 48.6945 93.5239C48.2322 93.0617 48.0011 92.5995 48.0011 92.2143C48.0011 91.9832 48.1552 91.9061 48.3863 91.9061C48.6945 91.9061 49.1568 92.1373 49.7732 92.6765C50.3125 93.1388 50.7748 93.8321 51.1601 94.6025C52.1617 94.9106 53.2404 95.0647 54.319 95.0647C55.9371 95.0647 57.401 94.4484 58.7878 93.2158C60.1747 91.9832 60.7911 90.2884 60.7911 88.1313C60.7911 87.0528 60.4829 85.9742 59.9436 84.8957C59.3272 83.7401 58.5567 82.8927 57.6321 82.2764C57.1698 82.5846 56.7075 82.8927 56.2453 83.0468C55.7059 83.2779 55.0125 83.432 54.0109 83.6631C53.8568 83.6631 53.6256 83.7401 53.2404 83.7401C52.5469 83.7401 51.7765 83.5861 51.083 83.3549C50.3896 83.1238 49.8502 82.8157 49.465 82.5846V82.9698C49.7732 83.0468 50.0043 83.2009 50.0043 83.432C50.0043 83.5861 49.9273 83.6631 49.8502 83.7401C49.7732 83.8172 49.6191 83.8942 49.5421 83.8942V85.2039C49.5421 85.435 49.465 85.512 49.388 85.512C49.3109 85.512 49.3109 85.435 49.3109 85.2039V83.8172C49.1568 83.8172 49.0798 83.7401 49.0027 83.6631C48.9257 83.5861 48.8486 83.432 48.8486 83.3549C48.8486 83.1238 49.0027 82.9698 49.388 82.8927V79.349C49.388 79.1179 49.388 78.9638 49.3109 78.8097C49.2339 78.6557 49.2339 78.5786 49.2339 78.4245C49.2339 78.2705 49.3109 78.1164 49.388 78.0393V77.8082C49.0798 77.7312 48.9257 77.5001 48.9257 77.269C48.9257 77.1149 49.0027 77.0379 49.0798 76.8838C49.1568 76.7297 49.3109 76.7297 49.388 76.7297V76.4986C49.3109 76.4216 49.2339 76.2675 49.2339 76.1134C49.2339 75.9593 49.2339 75.8823 49.3109 75.7282C49.388 75.5741 49.388 75.4201 49.388 75.266V74.4186C49.388 74.1875 49.465 74.1104 49.5421 74.1104C49.6191 74.1104 49.6191 74.1875 49.6191 74.4186V75.266C49.6191 75.4971 49.6191 75.6512 49.6961 75.7282C49.7732 75.8823 49.7732 75.9593 49.7732 76.1134C49.7732 76.2675 49.6961 76.4216 49.6191 76.4986V76.7297C49.7732 76.7297 49.8502 76.8067 49.9273 76.8838C50.0043 77.0379 50.0814 77.1149 50.0814 77.269C50.0814 77.5771 49.9273 77.7312 49.6191 77.8082V78.0393C49.6961 78.1164 49.7732 78.2705 49.7732 78.4245C49.7732 78.5016 49.7732 78.6557 49.6961 78.8097C49.6191 78.9638 49.6191 79.1179 49.6191 79.349V82.2764L49.7732 82.3535C50.7748 82.9698 51.9305 83.3549 53.2404 83.3549C53.7027 83.3549 54.0109 83.355 54.165 83.2779C54.7043 83.2009 55.3977 83.0468 56.3223 82.7387C56.7075 82.5846 57.1698 82.3535 57.6321 82.0453C56.9387 81.6601 56.2453 81.429 55.4748 81.429C54.5502 81.429 53.9338 81.506 53.5486 81.5831C53.1633 81.6601 52.9322 81.7372 52.8551 81.7372C52.701 81.7372 52.701 81.6601 52.701 81.5831L53.3945 81.429C54.0879 81.2749 54.7043 81.2749 55.2436 81.2749H55.3977C56.2453 81.2749 57.0928 81.506 57.8633 81.9683C59.4813 80.6586 60.2518 78.8868 60.2518 76.7297C60.2518 75.343 59.8665 74.0334 59.019 72.8008C58.2485 71.5682 57.0928 70.6437 55.5518 69.8733C55.4748 70.6437 55.1666 71.3371 54.7043 71.9534C54.242 72.5697 53.7027 72.9549 53.0092 73.186C51.8535 73.34 51.083 73.263 50.2355 72.8008ZM46.229 76.1904C46.6913 77.1919 46.8454 78.1934 46.8454 79.349C46.8454 81.506 46.1519 83.2009 44.8421 84.5876C43.5323 85.9742 42.0684 86.5905 40.5274 86.5905C39.4487 86.5905 38.6782 86.3594 37.9848 85.8972C37.3684 85.435 37.0602 84.8187 37.0602 84.2024C37.0602 83.7401 37.2143 83.2779 37.5225 82.9698C37.8307 82.6616 38.1389 82.5075 38.6012 82.5075C39.6799 82.5075 40.2963 82.9698 40.2963 83.8942C40.2963 84.2794 40.1422 84.5876 39.911 84.8187C39.6799 85.0498 39.3717 85.2039 39.0635 85.2039C38.6012 85.2039 38.216 85.0498 37.8307 84.7416C37.8307 85.2809 38.0619 85.6661 38.6012 85.9742C39.1405 86.2824 39.834 86.4365 40.7585 86.4365C41.6831 86.4365 42.6077 85.8972 43.5323 84.8957C44.4569 83.8942 44.9192 82.4305 44.9192 80.5816C44.9192 79.0408 44.5339 77.6542 43.7634 76.4216C42.9929 75.266 41.9913 74.4186 40.6045 73.9563L40.3733 73.8793C39.834 73.6482 39.0635 73.5712 38.216 73.5712C36.675 73.5712 35.4422 73.9563 34.5947 74.8038C33.6701 75.5741 33.2078 76.4986 33.2078 77.5001C33.2078 77.6542 33.1308 77.6542 32.8996 77.6542C32.6685 77.6542 32.5914 77.5001 32.5914 77.1919C32.5914 75.7282 33.2078 74.4956 34.5176 73.5712C35.7504 72.5697 37.3684 72.1074 39.3717 72.1074C39.911 72.1074 40.4504 72.1845 41.0667 72.3386L41.2979 72.4156C43.5323 73.0319 45.1503 74.2645 46.1519 76.1904C47.0765 75.1119 48.4634 74.0334 50.3125 73.0319C50.3896 72.9549 50.4666 72.9549 50.5437 72.8778C51.6224 72.1845 52.3928 71.4911 52.8551 70.7978L53.0092 70.5667L53.1633 70.6437C53.1633 70.7978 52.9322 71.1059 52.5469 71.5682C52.1617 72.0304 51.9305 72.2615 51.9305 72.3386C51.9305 72.5697 52.0846 72.8008 52.3928 73.1089L52.624 73.263C54.0109 74.1104 54.7043 75.1119 54.7043 76.1904C54.7043 77.5001 54.0109 78.8097 52.624 80.0423C53.3945 80.3505 54.0879 80.8127 54.7043 81.429C54.7813 81.506 54.8584 81.5831 54.9354 81.7372C55.3207 82.1223 55.6289 82.5846 55.783 83.0468L55.9371 83.2779C56.1682 83.8172 56.2453 84.3564 56.2453 84.9727C56.2453 86.5135 55.7059 87.7461 54.6272 88.8246C53.5486 89.9032 52.2387 90.3654 50.6978 90.3654C49.8502 90.3654 49.0027 90.0572 48.3093 89.518C47.6158 88.9787 47.2306 88.2854 47.2306 87.515C47.2306 87.0528 47.3847 86.5905 47.6158 86.2054C47.924 85.8202 48.3093 85.589 48.7716 85.435L49.0027 85.3579L49.3109 85.2809C49.7732 85.2809 50.2355 85.435 50.5437 85.7431C50.8519 86.0513 51.006 86.4365 51.006 86.8987C51.006 87.3609 50.8519 87.6691 50.6207 87.9002C50.3896 88.1313 50.0814 88.2854 49.6191 88.2854C48.7716 88.2854 48.3863 87.9002 48.3863 87.0528C48.3863 86.5135 48.7716 86.1283 49.5421 86.0513C49.5421 85.8202 49.3109 85.7431 48.7716 85.7431C48.3863 85.7431 48.0011 85.8972 47.7699 86.2824C47.5388 86.6676 47.3847 87.1298 47.3847 87.592C47.3847 88.2083 47.6929 88.7476 48.3093 89.2869C48.9257 89.8261 49.542 90.0572 50.2355 90.0572C51.3142 90.0572 52.1617 89.595 52.7781 88.5935C53.3174 87.592 53.6256 86.2824 53.6256 84.6646C53.6256 84.3564 53.6256 84.0483 53.5486 83.8942L53.4715 83.5861C53.3945 83.0468 53.2404 82.5075 52.8551 81.8912L52.701 81.6601C52.4699 81.1979 52.1617 80.8897 51.7765 80.5816C50.8519 81.1979 50.0814 81.506 49.465 81.506C49.3109 81.506 49.1568 81.506 48.9257 81.429L48.6945 81.2749C48.6175 81.1979 48.5404 81.0438 48.5404 80.8897C48.5404 80.6586 48.6175 80.5046 48.6945 80.4275L48.9257 80.1964C49.3109 79.9653 49.9273 79.8112 50.6978 79.8112C51.006 79.8112 51.3912 79.8883 51.9305 79.9653C52.4699 79.349 52.701 78.7327 52.701 78.1164C52.701 77.6542 52.624 77.1919 52.3158 76.8067C52.0846 76.3445 51.6994 75.9593 51.083 75.4971C50.4666 75.1119 50.0814 74.8038 49.9273 74.5726C49.7732 74.4186 49.6191 74.1104 49.465 73.7252C49.3109 73.7252 48.9257 73.9563 48.2322 74.4186C47.7699 74.6497 46.9995 75.343 46.229 76.1904ZM34.2094 79.8112C34.9799 80.4275 35.9045 80.7357 37.1373 80.7357C37.9078 80.7357 38.4471 80.5816 38.9094 80.2734C39.2946 79.9653 39.5258 79.5801 39.5258 79.0408C39.5258 78.2705 38.9094 77.8082 37.7537 77.8082C36.3668 77.8853 35.2111 78.5016 34.2094 79.8112ZM35.4422 90.6735C35.4422 89.672 36.0586 88.8246 37.2914 87.9772C38.5241 87.1298 39.9881 86.7446 41.6061 86.7446C43.3011 86.7446 44.688 87.2839 45.8437 88.2854L46.0749 88.4394C46.229 88.4394 46.5372 88.1313 47.0765 87.438C47.1536 87.438 47.2306 87.515 47.2306 87.592C47.2306 87.7461 46.9995 87.9772 46.6142 88.4394C46.229 88.9017 45.6896 89.2869 45.1503 89.595C43.9175 90.2884 43.07 90.9817 42.6848 91.675L42.6077 91.7521L42.4536 91.675C42.4536 91.4439 42.9929 90.9047 44.0716 89.9032C44.0716 89.672 43.6864 89.3639 42.9929 88.9787C42.2225 88.5165 41.2208 88.2854 39.911 88.2854C38.7553 88.2854 37.7537 88.5165 36.9832 88.9787C36.2127 89.4409 35.8275 90.0572 35.8275 90.8276C35.8275 91.0587 35.7504 91.1358 35.6734 91.1358C35.5193 91.0587 35.4422 90.9047 35.4422 90.6735ZM35.7504 90.7506C35.7504 91.521 36.1356 92.2143 36.8291 92.7536C37.5225 93.2928 38.5241 93.601 39.834 93.601H40.2963C40.4504 93.2158 40.6815 92.9847 40.9897 92.7536C41.2979 92.5224 41.529 92.4454 41.7602 92.4454C42.1454 92.4454 42.2995 92.5995 42.2995 92.8306C42.2995 93.2928 41.7602 93.678 40.7585 93.8321C40.6815 94.0632 40.6045 94.3714 40.6045 94.6795C40.6045 95.4499 40.9897 96.2203 41.8372 96.7595C42.6848 97.3758 43.5323 97.684 44.5339 97.684C45.3814 97.684 46.229 97.4529 46.9995 96.9136L47.2306 96.7595L47.3077 96.8366C47.3077 96.9906 46.9995 97.1447 46.4601 97.4529C45.9208 97.761 45.2273 97.9151 44.5339 97.9151C43.4552 97.9151 42.4536 97.6069 41.6061 96.9136C40.6815 96.2203 40.2192 95.3728 40.2192 94.3714C40.2192 94.2173 40.2192 94.0632 40.2963 93.8321H39.911C38.5241 93.8321 37.4455 93.5239 36.675 92.9076C35.9045 92.2913 35.5193 91.521 35.5193 90.6735C35.5193 90.4424 35.5963 90.3654 35.6734 90.3654C35.6734 90.3654 35.7504 90.5195 35.7504 90.7506ZM40.9126 93.5239C41.2979 93.4469 41.6061 93.4469 41.7602 93.2928C41.9143 93.1387 42.0684 93.0617 42.0684 92.9847C42.0684 92.8306 41.9913 92.7536 41.7602 92.7536C41.452 92.6765 41.1438 92.9847 40.9126 93.5239ZM54.9354 69.103C54.8584 67.8704 54.5502 66.7918 53.7797 65.9444C53.0863 65.02 52.1617 64.4037 51.1601 64.0185H50.8519C50.6978 64.0185 50.6207 63.9414 50.5437 63.7874H50.3896L50.1584 63.9414C50.0814 63.9414 50.0043 63.8644 49.8502 63.7874H49.6191C49.5421 64.0955 49.388 64.2496 49.1568 64.2496C48.9257 64.2496 48.7716 64.0955 48.6175 63.7874C48.6945 63.8644 48.5404 63.9414 48.4634 63.9414C48.3863 63.9414 48.3093 63.9414 48.1552 63.8644L48.0781 63.9414C48.0781 64.1725 47.924 64.3266 47.6158 64.3266L47.3847 64.2496C45.6126 65.174 44.688 66.6378 44.688 68.6407V68.7948C46.1519 68.1015 47.6929 67.7163 49.1568 67.7163C51.1601 67.7163 53.0863 68.1785 54.9354 69.103ZM46.0749 71.3371C46.0749 71.1059 45.9208 70.7208 45.6896 70.3356C45.4585 69.9504 45.0733 69.5652 44.688 69.257C44.7651 69.9504 44.9192 70.4896 45.1503 70.8748C45.3814 71.26 45.6126 71.4911 45.9208 71.4911C45.9978 71.4911 46.0749 71.4911 46.0749 71.3371ZM50.2355 94.2943C49.9273 93.601 49.6191 93.0617 49.2339 92.6765C48.8486 92.2913 48.4634 92.0602 48.2322 92.0602C48.0781 92.0602 48.0011 92.1373 48.0011 92.2913C48.0011 92.5995 48.2322 92.9076 48.6175 93.2928C49.0027 93.678 49.542 93.9862 50.2355 94.2943ZM51.6224 80.1194C51.2371 79.8883 50.8519 79.8112 50.4666 79.8112C50.0814 79.8112 49.7732 79.8883 49.465 80.0423C49.2339 80.1964 49.0798 80.3505 49.0798 80.5816C49.0798 80.8127 49.2339 80.9668 49.6191 80.9668C50.3125 80.9668 51.006 80.6586 51.6224 80.1194Z" fill="white"/>
<path d="M65.8763 80.2734L66.1074 80.4275C67.6484 81.1978 68.3418 82.5845 68.3418 84.5875C68.3418 85.2038 68.1877 85.8201 67.8025 86.5134C67.4173 87.2068 66.8009 87.9772 65.9533 88.9016C65.0288 89.749 64.3353 90.5194 63.873 91.1357L63.796 90.9816C64.1042 90.5194 64.2583 90.2883 64.2583 90.1342L64.0271 89.9801C62.5632 89.1327 61.8698 87.8231 61.8698 86.2053C61.8698 85.3579 62.1009 84.5105 62.4862 83.663C62.8714 82.8156 63.5648 81.9682 64.4894 81.1208C65.414 80.2734 66.1074 79.58 66.4156 79.0408L66.4927 79.1949C66.5697 79.3489 66.3386 79.6571 65.8763 80.2734ZM65.6451 88.4394C66.0304 88.4394 66.4156 88.1312 66.6468 87.5149C66.8779 86.8986 67.032 86.1282 67.032 85.2808C67.032 84.3564 66.7238 83.509 66.1845 82.7386C65.6451 81.9682 65.1058 81.6601 64.6435 81.6601C64.3353 81.6601 64.0271 82.0452 63.796 82.7386C63.5648 83.4319 63.4878 84.2023 63.4878 84.9727C63.4878 85.9742 63.7189 86.8216 64.1042 87.4379C64.4894 88.0542 65.0288 88.4394 65.6451 88.4394Z" fill="white"/>
<path d="M74.968 86.8217V83.0469C74.968 82.8928 74.8139 82.7387 74.5828 82.5076C74.3516 82.2765 74.1205 82.1224 74.0434 82.1224C73.8893 82.1224 73.6582 82.2765 73.35 82.6617L73.2729 82.5847C73.2729 82.3535 73.8893 81.7372 75.045 80.9669C75.4303 80.6587 75.8155 80.2735 76.2008 79.6572C76.2778 79.6572 76.3549 79.7343 76.3549 79.8113C76.3549 79.8883 76.2008 80.1965 75.8155 80.7358C75.8155 80.8128 75.9696 81.0439 76.3549 81.3521C76.7401 81.6602 76.9712 81.8143 77.2024 81.8143L77.7417 81.5832L77.8188 81.6602C76.8942 82.1995 76.509 82.5076 76.509 82.6617V87.438C76.509 87.6692 76.6631 87.9003 76.8942 88.1314C77.2024 88.3625 77.3565 88.4395 77.5106 88.4395C77.6647 88.4395 77.9729 88.2084 78.3581 87.7462L78.4352 87.9003C78.4352 87.9773 78.127 88.3625 77.4335 89.0558C76.7401 89.7492 76.2008 90.3655 75.7385 90.9818L75.6614 90.8277C75.6614 90.7507 75.7385 90.5966 75.8926 90.4425C76.0467 90.2884 76.1237 90.1344 76.1237 89.9803L75.8926 89.6721C75.2762 89.1329 75.045 88.5936 75.045 88.0543V86.9758C74.5828 87.7462 73.9664 88.4395 73.35 88.9018C72.7336 89.441 72.0402 90.0573 71.4238 90.8277C71.3467 90.8277 71.2697 90.7507 71.2697 90.6736C71.2697 90.5966 71.3467 90.4425 71.5008 90.2884C71.6549 90.0573 71.732 89.9803 71.732 89.8262C71.732 89.5951 71.5008 89.2869 70.9615 88.9788C70.4992 88.6706 70.114 88.5166 69.9599 88.5166C69.8058 88.5166 69.6517 88.5936 69.4205 88.7477L69.3435 88.6706C69.3435 88.5936 69.4976 88.4395 69.7287 88.2855C70.3451 87.9773 70.6533 87.5151 70.6533 86.8988V82.5847C70.6533 82.3535 70.5762 82.1224 70.3451 81.8913C70.114 81.6602 69.9599 81.5061 69.8828 81.5061C69.6517 81.5061 69.2664 81.8143 68.8041 82.3535L68.7271 82.1995C68.7271 81.9684 69.1123 81.5061 69.9599 80.7358C70.8074 80.0424 71.2697 79.6572 71.3467 79.6572L71.4238 79.8113L71.1156 80.2735L71.2697 80.4276C71.8861 80.7358 72.1172 81.198 72.1172 81.6602V87.1299C72.1172 87.361 72.2713 87.5921 72.5024 87.9003C72.7336 88.2084 73.0418 88.2855 73.2729 88.2855C73.6582 88.6706 74.1975 88.0543 74.968 86.8217Z" fill="white"/>
<path d="M84.1367 88.4395L84.2138 88.5165C83.3663 89.1328 82.6728 89.7491 82.1335 90.2884C81.5941 90.8277 81.2859 91.1358 81.2089 91.1358L81.1319 91.0588C81.44 90.6736 81.5941 90.4425 81.5941 90.3654C81.5941 90.1343 81.44 89.8262 81.0548 89.441C80.6696 89.0558 80.1302 88.8247 79.3597 88.8247C79.2827 88.8247 79.0515 88.9787 78.6663 89.2099C78.5893 89.2099 78.5122 89.1328 78.5122 89.0558C78.5122 88.9787 78.8974 88.7476 79.5909 88.2854C80.2843 87.8232 80.9007 87.6691 81.2859 87.6691C81.5941 87.6691 82.2876 88.0543 83.2892 88.8247C83.3662 88.8247 83.5203 88.7476 83.7515 88.5936C83.9056 88.5165 84.0597 88.4395 84.1367 88.4395ZM80.1302 80.5046C80.1302 79.4261 80.2073 78.6557 80.4384 78.1935C80.5925 77.7312 81.0548 77.192 81.8253 76.6527C82.5187 76.1134 82.904 75.8823 82.981 75.8823L83.0581 76.0364L82.981 76.1134C82.5187 76.4986 82.2105 76.8838 82.0564 77.269C81.9023 77.6542 81.8253 78.2705 81.8253 79.195V80.5046H82.981C83.1351 80.5046 83.2122 80.5816 83.2122 80.7357C83.2122 80.8898 83.1351 80.9668 82.981 80.9668H81.8253V84.2024C81.8253 85.8972 80.9007 87.361 79.1286 88.4395C79.0515 88.5165 78.8974 88.5936 78.8204 88.6706L78.7433 88.5936V88.4395C78.8204 88.4395 78.9745 88.3624 79.2056 88.2084C79.4368 88.0543 79.6679 87.7461 79.822 87.361C80.0532 86.9758 80.1302 86.1284 80.1302 84.9728V80.9668H79.2827C79.1286 80.9668 79.0515 80.8898 79.0515 80.7357C79.0515 80.5816 79.1286 80.5046 79.2827 80.5046H80.1302Z" fill="white"/>
<path d="M87.2187 87.361C87.2187 87.6692 87.2957 87.9773 87.5269 88.2855C87.758 88.5936 87.9892 88.7477 88.2203 88.7477C88.5285 88.7477 88.8367 88.5936 89.0678 88.3625L89.1449 88.5166C89.1449 88.5936 88.9137 88.8247 88.3744 89.2869C87.8351 89.6721 87.1416 90.2884 86.2941 91.1359L86.217 91.0588C86.217 90.9818 86.2941 90.8277 86.4482 90.6736C86.6023 90.5195 86.6793 90.3655 86.6793 90.2884L86.4482 89.9803C85.9859 89.5181 85.7548 88.9788 85.7548 88.5166V83.0469C85.7548 82.8158 85.6007 82.6617 85.3695 82.5076C85.1384 82.3535 84.9072 82.1995 84.8302 82.1995C84.7531 82.1995 84.522 82.3535 84.2138 82.5847L84.1367 82.4306C85.5236 81.3521 86.4482 80.5817 86.8334 80.0424L86.9875 79.8883C87.0646 79.8883 87.1416 79.9654 87.1416 80.0424C87.1416 80.1195 86.9105 80.4276 86.4482 80.9669C86.4482 81.1209 86.6023 81.275 86.9875 81.5832C87.2957 81.8143 87.681 82.0454 88.1432 82.1995C87.6039 82.4306 87.3728 82.7387 87.3728 82.9698V87.361H87.2187ZM85.9859 74.7268C86.217 74.7268 86.4482 74.8038 86.6793 75.035C86.9105 75.2661 86.9875 75.4972 86.9875 75.7283C86.9875 75.9594 86.9105 76.1905 86.6793 76.4216C86.4482 76.6527 86.2941 76.7298 85.9859 76.7298C85.6777 76.7298 85.5236 76.6527 85.2925 76.4216C85.0613 76.1905 84.9843 75.9594 84.9843 75.7283C84.9843 75.4972 85.0613 75.2661 85.2925 75.035C85.5236 74.8038 85.7547 74.7268 85.9859 74.7268Z" fill="white"/>
<path d="M94.6923 87.592C94.4612 87.9001 94.076 88.2853 93.5366 88.8246C92.9973 89.3639 92.535 89.749 92.0727 89.9802C91.6875 90.2113 91.2252 90.6735 90.8399 91.2898C90.7629 91.2898 90.6858 91.2128 90.6858 91.1357C90.6858 91.0587 90.994 90.6735 91.5334 90.0572L91.3793 89.9031C90.2235 89.0557 89.6072 87.7461 89.6072 85.9742C89.6072 84.0482 90.917 82.1223 93.4596 80.1964C93.9219 79.8882 94.4612 79.426 94.9235 78.8867L95.0776 78.9638L94.2301 79.8882C94.8464 80.3504 95.3858 80.7356 95.8481 81.1208C96.0792 81.3519 96.4645 81.429 97.0038 81.429L97.1579 81.506C97.1579 81.583 97.0808 81.6601 96.9268 81.7371C96.3874 82.0453 96.1563 82.4305 96.1563 83.0468V92.2143C96.1563 92.7535 96.2333 93.1387 96.3104 93.3698C96.4645 93.5239 96.5415 93.6009 96.7726 93.678C96.9267 93.678 97.0038 93.755 97.0038 93.832L96.7726 93.9091C96.0792 94.1402 95.2317 94.7565 94.2301 95.758L93.9219 96.0661C93.8448 96.0661 93.8448 96.0661 93.8448 95.9891L93.9989 95.835C94.4612 95.3728 94.6923 94.8335 94.6923 94.1402V87.592ZM94.6923 87.1298V82.5075C94.6923 82.2764 94.3842 82.0453 93.9219 81.6601C93.3825 81.2749 93.0743 81.1208 92.9202 81.1208C92.6891 81.1208 92.3809 81.506 91.9957 82.1993C91.5334 82.8927 91.3793 83.9712 91.3793 85.4349C91.3793 86.4364 91.6104 87.2068 91.9957 87.669C92.3809 88.1313 92.8432 88.3624 93.3825 88.3624C93.6137 88.3624 93.8448 88.1313 94.2301 87.7461C94.5383 87.5149 94.6923 87.2838 94.6923 87.1298Z" fill="white"/>
<path d="M103.707 86.8217V83.0469C103.707 82.8928 103.553 82.7387 103.322 82.5076C103.091 82.2765 102.859 82.1224 102.782 82.1224C102.628 82.1224 102.397 82.2765 102.089 82.6617L102.012 82.5847C102.012 82.3535 102.628 81.7372 103.784 80.9669C104.169 80.6587 104.555 80.2735 104.94 79.6572C105.017 79.6572 105.094 79.7343 105.094 79.8113C105.094 79.8883 104.94 80.1965 104.555 80.7358C104.555 80.8128 104.709 81.0439 105.094 81.3521C105.479 81.6602 105.71 81.8143 105.941 81.8143L106.481 81.5832L106.558 81.6602C105.633 82.1995 105.248 82.5076 105.248 82.6617V87.438C105.248 87.6692 105.402 87.9003 105.633 88.1314C105.941 88.3625 106.095 88.4395 106.25 88.4395C106.404 88.4395 106.712 88.2084 107.097 87.7462L107.174 87.9003C107.174 87.9773 106.866 88.3625 106.173 89.0558C105.479 89.7492 104.94 90.3655 104.477 90.9818L104.4 90.8277C104.4 90.7507 104.477 90.5966 104.632 90.4425C104.786 90.2884 104.863 90.1344 104.863 89.9803L104.632 89.6721C104.015 89.1329 103.784 88.5936 103.784 88.0543V86.9758C103.322 87.7462 102.705 88.4395 102.089 88.9018C101.473 89.441 100.779 90.0573 100.163 90.8277C100.086 90.8277 100.009 90.7507 100.009 90.6736C100.009 90.5966 100.086 90.4425 100.24 90.2884C100.394 90.0573 100.471 89.9803 100.471 89.8262C100.471 89.5951 100.24 89.2869 99.7005 88.9788C99.2382 88.6706 98.853 88.5166 98.6989 88.5166C98.5448 88.5166 98.3907 88.5936 98.1595 88.7477L98.0825 88.6706C98.0825 88.5936 98.2366 88.4395 98.4677 88.2855C99.0841 87.9773 99.3923 87.5151 99.3923 86.8988V82.5847C99.3923 82.3535 99.3153 82.1224 99.0841 81.8913C98.853 81.6602 98.6989 81.5061 98.6218 81.5061C98.3907 81.5061 98.0054 81.8143 97.5431 82.3535L97.4661 82.1995C97.4661 81.9684 97.8513 81.5061 98.6989 80.7358C99.5464 80.0424 100.009 79.6572 100.086 79.6572L100.163 79.8113L99.8546 80.2735L100.009 80.4276C100.625 80.7358 100.856 81.198 100.856 81.6602V87.1299C100.856 87.361 101.01 87.5921 101.241 87.9003C101.473 88.2084 101.781 88.2855 102.012 88.2855C102.397 88.6706 102.937 88.0543 103.707 86.8217Z" fill="white"/>
<path d="M111.412 80.4276L111.72 80.6587C112.645 81.198 113.107 81.8143 113.107 82.5076C113.107 82.8928 112.953 83.278 112.722 83.6632C112.491 84.0484 112.028 84.5877 111.335 85.1269C110.641 85.6662 110.179 86.1284 109.948 86.5136L109.871 86.4366C109.871 86.2055 110.102 85.8973 110.564 85.4351C111.027 84.9729 111.335 84.6647 111.412 84.2795C111.566 83.9714 111.643 83.6632 111.643 83.3551C111.643 82.9699 111.489 82.5847 111.181 82.2765C110.873 81.9684 110.641 81.8143 110.564 81.8143C110.256 81.8143 109.948 82.1225 109.717 82.6617C109.486 83.201 109.332 84.0484 109.332 85.1269C109.332 86.2055 109.64 87.0529 110.179 87.5921C110.718 88.1314 111.412 88.4396 112.028 88.4396C112.182 88.4396 112.491 88.2084 112.876 87.7462C112.953 87.7462 113.03 87.8233 113.03 87.9773C113.03 88.2855 112.336 88.8247 111.027 89.6722C110.333 90.0574 109.948 90.3655 109.794 90.5966C109.64 90.8277 109.563 91.0588 109.486 91.29C109.332 91.29 109.254 91.2129 109.254 91.1359C109.254 90.7507 109.486 90.3655 110.025 89.9033L109.794 89.6722C108.561 88.8247 107.868 87.5921 107.868 85.8973C107.868 84.3566 108.715 82.7388 110.41 81.0439C110.95 80.5817 111.335 80.0424 111.566 79.5032C111.643 79.5032 111.72 79.5802 111.72 79.6573C111.489 80.1195 111.412 80.3506 111.412 80.4276Z" fill="white"/>
</g>
<defs>
<clipPath id="clip0_73_21">
<rect width="142" height="155" fill="white"/>
</clipPath>
</defs>
</svg>
