<svg width="149" height="117" viewBox="0 0 149 117" fill="none" xmlns="http://www.w3.org/2000/svg">
  <path
    d="M5 111.969V105.676C5 81.3505 24.7201 61.6305 49.046 61.6305C73.3719 61.6305 93.0919 81.3505 93.0919 105.676V111.969"
    stroke="white" stroke-width="9.43842" stroke-linecap="round" />
  <path
    d="M80.5074 74.2151C80.5074 56.8396 94.5933 42.7537 111.969 42.7537C129.344 42.7537 143.43 56.8396 143.43 74.2151V77.3612"
    stroke="white" stroke-width="9.43842" stroke-linecap="round" />
  <path
    d="M49.0459 61.6305C62.9462 61.6305 74.2151 50.3617 74.2151 36.4614C74.2151 22.5609 62.9462 11.2923 49.0459 11.2923C35.1454 11.2923 23.8768 22.5609 23.8768 36.4614C23.8768 50.3617 35.1454 61.6305 49.0459 61.6305Z"
    stroke="white" stroke-width="9.43842" stroke-linecap="round" stroke-linejoin="round" />
  <path
    d="M111.969 42.7537C122.394 42.7537 130.846 34.3022 130.846 23.8768C130.846 13.4515 122.394 5 111.969 5C101.543 5 93.0919 13.4515 93.0919 23.8768C93.0919 34.3022 101.543 42.7537 111.969 42.7537Z"
    stroke="white" stroke-width="9.43842" stroke-linecap="round" stroke-linejoin="round" />
</svg>
  