<svg width="5" height="6" viewBox="0 0 5 6" fill="none" xmlns="http://www.w3.org/2000/svg">
<path id="ubicacionMarcador" d="M1.99507 5.99981C1.94299 5.93103 1.89611 5.87282 1.85445 5.81462C1.27632 5.02097 0.734654 4.20616 0.333612 3.3014C0.192987 2.97335 0.0575703 2.64531 0.0159037 2.28552C-0.103888 1.29081 0.484654 0.375469 1.42736 0.0844642C2.56799 -0.264742 3.77111 0.491872 3.97424 1.68235C4.04715 2.11092 3.96903 2.51304 3.8232 2.90986C3.54715 3.6506 3.16174 4.31727 2.73465 4.96277C2.52632 5.27494 2.30757 5.57653 2.08882 5.88341C2.06278 5.92044 2.03153 5.95219 1.99507 5.99981ZM1.98465 1.04214C1.42736 1.05272 1.0107 1.49716 1.02111 2.06859C1.03153 2.60298 1.48465 3.03684 2.02111 3.02626C2.56278 3.01568 2.98465 2.56065 2.97424 1.99452C2.96382 1.46542 2.5159 1.03155 1.98465 1.04214Z" fill="#5BD299"/>
</svg>
