<svg xmlns="http://www.w3.org/2000/svg" viewBox="0 0 388.71 97.03">
  <defs>
    <style>.cls-1{font-size:34px;fill:#1d1d1b;font-family:LatinWide, Wide
      Latin;letter-spacing:-0.07em;}</style>
  </defs>
  <g id="Capa_2" data-name="Capa 2">
    <g id="Capa_1-2" data-name="Capa 1">
      <path
        d="M0,86.82c1.26-2.38,2.09-4.26,3.19-6C7.54,74.06,12,67.31,16.38,60.57c2.94-4.47,5.93-8.9,9.09-13.65,1.46,1.28,2.66,2.24,3.76,3.31,3.71,3.61,7.41,7.21,11,10.89,1.52,1.53,2.76,1.67,4.33,0,6.64-6.89,13.38-13.67,20-20.57,2.18-2.26,2.86-2.32,4.88.25.91,1.16,1.86,2.28,3,3.62,3.34-3.51,6.5-6.78,9.6-10.11,5.46-5.85,10.88-11.73,16.32-17.6Q105.68,8.85,113,1c1.32-1.41,2.45-1.26,3.29.39q9.48,18.66,19,37.32c1.14,2.25,2.21,4.55,3.5,7.22.68-1.55,1.31-2.76,1.75-4,.64-1.83,1.24-2.07,2.61-.62,2.09,2.24,4.07,4.58,6.07,6.91,1.12,1.3,2.25,2.6,3.24,4a21.69,21.69,0,0,1,1.48,2.9c-6.6,1.83-8-3.68-11.16-6.74-1.3,1.57-2.77,2.94-.76,5.13.87.95.29,1.91-1,1.95-2.25.08-4.5.1-6.75,0a1.62,1.62,0,0,1-1.65-2.33c2.33-4.77.45-8.77-1.81-12.86-3.84-6.93-7.53-13.94-11.63-20.87a45.28,45.28,0,0,0,0,5.34c.51,4.31,1.23,8.59,1.81,12.9.26,2,1.12,3,3.28,2.59a7.8,7.8,0,0,1,2.68-.1c.58.09,1.44.54,1.56,1,1.05,4.05,2.07,8.1,2.86,12.21.35,1.8-1.09,2.21-2.61,2.21-4.66,0-9.32,0-14,0-4.36,0-8.71,0-13.07,0-2.44,0-3-.62-2.59-3a54.57,54.57,0,0,1,1.55-6c1.15-3.93,2.44-7.82,3.53-11.77,1.21-4.36,2.22-8.79,3.41-13.16.57-2.08,1.4-4.08,2-6.15a4.63,4.63,0,0,0,0-2.86L78,46.84c4.27.58,7.81,1.08,11.36,1.54.81.11,1.65,0,2.47.11,3.43.23,4.85,2,4.08,5.46-.14.61-1.18,1.27-1.91,1.44a17.68,17.68,0,0,1-3.58.2C79.37,56,70.61,60.84,63.52,69a35.61,35.61,0,0,0-7.93,15.63,3,3,0,0,1-2.74,2.54,16.06,16.06,0,0,1-2.69.1q-23.43-.12-46.86-.24C2.5,87,1.69,86.94,0,86.82ZM26.84,55.67,17.15,70.08l.65.58c1.33-1.22,2.6-2.52,4-3.63a28.46,28.46,0,0,1,5.06-3.45c1.61-.77,3.51-.94,5.72-1.49Z" />
      <text class="cls-1" transform="translate(69.01 87.96)">Stay Finder</text>
    </g>
  </g>
</svg>