<svg width="108" height="62" viewBox="0 0 108 62" fill="none" xmlns="http://www.w3.org/2000/svg">
<g id="AuthButton" filter="url(#filter0_d_141_65)">
<path id="userButton" d="M4.5 0.5H77C91.6355 0.5 103.5 12.3645 103.5 27C103.5 41.6355 91.6355 53.5 77 53.5H54C26.6619 53.5 4.5 31.3381 4.5 4V0.5Z" stroke="#CCCCCC"/>
<g id="User">
<path id="Vector" d="M77.0596 5.99981C88.6885 6.03977 98.0796 15.5107 97.9996 27.0597C97.9197 38.6887 88.4487 48.0797 76.8997 47.9998C65.3108 47.9199 55.9597 38.5288 55.9996 26.9798C56.0396 15.3909 65.4706 5.95984 77.0596 5.99981ZM76.66 43.8038C81.895 43.8038 86.6904 41.486 89.6876 37.8095C90.1671 37.2101 90.1271 36.8105 89.5277 36.4508C88.8484 36.0112 88.209 35.4518 87.4896 35.172C85.5715 34.4927 83.6133 33.9332 81.6952 33.2938C81.3355 33.1739 80.856 33.094 80.6562 32.8143C80.0168 31.8951 80.3365 30.1768 81.2156 29.4175C84.2527 26.82 85.1719 22.544 83.5334 18.9075C81.3755 14.232 76.0605 12.9931 72.384 16.27C68.4278 19.8266 68.5077 25.9009 72.5439 29.3376C73.423 30.0969 73.503 31.0559 73.3431 32.1749C73.1833 33.2938 72.3041 33.1739 71.5848 33.2938C68.8674 33.7734 66.3498 34.7724 64.1519 36.5307C63.7123 36.8904 63.5924 37.1701 64.032 37.6497C67.4687 41.5659 71.7446 43.6839 76.66 43.8038Z" fill="#5DB299"/>
</g>
<g id="hamburguer">
<path id="Line 3" d="M28 21.5H44" stroke="#CCCCCC" stroke-width="0.5" stroke-linecap="round"/>
<path id="Line 4" d="M28 25.5H44" stroke="#CCCCCC" stroke-width="0.5" stroke-linecap="round"/>
<path id="Line 5" d="M28 29.5H44" stroke="#CCCCCC" stroke-width="0.5" stroke-linecap="round"/>
</g>
</g>
<defs>
<filter id="filter0_d_141_65" x="0" y="0" width="108" height="62" filterUnits="userSpaceOnUse" color-interpolation-filters="sRGB">
<feFlood flood-opacity="0" result="BackgroundImageFix"/>
<feColorMatrix in="SourceAlpha" type="matrix" values="0 0 0 0 0 0 0 0 0 0 0 0 0 0 0 0 0 0 127 0" result="hardAlpha"/>
<feOffset dy="4"/>
<feGaussianBlur stdDeviation="2"/>
<feComposite in2="hardAlpha" operator="out"/>
<feColorMatrix type="matrix" values="0 0 0 0 0 0 0 0 0 0 0 0 0 0 0 0 0 0 0.25 0"/>
<feBlend mode="normal" in2="BackgroundImageFix" result="effect1_dropShadow_141_65"/>
<feBlend mode="normal" in="SourceGraphic" in2="effect1_dropShadow_141_65" result="shape"/>
</filter>
</defs>
</svg>
