<svg width="6" height="6" viewBox="0 0 6 6" fill="none" xmlns="http://www.w3.org/2000/svg">
<path id="estrella" d="M1.01108 2.23266C1.27059 2.23266 1.52562 2.23266 1.78513 2.23266C2.08491 2.23266 2.2952 2.07225 2.38021 1.79046C2.54576 1.24422 2.7113 0.697977 2.8858 0.151734C2.9037 0.0953757 2.96186 0.0476879 3.00213 0C3.0424 0.0520231 3.10057 0.099711 3.11846 0.156069C3.29296 0.697977 3.45851 1.23988 3.62406 1.78613C3.71354 2.07659 3.92383 2.23266 4.23703 2.23266C4.72473 2.23266 5.2169 2.23266 5.70459 2.23266C5.74039 2.23266 5.78065 2.22399 5.81645 2.23699C5.87909 2.25434 5.93725 2.28468 5.99989 2.31069C5.9641 2.36705 5.9462 2.43642 5.89699 2.47543C5.49878 2.78324 5.10057 3.08671 4.69788 3.39017C4.53681 3.51156 4.38468 3.63295 4.35784 3.84104C4.34441 3.95809 4.34889 4.08815 4.38468 4.20087C4.54128 4.7341 4.7113 5.26301 4.87685 5.79191C4.88133 5.80925 4.89027 5.82225 4.89027 5.8396C4.88133 5.88728 4.87238 5.93497 4.85895 5.98699C4.80974 5.97832 4.7471 5.97832 4.7113 5.95231C4.33994 5.67919 3.97305 5.40173 3.60616 5.12428C3.52562 5.06358 3.44956 5.00289 3.36902 4.94653C3.13189 4.77312 2.88133 4.77746 2.64866 4.9552C2.24598 5.26301 1.84329 5.57081 1.44061 5.87428C1.39139 5.90896 1.34665 5.94798 1.29296 5.97399C1.199 6.02601 1.13188 5.99133 1.14978 5.89162C1.17215 5.76156 1.21242 5.6315 1.25269 5.50578C1.39139 5.05491 1.5301 4.60405 1.6688 4.15318C1.74486 3.90607 1.6509 3.64162 1.43614 3.47688C1.00661 3.15173 0.577075 2.82659 0.147545 2.50145C0.107276 2.4711 0.067008 2.43208 0.0356881 2.39306C-0.00905466 2.32803 0.00884244 2.27168 0.0893793 2.25434C0.138596 2.24133 0.196762 2.23699 0.250453 2.23699C0.496538 2.23266 0.751572 2.23266 1.01108 2.23266Z" fill="white"/>
</svg>
