<svg width="38" height="41" viewBox="0 0 38 41" fill="none" xmlns="http://www.w3.org/2000/svg">
<g id="iconoHuespedes">
<path id="Vector" d="M37.9524 40.895C25.2857 40.895 12.6667 40.895 0 40.895C0 40.608 0 40.3688 0 40.1295C0 30.1786 0 20.2276 0 10.2766C0 9.55895 0.190476 9.36758 0.904762 9.36758C12.9524 9.36758 25.0476 9.36758 37.0952 9.36758C37.7143 9.36758 38 9.46327 38 10.1809C38 20.1797 38 30.1786 38 40.1774C37.9524 40.4166 37.9524 40.608 37.9524 40.895ZM23.2857 31.0397C23.2857 29.7001 23.2857 28.3127 23.2857 26.9732C23.2857 26.3991 23.0952 26.2556 22.5714 26.2556C20.1429 26.2556 17.7143 26.2556 15.3333 26.2556C14.8095 26.2556 14.619 26.3991 14.619 26.9732C14.619 29.7001 14.619 32.3793 14.619 35.1062C14.619 35.6325 14.8095 35.776 15.3333 35.776C17.7619 35.776 20.2381 35.7281 22.6667 35.776C23.2381 35.776 23.381 35.5368 23.381 35.0105C23.2857 33.7188 23.2857 32.3793 23.2857 31.0397ZM7.28571 31.0397C7.28571 29.6523 7.28571 28.2649 7.28571 26.9253C7.28571 26.4469 7.14286 26.2556 6.61905 26.2556C5.80952 26.3034 5 26.2556 4.19048 26.2556C3.7619 26.2556 3.61905 26.3991 3.61905 26.8297C3.61905 29.6523 3.61905 32.4271 3.61905 35.2497C3.61905 35.5846 3.7619 35.776 4.14286 35.776C4.95238 35.776 5.7619 35.7281 6.57143 35.776C7.14286 35.8238 7.28571 35.5846 7.28571 35.0584C7.28571 33.7188 7.28571 32.3793 7.28571 31.0397ZM30.619 30.944C30.619 32.3314 30.619 33.7667 30.619 35.154C30.619 35.5846 30.7619 35.776 31.1905 35.7281C32.0476 35.7281 32.8571 35.7281 33.7143 35.7281C34.1429 35.7281 34.2857 35.5368 34.2381 35.1062C34.2381 32.3314 34.2381 29.6045 34.2381 26.8297C34.2381 26.3034 34.0476 26.1599 33.5714 26.2077C32.8095 26.2077 32.0476 26.2077 31.2857 26.2077C30.8095 26.2077 30.619 26.3512 30.619 26.8775C30.619 28.2649 30.619 29.6045 30.619 30.944ZM17.1429 16.6873C17.1429 17.9312 17.1429 19.2229 17.1429 20.4668C17.1429 20.9452 17.2857 21.1365 17.8095 21.1365C18.619 21.0887 19.381 21.1365 20.1905 21.1365C20.619 21.1365 20.8095 20.993 20.8095 20.5146C20.8095 17.979 20.8095 15.4434 20.8095 12.9557C20.8095 12.5251 20.6667 12.3816 20.2381 12.3816C19.4286 12.3816 18.6667 12.4294 17.8571 12.3816C17.3333 12.3816 17.1429 12.5251 17.1905 13.0514C17.1429 14.2474 17.1429 15.4913 17.1429 16.6873ZM23.8571 12.4294C23.8571 15.2521 23.8571 18.0269 23.8571 20.7538C23.8571 20.8973 24.1905 21.0887 24.381 21.0887C25.2381 21.1365 26.0952 21.0887 26.9524 21.0887C27.381 21.0887 27.5238 20.9452 27.5238 20.5146C27.5238 17.9312 27.5238 15.3477 27.5238 12.7165C27.5238 12.6208 27.4762 12.4773 27.4762 12.3816C26.2857 12.4294 25.0952 12.4294 23.8571 12.4294ZM10.381 12.3816C10.381 15.2521 10.381 18.0269 10.381 20.8017C10.381 20.8973 10.6667 21.1365 10.8095 21.1365C11.7143 21.1844 12.619 21.1844 13.5238 21.1365C13.7143 21.1365 14 20.8495 14 20.6581C14.0476 18.0747 14.0476 15.4913 14 12.86C14 12.7165 13.7143 12.4294 13.5714 12.4294C12.5714 12.3816 11.5238 12.3816 10.381 12.3816ZM3.66667 12.3816C3.66667 15.2042 3.66667 17.979 3.66667 20.706C3.66667 20.8495 3.95238 21.0887 4.14286 21.1365C5.04762 21.1844 5.90476 21.1844 6.80952 21.1365C7 21.1365 7.28571 20.8495 7.28571 20.6581C7.33333 18.0747 7.33333 15.4434 7.28571 12.86C7.28571 12.7165 7 12.4294 6.85714 12.4294C5.80952 12.3816 4.80952 12.3816 3.66667 12.3816ZM30.619 12.3816C30.619 15.2521 30.619 17.979 30.619 20.706C30.619 20.8495 30.9048 21.0887 31.0952 21.0887C31.9524 21.1365 32.8095 21.1365 33.6667 21.0887C33.8571 21.0887 34.1429 20.8017 34.1429 20.6103C34.1905 18.0269 34.1905 15.4434 34.1429 12.8122C34.1429 12.6686 33.8571 12.3816 33.7143 12.3337C32.7619 12.3816 31.7143 12.3816 30.619 12.3816ZM26.0952 37.2112C25.5714 37.2112 25.0952 37.2112 24.5714 37.2112C20.5238 37.2112 16.4286 37.2112 12.381 37.2112C12.1429 37.2112 11.8095 37.2591 11.7143 37.4026C11.3333 38.0245 11.7619 38.6465 12.4286 38.6465C16.6667 38.6465 20.9524 38.6465 25.1905 38.6465C26.2381 38.6465 26.2381 38.6465 26.1905 37.594C26.1905 37.5461 26.1429 37.4026 26.0952 37.2112ZM25.3333 24.7246C25.3333 24.6768 25.3333 24.629 25.3333 24.5811C23.2857 23.9592 21.2381 23.3372 19.2381 22.7153C18.9524 22.6196 18.619 22.6675 18.3333 22.7632C16.5714 23.2894 14.8095 23.8157 13.0476 24.3898C12.8095 24.4376 12.619 24.5333 12.4286 24.629C12.4286 24.6768 12.4762 24.7246 12.4762 24.7725C16.8095 24.7246 21.0952 24.7246 25.3333 24.7246ZM13.0476 31.0397C13.0476 29.6523 13.0476 28.2649 13.0476 26.9253C13.0476 26.3991 12.8095 26.2556 12.3333 26.2556C11.8571 26.2556 11.619 26.3512 11.619 26.9253C11.619 29.7001 11.619 32.4271 11.619 35.2019C11.619 35.8238 11.9524 35.8238 12.381 35.8238C12.8095 35.8238 13.0952 35.776 13.0476 35.2497C13.0476 33.8145 13.0476 32.4271 13.0476 31.0397ZM26.1905 31.0875C26.1905 29.7001 26.1905 28.3127 26.1905 26.9253C26.1905 26.4469 26.0476 26.2077 25.5238 26.2077C25 26.2077 24.7619 26.3034 24.7619 26.9253C24.7619 29.6523 24.7619 32.3314 24.7619 35.0584C24.7619 35.6325 25 35.7281 25.5238 35.776C26.0476 35.776 26.2381 35.6325 26.1905 35.1062C26.1429 33.7667 26.1905 32.4271 26.1905 31.0875Z" fill="#CECECE"/>
<path id="Vector_2" d="M9.52393 7.12835C12.6192 4.78413 15.7144 2.39207 18.9049 0C22.0954 2.39207 25.2382 4.78413 28.4287 7.12835C28.4287 7.1762 28.3811 7.22404 28.3811 7.27188C22.143 7.27188 15.8573 7.27188 9.61916 7.27188C9.52393 7.22404 9.52393 7.1762 9.52393 7.12835Z" fill="#CECECE"/>
<path id="Vector_3" d="M26.4287 2.87048C26.8097 2.87048 27.0954 2.87048 27.3811 2.87048C28.762 2.87048 30.1906 2.87048 31.5716 2.87048C31.8573 2.87048 32.143 2.91832 32.3335 3.06185C34.0954 4.35356 35.8097 5.69312 37.5239 6.98484C37.5716 7.03268 37.6192 7.08052 37.7144 7.27188C37.4763 7.31973 37.2859 7.36757 37.0954 7.36757C35.6192 7.36757 34.0954 7.36757 32.6192 7.36757C32.3335 7.36757 32.0478 7.31973 31.8573 7.1762C30.0954 5.88449 28.3811 4.54493 26.6192 3.20537C26.5716 3.15753 26.5239 3.06185 26.4287 2.87048Z" fill="#CECECE"/>
<path id="Vector_4" d="M11.5238 3.01401C10.9524 3.44458 10.4762 3.77947 9.99998 4.1622C8.76188 5.11902 7.5714 6.07585 6.33331 6.93699C5.99998 7.1762 5.57141 7.31973 5.19045 7.31973C3.57141 7.36757 1.95236 7.31973 0.0952148 7.31973C0.380929 7.03268 0.523786 6.88915 0.714262 6.74563C2.28569 5.5496 3.85712 4.35356 5.42855 3.15753C5.61902 3.01401 5.90474 2.87048 6.19045 2.87048C7.85712 2.87048 9.47617 2.87048 11.1428 2.87048C11.2381 2.87048 11.2857 2.91832 11.5238 3.01401Z" fill="#CECECE"/>
</g>
</svg>
