<svg width="36" height="42" viewBox="0 0 36 42" fill="none" xmlns="http://www.w3.org/2000/svg">
    <path id="iconoEconomicos"
        d="M6.79241 10.6223C7.66588 7.06656 9.55073 4.38418 12.5849 2.60631C19.2661 -1.29251 27.725 2.15405 29.947 9.68657C30.1615 10.404 30.4527 10.7315 31.1882 10.6223C31.464 10.5755 31.7552 10.6067 32.031 10.6223C33.119 10.6847 33.7167 11.3085 33.732 12.4157C33.7473 15.0202 33.732 17.609 33.732 20.2134C33.732 26.2955 33.7473 32.3777 33.7167 38.4599C33.7167 39.1305 33.8393 39.4424 34.5748 39.4268C35.4789 39.4268 36.0306 40.0038 35.9999 40.7212C35.9846 41.423 35.387 41.922 34.5135 41.9844C34.3143 42 34.0998 41.9844 33.9005 41.9844C23.6335 41.9844 13.3664 41.9844 3.09933 41.9844C2.74687 41.9844 2.3791 42 2.04197 41.9064C1.44433 41.7349 0.969291 41.3762 0.999939 40.6432C1.03059 39.9258 1.50563 39.5983 2.11859 39.458C3.28321 39.1928 3.28321 39.2084 3.28321 37.992C3.28321 29.6017 3.28321 21.1959 3.28321 12.8056C3.28321 11.1369 3.80423 10.6223 5.42857 10.6223C5.87297 10.6223 6.30204 10.6223 6.79241 10.6223ZM21.197 31.6759C21.197 30.5375 21.1816 29.3834 21.197 28.245C21.2123 27.7771 21.0437 27.6056 20.584 27.6056C19.2048 27.6367 17.8257 27.6367 16.4465 27.6056C15.9408 27.59 15.7876 27.7771 15.7876 28.2761C15.8029 30.5375 15.8029 32.7988 15.7876 35.0601C15.7876 35.5435 15.9255 35.7619 16.4465 35.7619C17.795 35.7307 19.1589 35.7307 20.5074 35.7619C21.059 35.7775 21.2123 35.5591 21.197 35.0289C21.1816 33.9216 21.197 32.7988 21.197 31.6759ZM13.2132 31.4576C13.2132 30.2879 13.2285 29.1495 13.1978 28.011C13.1978 27.8707 12.922 27.6367 12.7688 27.6367C11.267 27.6056 9.76526 27.6056 8.24819 27.6367C8.09495 27.6367 7.83444 27.8395 7.83444 27.9642C7.80379 29.1183 7.81912 30.2723 7.81912 31.4576C9.658 31.4576 11.3896 31.4576 13.2132 31.4576ZM29.1961 31.4576C29.1961 30.2723 29.2114 29.1807 29.1654 28.1046C29.1654 27.9331 28.8436 27.6523 28.6597 27.6523C27.204 27.6211 25.7482 27.6211 24.3077 27.6523C24.1392 27.6523 23.8174 27.9019 23.8174 28.0422C23.7714 29.1807 23.802 30.3035 23.802 31.4732C25.6256 31.4576 27.3419 31.4576 29.1961 31.4576ZM15.8642 14.6927C15.8642 16.0027 15.8642 17.2347 15.8642 18.4823C17.6571 18.4823 19.3734 18.4823 21.151 18.4823C21.151 17.2035 21.151 15.9715 21.151 14.6927C19.3734 14.6927 17.6571 14.6927 15.8642 14.6927ZM23.7867 14.6615C23.7867 15.8935 23.7714 17.0475 23.802 18.2016C23.802 18.3108 24.1238 18.5135 24.2924 18.5135C25.7482 18.5447 27.204 18.5447 28.6444 18.5135C28.8283 18.5135 29.1501 18.2172 29.1501 18.0612C29.1961 17.0787 29.1961 16.0962 29.1501 15.1137C29.1501 14.9578 28.8896 14.6927 28.7517 14.6927C27.1427 14.6459 25.5183 14.6615 23.7867 14.6615ZM13.2132 14.6615C11.4815 14.6615 9.85721 14.6459 8.23286 14.6771C8.07962 14.6771 7.83444 14.9734 7.81912 15.1449C7.77314 16.0962 7.77314 17.0631 7.81912 18.03C7.83444 18.2016 8.14092 18.4979 8.30948 18.4979C9.78059 18.5291 11.267 18.5291 12.7381 18.4979C12.8914 18.4979 13.1672 18.264 13.1825 18.1236C13.2285 17.0164 13.2132 15.8779 13.2132 14.6615ZM10.4548 21.1023C9.76526 21.1023 9.07568 21.1179 8.3861 21.1023C7.97236 21.1023 7.78847 21.2739 7.78847 21.7105C7.80379 22.6151 7.75782 23.5352 7.81912 24.4397C7.83444 24.6269 8.15624 24.9544 8.34013 24.9699C9.79591 25.0167 11.2517 25.0167 12.7075 24.9699C12.876 24.9699 13.1825 24.658 13.1978 24.4865C13.2438 23.5508 13.2132 22.6151 13.2285 21.6793C13.2285 21.2271 12.9986 21.1023 12.6002 21.1179C11.88 21.1179 11.1751 21.1023 10.4548 21.1023ZM18.5306 21.1023C17.8104 21.1023 17.1055 21.1179 16.3852 21.1023C15.9562 21.0867 15.7876 21.2427 15.7876 21.6949C15.8029 22.5995 15.8029 23.5196 15.7876 24.4241C15.7723 24.8764 15.9715 25.0011 16.3852 25.0011C17.795 24.9855 19.1895 24.9855 20.5993 25.0011C21.0131 25.0011 21.197 24.8608 21.197 24.4241C21.1816 23.5196 21.1816 22.5995 21.197 21.6949C21.2123 21.2583 21.0284 21.1023 20.5993 21.1179C19.9097 21.1179 19.2202 21.1023 18.5306 21.1023ZM26.4224 24.9855C27.158 24.9855 27.9089 25.0167 28.6444 24.9544C28.8436 24.9388 29.1501 24.6269 29.1654 24.4241C29.2267 23.5196 29.1808 22.6151 29.1961 21.6949C29.2114 21.2583 29.0122 21.0867 28.5984 21.0867C27.1886 21.1023 25.7942 21.1023 24.3844 21.0867C23.9093 21.0867 23.7561 21.2739 23.7561 21.7417C23.7714 22.6307 23.7714 23.504 23.7561 24.3929C23.7561 24.8296 23.9246 25.0011 24.3537 24.9855C25.0433 24.9699 25.7329 24.9855 26.4224 24.9855ZM19.8331 9.37467C19.4807 8.23621 19.8484 7.39406 20.6759 6.6299C19.496 6.67668 18.883 6.05287 18.5153 4.99239C18.1475 6.08406 17.4732 6.64549 16.278 6.58311C16.6917 7.12894 17.1208 7.45645 17.2587 7.89311C17.3813 8.31419 17.2127 8.82883 17.1514 9.53062C18.0862 8.73526 18.9137 8.68847 19.8331 9.37467ZM10.792 6.66109C11.8187 7.39406 11.9872 8.31419 11.6195 9.43705C12.5236 8.70407 13.4124 8.70407 14.3471 9.37467C13.9487 8.22061 14.3625 7.39406 15.19 6.58311C13.8721 6.80144 13.4277 5.92811 12.968 4.75846C12.6308 6.05287 12.0332 6.69228 10.792 6.66109ZM25.3804 9.39026C24.9054 8.23621 25.3344 7.42525 26.1773 6.73906C25.0433 6.25561 25.0433 6.25561 23.8787 4.9612C23.6794 6.11525 22.9592 6.6299 21.7946 6.67668C22.7753 7.39406 22.9132 8.29859 22.6834 9.43705C23.6182 8.51692 24.461 8.87562 25.3804 9.39026Z"
        fill="#CECECE" />
</svg>