<svg width="43" height="43" viewBox="0 0 43 43" fill="none" xmlns="http://www.w3.org/2000/svg">
<g id="iconoResort">
<path id="Vector" d="M22.1147 14.469C22.1147 14.8502 22.1147 15.1043 22.1147 15.4008C22.1147 18.874 22.1571 22.3048 22.1147 25.7779C22.1147 26.4979 22.3267 26.7521 23.0051 26.6674C23.3443 26.625 23.6835 26.5826 23.9803 26.7097C24.2347 26.7944 24.4467 27.1333 24.6587 27.345C24.4467 27.5568 24.2347 27.811 23.9803 27.938C23.8107 28.0227 23.5563 27.9804 23.3443 27.9804C16.3061 27.9804 9.2678 27.9804 2.22953 27.9804C2.10234 27.9804 1.97514 27.9804 1.89034 27.9804C1.42395 27.9804 0.91516 27.9804 0.957559 27.3027C0.957559 26.7521 1.42395 26.6674 1.84794 26.6674C2.14474 26.6674 2.39913 26.625 2.69593 26.6674C3.37431 26.7097 3.54391 26.4556 3.54391 25.8626C3.50151 22.9824 3.54391 20.1023 3.54391 17.2645C3.54391 16.6715 3.54391 16.0785 3.54391 15.5279C3.54391 14.5114 3.54391 14.5114 4.51909 14.5114C7.69903 14.5114 10.9214 14.5114 14.1013 14.5114C16.4757 14.5114 18.85 14.5114 21.2668 14.5114C21.5212 14.469 21.7756 14.469 22.1147 14.469ZM10.667 26.625C12.0661 26.625 13.4229 26.625 14.7373 26.625C14.8645 26.625 15.0341 26.4556 15.0341 26.3285C14.9917 25.0155 15.0765 23.6601 14.8645 22.3471C14.7373 21.3729 13.6349 20.8223 12.5749 20.907C11.6421 20.9917 10.7094 21.7118 10.6246 22.6436C10.5822 23.9143 10.667 25.2273 10.667 26.625Z" fill="#CECECE"/>
<path id="Vector_2" d="M37.4634 16.0785C37.4634 18.9163 37.4634 21.5424 37.4634 24.1684C37.4634 24.5496 37.633 24.719 38.0146 24.6767C39.0322 24.6767 40.0074 24.6767 41.025 24.6767C41.449 24.6767 41.9153 24.6767 41.9577 25.2696C41.9577 25.8626 41.4914 25.9473 41.025 25.9473C38.8626 25.9473 36.7426 25.9473 34.5803 25.9473C33.4779 25.9473 33.0115 26.4132 33.0115 27.5145C33.0115 29.124 33.0115 30.7335 33.0115 32.343C33.0115 32.7665 32.8843 32.936 32.4179 33.0207C31.2308 33.1901 30.086 33.4019 28.8988 33.6136C28.7716 33.656 28.5596 33.7831 28.5172 33.9101C28.2204 34.7149 28.2204 34.7572 27.2028 35.0961C27.2028 33.7407 27.2028 32.47 27.2028 31.0723C26.8212 31.0723 26.5244 31.0723 26.2277 31.0723C18.2566 31.0723 10.2856 31.0723 2.31452 31.0723C1.80573 31.0723 1.04254 31.2841 1.00014 30.437C0.957744 29.5899 1.76333 29.8017 2.27212 29.8017C10.2856 29.8017 18.2566 29.8017 26.2701 29.8017C27.2028 29.8017 27.2028 29.8017 27.2028 28.8275C27.2028 28.2769 27.2028 27.7262 27.2028 27.1333C27.2452 25.8626 28.2628 24.8037 29.4924 24.6767C29.9164 24.6343 30.3404 24.719 30.4252 25.2273C30.4676 25.6932 30.1284 25.905 29.7044 25.9897C28.9836 26.1167 28.7292 26.4132 28.6444 27.1333C28.7292 27.1756 28.814 27.218 28.8988 27.218C29.7892 27.218 30.722 27.218 31.6547 27.218C31.7395 26.9215 31.7819 26.6674 31.9091 26.4132C32.2907 25.3967 33.0539 24.8037 34.1563 24.719C34.2835 24.719 34.4531 24.719 34.5803 24.719C36.2339 24.719 36.2339 24.719 36.2339 23.0248C36.2339 20.78 36.2339 18.4928 36.2339 16.1632C35.9795 16.1209 35.7251 16.1209 35.5131 16.1209C34.7923 16.1209 34.0715 16.1209 33.3507 16.1209C31.6971 16.1209 31.4851 15.8667 31.9091 14.2149C32.5027 11.8853 34.7075 10.2335 37.0394 10.3605C39.4986 10.4876 41.5762 12.3089 41.9577 14.6808C42.1273 15.8667 41.9153 16.1209 40.7706 16.1209C39.6682 16.0785 38.6082 16.0785 37.4634 16.0785ZM30.1708 28.531C29.7892 28.531 29.3652 28.531 28.9836 28.531C28.5596 28.531 28.5172 28.7851 28.5172 29.124C28.5172 29.4628 28.5172 29.8017 28.9836 29.8017C29.7468 29.8017 30.51 29.8017 31.3156 29.7593C31.4427 29.7593 31.6547 29.5052 31.6971 29.3357C31.8243 28.7428 31.6547 28.3616 30.934 28.4886C30.6796 28.5734 30.4252 28.531 30.1708 28.531ZM31.6971 31.1147C30.722 31.1147 29.8316 31.0723 28.9836 31.157C28.814 31.157 28.5596 31.4959 28.5596 31.6653C28.5596 31.8771 28.7716 32.3006 28.8988 32.3006C29.8316 32.343 30.7644 32.343 31.6971 32.343C31.6971 31.9194 31.6971 31.5806 31.6971 31.1147Z" fill="#CECECE"/>
<path id="Vector_3" d="M40.3886 10.0641C34.8343 6.92975 29.492 11.8006 30.5943 16.5021C28.3472 17.0527 26.0576 17.095 23.7681 16.968C23.6409 16.968 23.3865 16.7138 23.3865 16.5444C23.3017 16.2056 23.3865 15.8667 23.3441 15.4855C23.3017 14.8502 23.3865 14.469 24.1073 14.2572C24.9977 14.0031 25.5064 12.9019 25.1673 12.0124C24.6585 10.8264 24.1073 9.68285 23.3865 8.62397C22.4961 7.35331 21.0969 6.80269 19.5706 6.76033C19.0618 6.76033 18.553 6.76033 17.917 6.76033C18.0018 6.5062 18.0442 6.33678 18.129 6.16736C18.977 4.64256 19.8674 3.11777 20.7153 1.59298C21.2241 0.703515 21.6905 0.703515 22.1569 1.59298C23.7681 4.38843 25.3792 7.22624 26.948 10.0641C27.0752 10.3182 27.2448 10.53 27.4144 10.8264C27.584 10.5723 27.7112 10.4452 27.8384 10.2758C29.704 7.39566 31.5695 4.5155 33.4351 1.63533C34.0287 0.703515 34.3679 0.703515 34.9615 1.59298C36.6574 4.17666 38.311 6.76033 40.007 9.34401C40.1342 9.55579 40.219 9.72521 40.3886 10.0641Z" fill="#CECECE"/>
<path id="Vector_4" d="M12.7869 13.1983C9.43735 13.1983 6.08781 13.1983 2.78068 13.1983C1.5511 13.1983 1.38151 12.9019 1.8903 11.8006C2.14469 11.2924 2.39909 10.7841 2.65348 10.3182C3.41667 8.79339 4.64624 8.07335 6.29981 8.07335C10.6245 8.07335 14.9916 8.07335 19.3164 8.07335C20.9699 8.07335 22.1571 8.79339 22.9203 10.2758C23.2171 10.8264 23.4715 11.3771 23.7683 11.97C24.1923 12.8172 23.9379 13.1983 23.0051 13.1983C19.6131 13.1983 16.2212 13.1983 12.7869 13.1983Z" fill="#CECECE"/>
<path id="Vector_5" d="M40.6009 38.1033C39.1593 38.1033 37.8874 37.3409 36.6154 36.5362C34.453 35.1808 32.2483 35.2231 30.0435 36.5362C29.1955 37.0444 28.3051 37.595 27.3724 37.8492C25.1676 38.4422 23.0476 38.1457 21.1821 36.7903C20.0797 35.9855 18.8501 35.562 17.451 35.562C16.1366 35.562 14.9494 35.9432 13.9318 36.7056C12.3631 37.8492 10.6247 38.2304 8.71673 38.061C7.52955 37.9339 6.51197 37.5527 5.53679 36.875C4.39201 36.1126 3.20483 35.5196 1.76326 35.5196C1.33927 35.5196 0.915278 35.3079 1.04248 34.7996C1.12727 34.5455 1.55127 34.249 1.84806 34.249C3.41683 34.2066 4.7736 34.7572 6.04558 35.6467C7.61435 36.7479 9.35271 37.0868 11.1759 36.5785C11.8543 36.4091 12.5327 36.0703 13.1262 35.6467C16.0942 33.6984 19.0197 33.6984 21.9877 35.6467C24.3196 37.1715 26.694 37.1715 29.0259 35.6467C31.9939 33.6984 34.9194 33.6984 37.845 35.6467C38.8201 36.282 39.8377 36.7479 41.0249 36.7479C41.4913 36.7479 42.0001 36.7903 42.0001 37.3833C42.0001 38.061 41.4489 38.0186 40.9825 38.0186C40.8553 38.1033 40.7705 38.1033 40.6009 38.1033Z" fill="#CECECE"/>
<path id="Vector_6" d="M40.8554 41.9576C39.4138 41.9153 38.1842 41.407 37.0394 40.6023C35.6403 39.5857 34.0715 39.1622 32.3755 39.5434C31.4427 39.7552 30.5524 40.1787 29.7044 40.687C28.3476 41.4917 26.9484 42.0424 25.3373 42C23.7685 42 22.4117 41.4917 21.1397 40.6023C19.7406 39.5857 18.1718 39.1622 16.5182 39.5434C15.5431 39.7552 14.5679 40.2211 13.7199 40.7293C11.5999 42.0424 9.43757 42.3812 7.10562 41.5341C6.42723 41.28 5.79124 40.8988 5.19765 40.5176C4.18007 39.8822 3.16249 39.4163 1.93292 39.4163C1.46653 39.4163 0.957737 39.3316 1.04253 38.6963C1.08493 38.1033 1.59372 38.061 2.06012 38.1033C3.41689 38.188 4.68886 38.5692 5.79124 39.374C8.33519 41.1529 10.8367 41.1105 13.4231 39.4163C16.2638 37.5527 19.147 37.6798 21.9453 39.5434C23.8957 40.8564 25.9733 41.0682 28.1356 40.094C28.6444 39.8399 29.1108 39.501 29.6196 39.2045C32.1211 37.7645 34.7075 37.7221 37.209 39.2045C38.5234 40.0093 39.8378 40.7293 41.4066 40.7717C41.6185 40.7717 41.9577 41.1529 41.9577 41.3647C41.9577 41.5764 41.6185 41.8306 41.3642 41.9576C41.1946 42.0424 40.9826 41.9576 40.8554 41.9576Z" fill="#CECECE"/>
<path id="Vector_7" d="M12.7022 6.84504C9.9039 6.84504 7.27515 6.84504 4.604 6.84504C4.6464 6.76033 4.6888 6.59091 4.816 6.42149C5.83358 4.81198 6.89356 3.20248 7.95354 1.59297C8.50473 0.745867 8.88632 0.745867 9.39511 1.55062C10.4127 3.07541 11.3879 4.64256 12.4055 6.20971C12.4903 6.37913 12.5326 6.5062 12.7022 6.84504Z" fill="#CECECE"/>
<path id="Vector_8" d="M32.6297 18.874C30.9337 19.0858 29.2377 19.3399 27.5418 19.4669C26.397 19.5517 25.2098 19.5093 24.065 19.5517C23.5138 19.5517 23.3442 19.3399 23.3442 18.7893C23.3442 18.1963 23.6834 18.2386 24.065 18.2386C26.397 18.4081 28.7289 18.0269 31.0185 17.7727C32.0785 17.6457 33.1808 17.688 34.2408 17.6457C34.792 17.6033 34.9192 17.8574 34.9192 18.3657C34.9192 18.874 34.7072 19.001 34.2408 18.9587C33.6896 18.9163 33.1808 18.9587 32.6297 18.9587C32.6297 18.9587 32.6297 18.9163 32.6297 18.874Z" fill="#CECECE"/>
<path id="Vector_9" d="M40.1346 18.3234C40.5162 18.3234 40.9401 18.2386 41.3217 18.3657C41.5761 18.4504 41.9153 18.7893 41.9153 19.001C41.9153 19.2128 41.5337 19.594 41.3217 19.594C40.601 19.6364 39.8378 19.594 39.0746 19.5093C38.5234 19.4669 38.7354 18.9587 38.7354 18.6622C38.7354 18.5351 39.0322 18.3234 39.2018 18.281C39.4986 18.1963 39.7954 18.281 40.0922 18.281C40.1346 18.2386 40.1346 18.281 40.1346 18.3234Z" fill="#CECECE"/>
<path id="Vector_10" d="M2.39907 18.4504C2.18707 18.6198 2.01748 18.9163 1.80548 18.9587C1.38149 19.001 0.9151 18.8316 1.0423 18.3233C1.0847 18.0692 1.50869 17.7727 1.80548 17.688C2.22947 17.5186 2.27187 17.8998 2.39907 18.4504Z" fill="#CECECE"/>
<path id="Vector_11" d="M2.22976 14.9773C2.22976 15.5702 2.22976 15.9091 2.22976 16.4597C1.80576 16.3326 1.42417 16.2479 1.12738 16.0785C1.00018 16.0362 1.00018 15.5279 1.08498 15.4432C1.38177 15.2314 1.76337 15.1467 2.22976 14.9773Z" fill="#CECECE"/>
</g>
</svg>
