<svg width="42" height="42" viewBox="0 0 42 42" fill="none" xmlns="http://www.w3.org/2000/svg">
<g id="iconoB&#38;B">
<path id="Vector" d="M23.8141 33.403C19.8538 33.403 15.8936 33.403 11.9334 33.403C11.5917 33.403 11.25 33.403 10.9239 33.3404C10.1008 33.1841 9.5417 32.4495 9.60383 31.5742C9.65042 30.7457 10.2406 30.058 11.0637 30.0111C11.9644 29.9485 12.8807 29.9485 13.7815 29.9954C14.4803 30.0267 14.7754 29.8391 14.7133 29.0888C14.6512 28.3385 14.6978 27.5726 14.6978 26.8223C14.7288 24.509 16.0955 23.196 18.3784 23.0865C22.7114 22.8677 26.8114 23.618 30.694 25.5875C31.5947 26.0408 32.5887 26.3065 33.4584 26.8223C34.3747 27.3694 35.2754 28.0103 36.0053 28.7918C37.1701 30.0111 36.844 31.621 36.8129 33.106C36.8129 33.2154 36.3315 33.403 36.083 33.403C31.983 33.4186 27.8985 33.403 23.8141 33.403Z" fill="#CECECE" fill-opacity="0.933333"/>
<path id="Vector_2" d="M6.17155 24.8372C6.17155 25.5875 6.17155 26.244 6.17155 26.8849C6.17155 29.3389 6.20261 31.7774 6.15602 34.2314C6.14049 34.9504 6.35791 35.1536 7.07231 35.1536C17.7572 35.138 28.442 35.138 39.1424 35.138C40.2761 35.138 40.2761 35.138 40.2761 36.2791C40.2761 37.9516 40.2606 39.6085 40.2916 41.281C40.3072 41.8281 40.1363 42.0156 39.5928 42C38.7231 41.9687 37.8378 41.9844 36.8594 41.9844C36.8594 41.0778 36.8284 40.2493 36.875 39.4365C36.906 38.78 36.7352 38.5299 36.0208 38.5299C26.3454 38.5456 16.67 38.5456 6.97913 38.5299C6.37344 38.5299 6.14049 38.7019 6.18708 39.3271C6.23367 40.1868 6.20261 41.0309 6.20261 41.9375C5.03784 41.9375 3.96625 41.9375 2.817 41.9375C2.80147 41.6249 2.77041 41.3435 2.77041 41.0621C2.77041 35.9508 2.78594 30.8551 2.75488 25.7438C2.75488 25.0404 2.92572 24.7591 3.65564 24.806C4.43216 24.8841 5.23973 24.8372 6.17155 24.8372Z" fill="#CECECE" fill-opacity="0.933333"/>
<path id="Vector_3" d="M41.8601 11.0978C38.8628 10.0974 35.9275 9.11267 32.9923 8.12792C29.3582 6.90871 25.7396 5.68949 22.1056 4.50154C21.7484 4.37649 21.2824 4.39212 20.9253 4.50154C14.6199 6.58046 8.34571 8.69064 2.07146 10.8008C1.77639 10.8946 1.49684 10.9884 1.20177 11.0822C0.813509 9.67538 0.90669 9.47218 2.11805 8.97199C8.37677 6.34599 14.6199 3.71999 20.8787 1.10962C21.2359 0.968942 21.7484 0.953312 22.09 1.09399C28.4885 3.75125 34.887 6.43978 41.2855 9.11267C42.062 9.44092 42.1241 9.64412 41.8601 11.0978Z" fill="#CECECE" fill-opacity="0.933333"/>
<path id="Vector_4" d="M12.9739 25.6657C12.9894 27.1193 11.8868 28.2604 10.4424 28.2604C9.02918 28.2604 7.84888 27.0881 7.86441 25.6969C7.87994 24.3214 8.99812 23.1647 10.3803 23.1334C11.7936 23.0865 12.9583 24.2276 12.9739 25.6657Z" fill="#CECECE" fill-opacity="0.933333"/>
<path id="Vector_5" d="M28.0225 13.2859C28.1933 13.3328 28.3797 13.3485 28.5661 13.411C29.4202 13.708 29.9327 14.5364 29.8085 15.4274C29.6842 16.3027 28.9543 17.0374 28.0846 17.0374C27.4479 17.0374 26.9664 17.1937 26.5005 17.6313C25.9725 18.1315 25.2581 18.3347 24.5282 18.3816C23.938 18.4129 23.7361 18.2722 23.7051 17.6782C23.6895 17.1937 23.4721 16.8654 23.146 16.5528C22.6335 16.0682 22.0433 15.7087 21.3755 15.4586C21.2513 15.4117 21.1581 15.2711 21.0494 15.1773C21.0028 15.1304 20.9873 15.021 20.9407 14.9741C20.3195 14.3645 20.6611 13.6142 20.6611 12.9264C20.6611 12.7388 20.9407 12.4731 21.1581 12.395C21.7172 12.1605 22.3073 11.926 22.913 11.8166C24.2486 11.5822 25.5842 11.6447 26.8733 12.098C27.013 12.1449 27.1373 12.2074 27.2615 12.2699C27.774 12.5356 27.9138 12.7232 28.0225 13.2859ZM26.9975 13.114C25.8327 12.3012 22.4316 12.395 21.6085 13.1296C22.5869 13.8799 25.8948 13.8799 26.9975 13.114ZM27.7429 16.2089C28.3797 16.3183 28.9388 15.9119 29.0009 15.2711C29.063 14.7084 28.6282 14.2082 28.0536 14.1613C27.9604 14.849 27.8517 15.5212 27.7429 16.2089Z" fill="#CECECE" fill-opacity="0.933333"/>
<path id="Vector_6" d="M18.5803 14.724C19.0772 14.8178 19.5587 14.8803 20.0246 15.0053C20.5216 15.146 20.7079 15.5212 20.5526 16.0057C20.2575 16.9279 19.9469 17.8658 19.6363 18.788C19.4966 19.1944 19.2636 19.3507 18.8443 19.3507C18.6735 19.3507 18.5182 19.3507 18.3473 19.3507C17.9591 19.3507 17.7106 19.1632 17.5863 18.8193C17.2602 17.8658 16.9341 16.9123 16.6235 15.9432C16.4837 15.5055 16.6856 15.1304 17.1204 15.0053C17.6019 14.8959 18.0988 14.8178 18.5803 14.724Z" fill="#CECECE" fill-opacity="0.933333"/>
<path id="Vector_7" d="M21.174 15.9901C21.935 16.2558 22.5407 16.6622 23.0066 17.2718C23.193 17.5063 23.1775 17.8033 22.96 18.0065C22.3078 18.5692 21.64 19.1163 20.9566 19.6477C20.6771 19.8666 20.3665 19.7571 20.0093 19.3976C20.3975 18.2722 20.7858 17.1468 21.174 15.9901Z" fill="#CECECE" fill-opacity="0.933333"/>
<path id="Vector_8" d="M16.0488 16.0057C16.437 17.1468 16.7942 18.2722 17.167 19.3976C16.7942 19.8197 16.4681 19.8666 16.0332 19.4914C15.4897 19.0538 14.9461 18.6161 14.4181 18.1628C14.0143 17.8345 13.9988 17.5063 14.3404 17.1155C14.7908 16.5997 15.3654 16.2402 16.0488 16.0057Z" fill="#CECECE" fill-opacity="0.933333"/>
<path id="Vector_9" d="M13.8434 18.4598C14.5112 18.9912 15.148 19.4914 15.8313 20.0541C15.2722 20.4293 14.7597 20.8044 14.2161 21.1014C13.9366 21.2577 13.626 21.1483 13.393 20.9138C13.1601 20.6794 13.098 20.398 13.2067 20.0854C13.4241 19.5539 13.626 19.0381 13.8434 18.4598Z" fill="#CECECE" fill-opacity="0.933333"/>
<path id="Vector_10" d="M23.3479 18.4285C23.5809 19.0694 23.8604 19.6477 24.0157 20.2573C24.1555 20.8357 23.4566 21.3515 22.9286 21.0545C22.4161 20.7732 21.9347 20.398 21.3911 20.0229C22.0589 19.4914 22.6646 18.9912 23.3479 18.4285Z" fill="#CECECE" fill-opacity="0.933333"/>
<path id="Vector_11" d="M23.1618 8.28403C23.0376 8.65917 22.9444 9.01868 22.8046 9.34693C22.6338 9.75334 22.5872 10.1441 22.7269 10.5818C22.758 10.7068 22.6648 10.8788 22.6338 11.0194C22.494 10.9569 22.3076 10.9413 22.2144 10.8475C21.8107 10.3786 21.7796 9.84712 21.9815 9.28441C22.0591 9.08121 22.1368 8.878 22.23 8.6748C22.3698 8.37781 22.4163 8.09646 22.3232 7.76821C22.2921 7.64316 22.3387 7.40869 22.4319 7.34617C22.6182 7.18986 22.758 7.37743 22.8512 7.53374C22.9599 7.76821 23.0531 8.0183 23.1618 8.28403Z" fill="#CECECE" fill-opacity="0.933333"/>
<path id="Vector_12" d="M24.9476 8.11208C24.8233 8.48723 24.7457 8.81548 24.6214 9.11247C24.4351 9.56576 24.3574 9.9878 24.5282 10.4724C24.5593 10.5818 24.4816 10.7225 24.4506 10.8475C24.3108 10.8162 24.1244 10.8162 24.0468 10.7381C23.643 10.3004 23.5964 9.76897 23.7517 9.22188C23.8138 8.98742 23.9226 8.76858 24.0313 8.54975C24.1866 8.23713 24.2176 7.92451 24.1089 7.58063C24.0779 7.47121 24.171 7.31491 24.2176 7.18986C24.3419 7.23675 24.5282 7.23675 24.5748 7.33054C24.7146 7.54937 24.8233 7.84636 24.9476 8.11208Z" fill="#CECECE" fill-opacity="0.933333"/>
<path id="Vector_13" d="M25.3516 9.92528C25.4913 9.50324 25.6 9.1281 25.7553 8.78422C25.8951 8.44034 26.0038 8.11209 25.8796 7.72132C25.8485 7.6119 25.9417 7.45559 25.9883 7.31491C26.1281 7.37743 26.3144 7.39307 26.3921 7.50248C26.625 7.84636 26.7493 8.23714 26.6095 8.6748C26.5163 8.9249 26.4387 9.17499 26.33 9.42509C26.1747 9.80023 26.1591 10.1754 26.2678 10.5662C26.2989 10.6912 26.2213 10.8631 26.1902 11.0038C26.0504 10.9569 25.8485 10.9413 25.7864 10.8319C25.6156 10.5505 25.5069 10.2379 25.3516 9.92528Z" fill="#CECECE" fill-opacity="0.933333"/>
</g>
</svg>
