<svg width="36" height="38" viewBox="0 0 36 38" fill="#CECECE" xmlns="http://www.w3.org/2000/svg">
    <g id="iconoBoutique">
        <g id="Group">
            <path id="Vector"
                d="M23.2763 28.1034C21.2443 29.0477 19.9909 29.0477 19.3262 28.1412C18.9654 27.6501 19.0034 27.2724 19.3452 26.8946C19.6111 27.2724 19.9719 28.0467 20.1808 28.0089C20.6935 27.9145 21.2823 27.5557 21.6051 27.1213C23.5422 24.5527 25.5932 23.9105 28.5937 25.3082C30.1699 26.0447 31.4233 25.8748 32.6577 24.7416C32.9616 24.4771 33.3224 24.2505 33.6832 24.0805C34.4809 23.7217 35.4494 24.1183 35.7342 24.8926C36.0191 25.6481 35.6393 26.4791 34.8986 26.7624C34.101 27.0457 33.3984 26.668 33.0565 25.7803C32.9996 25.6292 32.9616 25.4781 32.9046 25.327C32.088 25.7237 31.2904 26.1203 30.5118 26.498C30.7966 27.008 31.1005 27.5934 31.4043 28.1789C31.3094 28.2356 31.1954 28.2922 31.1005 28.3489C30.9676 28.16 30.8156 27.9712 30.7017 27.7634C30.151 26.7435 29.3343 26.0258 28.2329 25.6859C26.9985 25.327 25.8021 25.497 24.8905 26.4414C23.922 27.4612 23.3333 28.67 23.5991 30.1243C23.7701 31.0497 24.5107 31.3519 25.3463 31.4274C26.2578 31.503 27.2644 30.9742 27.4353 30.2753C27.4922 30.0676 27.2074 29.7843 27.1504 29.5199C27.0934 29.2744 27.0175 28.9155 27.1504 28.7644C27.2833 28.5944 27.6822 28.4811 27.8721 28.5567C28.081 28.6322 28.3088 28.9722 28.3088 29.1799C28.2329 30.8797 26.9795 31.9752 25.3083 31.8807C23.6561 31.7863 22.7825 30.5964 23.1054 28.84C23.1434 28.6511 23.2003 28.4433 23.2763 28.1034ZM25.6501 25.2704C23.2953 24.9304 22.4787 26.7058 21.3772 28.3111C23.3712 27.9712 24.0929 26.0258 25.6501 25.2704ZM35.4874 25.6481C35.4874 25.5159 35.4874 25.3837 35.5063 25.2515C35.1455 25.006 34.7657 24.5527 34.4049 24.5527C34.101 24.5527 33.5123 25.1004 33.5503 25.3648C33.5883 25.7425 34.0441 26.2714 34.3859 26.328C34.7087 26.3658 35.1075 25.8936 35.4874 25.6481Z"
                fill="#CECECE" />
            <path id="Vector_2"
                d="M25.4794 32.0885C25.4035 32.0885 25.3465 32.0885 25.2705 32.0885C24.4349 32.0507 23.7703 31.7296 23.3335 31.1819C22.8587 30.5964 22.7068 29.7654 22.8967 28.8211C22.9157 28.6889 22.9537 28.5755 22.9916 28.4245C21.0926 29.2366 19.8392 29.1799 19.1555 28.2356C18.7567 27.6879 18.7757 27.2157 19.1745 26.7435L19.3264 26.5547L19.4594 26.7435C19.5543 26.8757 19.6493 27.0268 19.7442 27.1968C19.8582 27.3857 20.0481 27.7068 20.143 27.7823C20.5988 27.6879 21.1305 27.3668 21.4154 26.9891C23.4664 24.2694 25.6124 23.7217 28.6319 25.1193C30.1512 25.837 31.3096 25.667 32.487 24.5905C32.7909 24.326 33.1517 24.0805 33.5695 23.8917C34.0063 23.7028 34.5 23.6839 34.9558 23.8728C35.3926 24.0427 35.7155 24.3827 35.8674 24.7982C36.0193 25.2137 36.0003 25.6481 35.8294 26.0447C35.6585 26.4414 35.3356 26.7435 34.9178 26.8946C34.0253 27.2157 33.2087 26.8002 32.8289 25.7992C32.7909 25.7237 32.7719 25.6292 32.7529 25.5537L30.7399 26.5358L31.6324 28.1978L31.0247 28.5567L30.9298 28.4056C30.8918 28.3489 30.8538 28.2922 30.7968 28.2356C30.7019 28.1034 30.6069 27.9712 30.512 27.8201C29.9613 26.8002 29.1636 26.1392 28.1571 25.837C27.2836 25.5726 26.0112 25.497 25.0047 26.5358C23.9412 27.6501 23.5234 28.8022 23.7703 30.0487C23.9032 30.7475 24.397 31.1252 25.3465 31.2008C26.1821 31.2763 27.0936 30.7853 27.2266 30.1809C27.2456 30.1243 27.1696 29.992 27.1126 29.8976C27.0557 29.7843 26.9797 29.6521 26.9417 29.5199C26.8658 29.1799 26.8088 28.8211 26.9797 28.6133C27.1506 28.3867 27.6444 28.2356 27.9292 28.3489C28.2141 28.4622 28.499 28.8777 28.48 29.161C28.442 30.0298 28.1002 30.7853 27.5304 31.3141C26.9987 31.8429 26.277 32.0885 25.4794 32.0885ZM23.5424 27.7634L23.4474 28.1412C23.4284 28.2545 23.3904 28.3678 23.3715 28.4622C23.3335 28.6322 23.2955 28.7644 23.2765 28.8966C23.1246 29.7465 23.2385 30.4453 23.6373 30.9553C23.9981 31.4085 24.5679 31.673 25.2895 31.7107C26.0681 31.7485 26.7708 31.5219 27.2646 31.0686C27.7773 30.6153 28.0622 29.9543 28.1002 29.1799C28.1002 29.0477 27.9292 28.7833 27.7963 28.7266C27.6824 28.6889 27.3595 28.7644 27.3025 28.8588C27.2646 28.9155 27.2456 29.0477 27.3405 29.4632C27.3595 29.5388 27.4165 29.6521 27.4735 29.7465C27.5684 29.9165 27.6824 30.1054 27.6254 30.3131C27.4545 31.0875 26.372 31.7107 25.3465 31.6163C24.226 31.5219 23.5993 31.0497 23.4284 30.162C23.1815 28.8022 23.6183 27.499 24.7578 26.3091C25.6693 25.3648 26.8847 25.0815 28.2901 25.497C29.3915 25.8181 30.2651 26.5547 30.8728 27.6501C30.9488 27.7823 31.0247 27.8956 31.1197 28.0089L30.2461 26.3847L32.9998 25.0249L33.0757 25.2326C33.0947 25.2893 33.1137 25.327 33.1137 25.3837C33.1517 25.4781 33.1707 25.5726 33.2087 25.667C33.5125 26.4791 34.1202 26.8002 34.8039 26.5358C35.1078 26.4225 35.3546 26.1958 35.4876 25.8748C35.5066 25.837 35.5256 25.7992 35.5256 25.7614C35.4306 25.8181 35.3356 25.9125 35.2217 25.9881C34.9178 26.2336 34.614 26.4791 34.3101 26.4225C33.8734 26.3658 33.3796 25.7237 33.3226 25.2893C33.3036 25.1004 33.4366 24.8926 33.5695 24.7604C33.7784 24.5149 34.1202 24.2883 34.3671 24.2883C34.69 24.2883 34.9748 24.5338 35.2597 24.7604C35.3546 24.836 35.4496 24.9304 35.5445 24.9871C35.5445 24.9493 35.5256 24.9304 35.5066 24.8926C35.3926 24.5905 35.1267 24.326 34.8039 24.1938C34.4621 24.0427 34.0633 24.0427 33.7214 24.1938C33.3606 24.3638 33.0188 24.5716 32.7339 24.8171C31.4235 26.007 30.1132 26.1769 28.461 25.4026C26.5429 24.5149 25.0237 24.4394 23.6563 25.2704C24.1881 25.006 24.8337 24.8738 25.6314 24.9871L26.2391 25.0815L25.6883 25.3459C25.0806 25.6481 24.5869 26.1392 24.0931 26.6491C23.3525 27.4046 22.6118 28.1789 21.3774 28.3867L20.9406 28.4622L21.1875 28.0845C21.3205 27.8956 21.4534 27.6879 21.5863 27.499C21.9092 26.9891 22.251 26.4791 22.6498 26.0636C22.346 26.3658 22.0421 26.7247 21.7193 27.1213C21.3584 27.5934 20.7317 27.9712 20.181 28.0845C19.9151 28.1412 19.7062 27.7823 19.4214 27.3101C19.3834 27.2535 19.3454 27.1779 19.3074 27.1213C19.1745 27.3668 19.2315 27.6123 19.4594 27.9334C20.0481 28.7644 21.2635 28.7266 23.1815 27.839L23.5424 27.7634ZM25.0426 25.4215C23.5044 25.4404 22.7637 26.5547 21.9471 27.8201C21.9092 27.8767 21.8712 27.9523 21.8142 28.0089C22.6688 27.7256 23.2575 27.1213 23.8652 26.498C24.226 26.1014 24.6059 25.7237 25.0426 25.4215ZM34.4051 24.7416C34.2152 24.7416 33.7404 25.1948 33.7404 25.3459C33.7784 25.6481 34.1582 26.1014 34.4051 26.1392C34.557 26.1581 34.8229 25.9503 35.0318 25.7803C35.1267 25.7048 35.2217 25.6292 35.3167 25.5537V25.3459C35.2217 25.2704 35.1457 25.2137 35.0508 25.1382C34.8229 24.9304 34.576 24.7416 34.4051 24.7416Z"
                fill="#CECECE" />
        </g>
        <g id="Group_2">
            <path id="Vector_3"
                d="M17.6171 26.5547C18.0539 27.2724 17.9969 27.7634 17.6171 28.2356C16.9334 29.0666 15.756 29.0477 13.8189 28.16C13.8759 28.6889 13.9519 29.2177 13.9519 29.7276C13.9329 30.9364 13.2112 31.7296 11.9958 31.8996C10.6475 32.0885 9.3751 31.4463 9.03326 30.3887C8.91932 30.0676 8.76739 29.7276 8.76739 29.4066C8.76739 29.1421 8.88134 28.7833 9.07125 28.6511C9.22317 28.5378 9.69794 28.5944 9.7929 28.7455C9.92583 28.9344 9.9828 29.4443 9.84987 29.5577C9.03326 30.2376 9.65996 30.672 10.1157 31.0497C10.8184 31.6352 11.9578 31.6541 12.6985 31.1819C13.4771 30.672 13.5341 29.9165 13.4011 29.0855C13.1163 27.2912 11.9389 25.9125 10.4576 25.6481C8.80538 25.3459 7.21015 26.1769 6.2796 27.8012C6.16566 28.0089 6.03272 28.1789 5.89979 28.3678C5.80483 28.3111 5.70988 28.2734 5.61492 28.2167C5.89979 27.6501 6.18465 27.0835 6.45052 26.5358C5.70988 26.1769 4.91227 25.7803 4.09566 25.3648C4.03869 25.5348 3.98172 25.7425 3.90576 25.9314C3.56392 26.7435 2.82328 27.0835 2.06365 26.7813C1.36099 26.498 1.00017 25.7048 1.24705 24.9871C1.47494 24.2694 2.34851 23.7594 3.07016 24.0427C3.58291 24.2505 4.07667 24.5716 4.51346 24.9304C5.6719 25.9125 6.83033 26.0447 8.27363 25.4215C9.31813 24.9682 10.5145 24.7982 11.673 24.7415C13.0783 24.666 14.2367 25.2893 14.9774 26.5547C15.2243 26.9513 15.4711 27.4046 15.832 27.669C16.1358 27.9145 16.6296 28.0467 17.0094 28.0089C17.1803 27.9901 17.2753 27.4235 17.4082 27.1024C17.4652 26.9702 17.5032 26.8757 17.6171 26.5547ZM15.6231 28.3111C14.5406 26.7246 13.724 24.9493 11.4071 25.2893C12.9264 26.0636 13.629 27.9523 15.6231 28.3111ZM3.67787 25.667C3.67787 25.5159 3.67787 25.3648 3.67787 25.2137C3.31704 24.9682 2.93723 24.5338 2.59539 24.5527C2.27255 24.5716 1.68383 25.1193 1.72182 25.3648C1.77879 25.7425 2.23457 26.2525 2.5764 26.328C2.89924 26.3847 3.29805 25.8936 3.67787 25.667Z"
                fill="#CECECE" />
            <path id="Vector_4"
                d="M11.5211 32.0885C10.2677 32.0885 9.16624 31.4274 8.8434 30.4076C8.8244 30.332 8.78642 30.2565 8.76743 30.1809C8.67248 29.9165 8.57752 29.6521 8.57752 29.3688C8.57752 29.0666 8.69147 28.6322 8.95734 28.4433C9.12826 28.3111 9.39413 28.3489 9.50807 28.3678C9.64101 28.3867 9.84991 28.4433 9.96385 28.5755C10.1158 28.8022 10.2487 29.4254 10.0018 29.6332C9.77394 29.8221 9.66 29.992 9.67899 30.1243C9.67899 30.3509 9.94486 30.5586 10.1917 30.7475L10.2867 30.8231C10.9134 31.333 11.9389 31.3897 12.6416 30.9364C13.2303 30.5586 13.4202 30.0109 13.2682 29.0288C13.0024 27.329 11.8819 26.007 10.4766 25.7614C8.90037 25.4781 7.38111 26.2714 6.50753 27.8201C6.43157 27.9712 6.33661 28.1034 6.24166 28.2356C6.20368 28.2922 6.1657 28.3489 6.12771 28.4056L6.03276 28.5567L5.42506 28.2545L6.26065 26.5736L4.22864 25.5915C4.19065 25.7048 4.15267 25.837 4.0957 25.9692C3.71589 26.8757 2.8613 27.2724 2.00672 26.9324C1.2091 26.6113 0.810297 25.7237 1.07617 24.9115C1.2091 24.496 1.55094 24.1183 1.98772 23.9105C2.36754 23.7217 2.78534 23.7028 3.14616 23.835C3.63992 24.0239 4.15267 24.3449 4.64643 24.7604C5.7479 25.6859 6.81138 25.837 8.19771 25.2326C9.12826 24.836 10.2487 24.6093 11.654 24.5338C13.1543 24.4582 14.3507 25.1193 15.1483 26.4414L15.1673 26.4791C15.3952 26.8569 15.6231 27.2535 15.9459 27.499C16.2118 27.6879 16.6296 27.8201 16.9525 27.8012C17.0094 27.7256 17.0664 27.499 17.1234 27.3668C17.1614 27.2346 17.1993 27.1213 17.2373 27.008C17.2563 26.9513 17.2753 26.8946 17.3133 26.7813C17.3323 26.7058 17.3703 26.6113 17.4082 26.498L17.5412 26.1203L17.7501 26.4602C18.2058 27.1968 18.2058 27.7823 17.7311 28.3489C17.0284 29.2177 15.87 29.2555 14.0089 28.4622C14.0089 28.5189 14.0279 28.5755 14.0279 28.6322C14.0659 28.9911 14.1228 29.3499 14.1038 29.7276C14.0848 31.0119 13.3062 31.8996 11.9959 32.0696C11.8439 32.0885 11.673 32.0885 11.5211 32.0885ZM9.29917 28.7455C9.2422 28.7455 9.18523 28.7455 9.16624 28.7644C9.0333 28.8588 8.93835 29.1421 8.93835 29.3688C8.93835 29.5954 9.0333 29.8221 9.10927 30.0676C9.14725 30.1431 9.16624 30.2376 9.18523 30.3131C9.50807 31.2763 10.6855 31.8807 11.9389 31.6918C13.0593 31.5408 13.705 30.8042 13.724 29.7087C13.724 29.3688 13.686 29.0288 13.6481 28.67C13.6291 28.5 13.6101 28.33 13.5911 28.16L13.5531 27.839L13.857 27.9712C15.7181 28.8211 16.8195 28.8588 17.4462 28.1034C17.7311 27.7634 17.788 27.4423 17.6361 27.0268C17.6171 27.0646 17.6171 27.1024 17.5981 27.1402C17.5602 27.2346 17.5222 27.3479 17.4842 27.4612C17.3703 27.839 17.2753 28.1412 17.0284 28.16C16.5916 28.1978 16.0599 28.0656 15.7181 27.7823C15.3382 27.499 15.0724 27.0457 14.8445 26.6491L14.8255 26.6113C14.1228 25.4215 13.0214 24.8171 11.692 24.8926C10.3437 24.9682 9.2422 25.1759 8.36863 25.5726C6.83037 26.2336 5.61496 26.0825 4.41854 25.0437C3.96277 24.666 3.488 24.3638 3.03222 24.1938C2.76635 24.0994 2.46249 24.1183 2.15864 24.2505C1.81681 24.4016 1.55094 24.7038 1.45598 25.0249C1.24708 25.6481 1.56993 26.3469 2.15864 26.5924C2.80433 26.8569 3.45001 26.5547 3.73488 25.8559C3.63992 25.9125 3.54497 26.007 3.45001 26.0825C3.14616 26.328 2.84231 26.5736 2.53846 26.5169C2.12066 26.4413 1.58892 25.8559 1.53195 25.4026C1.51296 25.2704 1.56993 25.1004 1.72185 24.9304C1.93075 24.666 2.31057 24.4016 2.59543 24.3827C2.91827 24.3638 3.20313 24.6093 3.488 24.836C3.60194 24.9304 3.69689 25.006 3.81084 25.0815L3.90579 25.1382V25.5159C3.90579 25.497 3.92478 25.4781 3.92478 25.4781C3.94377 25.4215 3.96277 25.3648 3.98176 25.3082L4.05772 25.1004L6.7734 26.4414L6.05175 27.8767C6.08973 27.8201 6.12771 27.7445 6.1657 27.6879C7.13423 25.9881 8.80541 25.1382 10.5336 25.4404C12.0908 25.7237 13.3442 27.159 13.6291 29.0288C13.743 29.7843 13.762 30.7097 12.8315 31.2952C11.9959 31.8241 10.7615 31.7674 10.0208 31.1441L9.92587 31.0686C9.62202 30.8231 9.28018 30.5398 9.28018 30.1431C9.28018 29.8787 9.43211 29.6143 9.75495 29.3499C9.79293 29.2932 9.75495 28.9344 9.66 28.8022C9.58403 28.7644 9.43211 28.7455 9.29917 28.7455ZM2.61442 24.7415C2.36754 24.7604 1.91176 25.1948 1.89277 25.3459C1.93075 25.6481 2.32956 26.0825 2.59543 26.1392C2.72837 26.158 2.97525 25.9503 3.18414 25.7803C3.2791 25.7048 3.37405 25.6292 3.46901 25.5537V25.3082C3.37405 25.2515 3.29809 25.1759 3.20313 25.1004C3.01323 24.9304 2.78534 24.7415 2.61442 24.7415ZM16.0219 28.5755L15.5851 28.5C14.3507 28.2734 13.5911 27.499 12.8504 26.7435C12.3567 26.2336 11.9009 25.7614 11.2932 25.4592L10.7615 25.1948L11.3502 25.1193C13.5151 24.8171 14.4647 26.2525 15.3762 27.6501C15.5092 27.839 15.6231 28.0278 15.756 28.2167L16.0219 28.5755ZM11.9959 25.4404C12.4137 25.7425 12.7745 26.1203 13.1353 26.4791C13.743 27.1213 14.3317 27.7256 15.1863 28.0089C15.1483 27.9523 15.1104 27.8956 15.0724 27.839C14.2558 26.5736 13.5151 25.4592 11.9959 25.4404Z"
                fill="#CECECE" />
        </g>
        <g id="Group_3">
            <path id="Vector_5"
                d="M19.1744 31.4463C20.9025 32.9761 20.5797 31.0875 18.6806 32.1451C18.5287 32.2207 18.2438 37.8678 18.1109 37.7734C16.2498 36.5835 15.9649 33.0895 17.6741 31.4274C17.902 31.7107 18.1299 31.9751 18.4148 32.2962C18.6616 32.0129 18.9275 31.7296 19.1744 31.4463ZM17.6171 32.2584C16.5347 34.0149 16.8955 36.168 18.4337 37.339C19.972 36.0924 20.3138 33.9394 19.1934 32.2207C18.6996 33.0706 18.1489 32.9761 17.6171 32.2584Z"
                fill="#CECECE" />
            <path id="Vector_6"
                d="M18.0919 38L17.9969 37.9433C17.1234 37.3767 16.5157 36.2624 16.3637 34.9592C16.2118 33.5239 16.6486 32.1451 17.5222 31.2952L17.6741 31.1441L18.3957 32.0129L19.1554 31.1819L19.2883 31.3141C19.4402 31.4463 19.5732 31.5596 19.6681 31.6352C20.0479 31.6163 20.3138 31.7296 20.4278 31.8807C20.5037 31.994 20.5037 32.1262 20.4088 32.2207C20.2568 32.3529 19.972 32.2962 19.5732 32.0318C19.4972 32.0507 19.4022 32.0696 19.3263 32.0885L19.3453 32.1262C20.5227 33.9205 20.1809 36.168 18.5477 37.4901L18.4337 37.5845L18.3578 37.5278C18.3008 37.9056 18.2628 37.9245 18.1868 37.9622L18.0919 38ZM17.6551 31.7107C16.9524 32.4851 16.6296 33.6749 16.7625 34.9215C16.8765 35.998 17.3323 36.9235 17.9969 37.4712C17.9969 37.3956 18.0159 37.3201 18.0159 37.2256C16.6296 35.9414 16.3827 33.8827 17.4462 32.164L17.5981 31.9185L17.769 32.1451C17.94 32.3718 18.1678 32.6173 18.4147 32.6362C18.4147 32.6173 18.4147 32.5984 18.4147 32.5795L18.3957 32.5984L17.6551 31.7107ZM18.4147 37.0746C19.7441 35.9414 20.0289 34.1093 19.1744 32.5606C19.0414 32.7306 18.8895 32.8628 18.7376 32.9384C18.6806 33.4861 18.6236 34.2793 18.5667 34.9592C18.5097 35.9791 18.4527 36.6402 18.4147 37.0746ZM17.6361 32.5984C16.8765 34.0149 17.0474 35.6392 18.0539 36.7535C18.1109 36.2247 18.1489 35.5447 18.2058 34.9404C18.2818 34.0527 18.3198 33.4483 18.3578 33.0328C18.1299 32.995 17.883 32.8439 17.6361 32.5984ZM18.8325 32.2773C18.8325 32.3151 18.8135 32.3529 18.8135 32.4095C18.8705 32.3529 18.9085 32.2773 18.9655 32.2207C18.9275 32.2396 18.8705 32.2584 18.8325 32.2773Z"
                fill="#CECECE" />
        </g>
        <g id="Group_4">
            <path id="Vector_7"
                d="M19.9152 30.3887C20.39 30.6909 20.9407 30.9364 21.3585 31.333C21.9092 31.8618 22.346 32.4662 23.2576 32.2396C23.4285 32.2018 23.8083 32.4851 23.8463 32.674C23.9033 32.8628 23.7134 33.2028 23.5235 33.3539C22.9347 33.826 22.1181 33.6183 21.5484 32.9195C20.9597 32.1829 20.39 31.4274 19.8013 30.672C19.8582 30.5586 19.8962 30.4642 19.9152 30.3887Z"
                fill="#CECECE" />
            <path id="Vector_8"
                d="M22.8207 33.7694C22.327 33.7694 21.8142 33.505 21.4154 33.0139C20.9976 32.4851 20.5798 31.9563 20.181 31.4463C20.0101 31.2197 19.8392 30.993 19.6493 30.7664L19.5923 30.6909L19.8012 30.1054L20.0101 30.2376C20.162 30.332 20.3139 30.4264 20.4659 30.502C20.8267 30.7097 21.1875 30.9175 21.4724 31.2008C21.5483 31.2763 21.6243 31.3519 21.6813 31.4086C22.137 31.8618 22.4979 32.2207 23.2005 32.0507C23.4854 31.9752 23.9602 32.3529 24.0361 32.6173C24.1121 32.9195 23.8652 33.3161 23.6563 33.4861C23.4094 33.675 23.1246 33.7694 22.8207 33.7694ZM20.124 30.7286C20.257 30.8986 20.3709 31.0686 20.5038 31.2197C20.9026 31.7296 21.3204 32.2773 21.7193 32.7873C22.232 33.4105 22.9157 33.5805 23.4284 33.1839C23.5803 33.0706 23.6943 32.7873 23.6753 32.7117C23.6563 32.5984 23.3904 32.4095 23.2955 32.4095C22.4029 32.6362 21.9092 32.1451 21.4344 31.6541C21.3584 31.5785 21.3015 31.5219 21.2255 31.4463C20.9596 31.2008 20.6368 31.0119 20.2949 30.8042C20.238 30.7853 20.181 30.7475 20.124 30.7286Z"
                fill="#CECECE" />
        </g>
        <g id="Group_5">
            <path id="Vector_9"
                d="M17.161 30.5775C16.5153 31.3897 15.9646 32.1074 15.4138 32.8251C14.8061 33.5994 14.1225 33.826 13.4578 33.3917C13.2489 33.2594 13.059 32.9006 13.078 32.6551C13.078 32.504 13.5148 32.1829 13.6857 32.2396C14.6352 32.4851 15.072 31.8429 15.5848 31.2952C16.0026 30.8231 16.4583 30.3887 17.161 30.5775Z"
                fill="#CECECE" />
            <path id="Vector_10"
                d="M14.1227 33.7883C13.8568 33.7883 13.5909 33.7127 13.344 33.5427C13.0782 33.3539 12.8503 32.9573 12.8693 32.6362C12.8693 32.4662 13.0402 32.3151 13.1731 32.2207C13.2681 32.1451 13.515 31.994 13.7239 32.0507C14.4645 32.2396 14.8253 31.8241 15.2621 31.333C15.3191 31.2763 15.3761 31.2197 15.433 31.1441C15.7939 30.7475 16.3446 30.162 17.1992 30.3887L17.484 30.4642L16.7054 31.4652C16.3066 31.9752 15.9458 32.4473 15.566 32.9195C15.1102 33.4861 14.6164 33.7883 14.1227 33.7883ZM13.2491 32.674C13.2491 32.8439 13.401 33.1272 13.5529 33.2217C14.2556 33.6938 14.8633 33.1839 15.2621 32.6928C15.6229 32.2207 16.0027 31.7485 16.4016 31.2386L16.8004 30.7097C16.3826 30.7286 16.0597 31.0119 15.6989 31.3897C15.6419 31.4463 15.585 31.503 15.547 31.5596C15.0912 32.0696 14.5784 32.6362 13.6289 32.3907C13.5529 32.4095 13.3061 32.5795 13.2491 32.674Z"
                fill="#CECECE" />
        </g>
        <g id="Group_6">
            <path id="Vector_11"
                d="M12.4135 14.2594C12.3185 14.5616 12.2615 14.8827 12.1286 15.166C11.1601 17.1302 8.52034 18.339 6.43136 17.6591C5.82365 17.4513 5.27292 16.9414 4.77916 16.4881C4.4943 16.2237 4.39934 15.7515 4.13347 15.4682C3.77265 15.0905 3.31687 14.8072 2.89907 14.4672C2.69017 14.8638 2.46228 15.2793 2.2154 15.7326C1.74064 15.506 1.87357 15.0338 2.06348 14.5805C2.48128 13.5984 3.39283 13.504 5.40585 14.2028C5.40585 13.5418 5.3109 12.8807 5.42485 12.2575C5.74769 10.6143 7.60878 10.0288 8.88117 11.1243C8.93814 11.162 8.97612 11.2187 9.0141 11.2565C10.4574 12.6352 11.5589 12.9752 12.6793 12.3708C13.8567 11.7475 14.8063 9.6511 14.5784 8.19682C14.4455 7.36581 13.9517 6.87475 13.1351 6.79921C12.3565 6.72366 11.6918 7.02585 11.369 7.78132C11.274 7.98907 11.4639 8.31014 11.5019 8.57456C11.5399 8.87674 11.5968 9.19782 11.5209 9.48112C11.5019 9.57555 10.9322 9.68887 10.8942 9.61332C10.7423 9.34891 10.6283 9.02784 10.6093 8.72565C10.6093 8.42346 10.7233 8.12128 10.7992 7.81909C11.0651 6.87476 11.9957 6.27038 13.0591 6.30815C14.1036 6.34593 14.8443 6.96919 14.9772 8.02684C15.0532 8.61233 14.9962 9.2167 14.9962 9.87774C16.0787 9.46223 17.2181 8.85786 18.1487 10.0477C18.3955 10.3688 18.3196 10.9543 18.3955 11.4076C18.2816 11.4453 18.1487 11.4831 18.0347 11.5209C17.9967 11.4453 17.9588 11.3509 17.9398 11.2754C17.8068 10.8976 17.6549 10.5199 17.522 10.1422C17.1232 10.4066 16.6104 10.5765 16.3635 10.9354C14.4075 13.8439 13.1161 14.2028 9.69777 12.6163C9.75474 12.8618 9.8497 13.0507 9.81171 13.2207C9.75474 13.4662 9.65979 13.7684 9.46988 13.9195C9.33694 14.0139 8.91915 13.9384 8.82419 13.8062C8.69126 13.6173 8.63429 13.2585 8.72924 13.0507C9.12805 12.0875 8.95713 11.5775 8.00759 11.1998C7.11502 10.841 6.1465 11.2754 5.86163 12.163C5.42485 13.5606 6.35539 15.9215 7.62778 16.6581C8.8052 17.338 10.3055 16.9225 11.274 15.6004C11.5968 15.166 11.8437 14.6561 12.1096 14.1839C12.2235 14.2028 12.3185 14.2406 12.4135 14.2594ZM4.09549 14.3539C4.93109 15.6759 5.32989 17.508 7.7797 17.2813C6.16549 16.507 5.7287 14.7505 4.09549 14.3539ZM12.8882 12.9185C14.5784 13.2773 15.395 11.9742 16.2496 10.0099C16.1926 9.95328 16.1356 9.89662 16.0787 9.82108C15.0152 10.841 13.9517 11.8608 12.8882 12.9185Z"
                fill="#CECECE" />
            <path id="Vector_12"
                d="M7.64683 18.0368C7.21004 18.0368 6.77325 17.9801 6.35545 17.8479C5.74775 17.659 5.21601 17.168 4.74124 16.7336L4.62729 16.6392C4.45637 16.4692 4.34243 16.2614 4.24748 16.0537C4.17151 15.8837 4.07656 15.7137 3.96261 15.6004C3.71573 15.3549 3.43087 15.1471 3.12702 14.9205C3.05106 14.8638 2.99408 14.826 2.91812 14.7694L2.25344 15.997L2.08253 15.9215C1.37987 15.5815 1.7217 14.8072 1.83565 14.5239C2.3484 13.334 3.52583 13.4095 5.15903 13.9573C5.15903 13.8439 5.14004 13.7306 5.14004 13.6173C5.12105 13.164 5.10206 12.6919 5.17802 12.2386C5.34894 11.4264 5.88068 10.7843 6.64031 10.5199C7.41894 10.2555 8.29251 10.4254 8.95719 10.992C8.99517 11.0298 9.03315 11.0676 9.07113 11.1054L9.10912 11.1431C10.4954 12.4652 11.5209 12.7863 12.5464 12.2197C13.6479 11.6342 14.5595 9.61332 14.3506 8.23459C14.2366 7.49801 13.7998 7.06362 13.0782 7.00696C12.3186 6.93141 11.7678 7.25249 11.502 7.87575C11.464 7.95129 11.5209 8.10239 11.5589 8.23459C11.5969 8.34791 11.6349 8.46123 11.6349 8.57455C11.6349 8.63121 11.6539 8.66899 11.6539 8.72565C11.6919 9.00895 11.7298 9.29225 11.6539 9.55666C11.6349 9.61332 11.5969 9.76441 11.0842 9.83996C10.9132 9.85885 10.7613 9.85885 10.6853 9.74553C10.4954 9.42445 10.4005 9.08449 10.3815 8.76342C10.3815 8.48012 10.4575 8.21571 10.5334 7.95129C10.5524 7.89463 10.5714 7.83797 10.5904 7.78131C10.8753 6.76143 11.8818 6.08151 13.0402 6.13817C14.2176 6.17595 14.9963 6.89364 15.1482 8.02684C15.2052 8.44235 15.1862 8.85785 15.1672 9.29225C15.1672 9.40557 15.1672 9.51889 15.1672 9.63221C15.1862 9.63221 15.1862 9.63221 15.2052 9.61332C16.2117 9.2167 17.3511 8.76342 18.2817 9.95328C18.4906 10.2177 18.5096 10.5954 18.5285 10.9732C18.5285 11.1243 18.5475 11.2753 18.5665 11.4076L18.5855 11.5586L17.9018 11.7853L17.8069 11.5398C17.7879 11.4831 17.7499 11.4264 17.7309 11.3509C17.636 11.0676 17.522 10.8032 17.4271 10.5199L17.3891 10.4254C17.3131 10.4632 17.2562 10.501 17.1802 10.5388C16.8953 10.6899 16.6295 10.841 16.4965 11.0298C14.5785 13.9573 13.1921 14.3917 9.98269 12.9751C10.0017 13.0885 10.0207 13.1829 10.0017 13.2773C9.94471 13.5418 9.83076 13.9006 9.60288 14.0895C9.46994 14.1839 9.24205 14.1839 9.12811 14.1461C9.01416 14.1272 8.78627 14.0706 8.69132 13.9195C8.5204 13.6551 8.46343 13.2396 8.57737 12.9751C8.76728 12.5219 8.80526 12.2008 8.71031 11.9553C8.61535 11.7286 8.36847 11.5398 7.95068 11.3698C7.55187 11.2187 7.13407 11.2187 6.77325 11.3887C6.43142 11.5586 6.16554 11.8419 6.0516 12.2197C5.6338 13.5417 6.52637 15.8082 7.72279 16.4881C8.82425 17.1113 10.2296 16.6958 11.1221 15.4871C11.331 15.1849 11.5209 14.8638 11.6919 14.5427C11.7678 14.3917 11.8628 14.2406 11.9387 14.0895L12.0147 13.9573L12.6224 14.165L12.5654 14.335C12.5275 14.4294 12.5085 14.5239 12.4895 14.6183C12.4325 14.8449 12.3755 15.0527 12.2616 15.2793C11.464 16.9414 9.50792 18.0368 7.64683 18.0368ZM2.82317 14.1839L2.99408 14.3161C3.12702 14.4105 3.24097 14.505 3.3739 14.5994C3.67775 14.826 3.98161 15.0527 4.24748 15.3171C4.3994 15.4682 4.49436 15.6759 4.58931 15.8648C4.68426 16.0537 4.76023 16.2237 4.89316 16.337L5.00711 16.4314C5.46289 16.8469 5.95665 17.3002 6.48839 17.4702C8.46343 18.1123 11.0272 16.998 11.9577 15.0716C12.0337 14.9016 12.0907 14.7127 12.1476 14.5239C12.1097 14.5805 12.0907 14.6372 12.0527 14.6938C11.8628 15.0338 11.6919 15.3738 11.445 15.6759C10.4385 17.0547 8.82425 17.5268 7.55187 16.7903C6.20353 16.0348 5.235 13.5606 5.70977 12.0875C5.86169 11.6153 6.18454 11.2376 6.62132 11.0298C7.0771 10.8221 7.60884 10.8032 8.1026 11.0109C8.61536 11.2187 8.9382 11.4831 9.07113 11.8042C9.20407 12.1441 9.16609 12.5596 8.9382 13.1074C8.88123 13.2585 8.91921 13.5418 9.01416 13.6928C9.07113 13.7495 9.31801 13.7873 9.39398 13.7495C9.48893 13.674 9.58388 13.4851 9.64086 13.164C9.65985 13.1074 9.62187 12.994 9.58388 12.8807C9.56489 12.8052 9.5459 12.7296 9.52691 12.6352L9.45095 12.2575L9.79278 12.4274C11.9008 13.4473 13.1542 13.6928 14.2936 12.9751C13.8758 13.164 13.401 13.2207 12.8503 13.1074L12.5085 13.0318L15.8129 9.82107C15.6799 9.87773 15.528 9.93439 15.3761 9.99105C15.2811 10.0288 15.1862 10.0666 15.0722 10.1044L14.8063 10.1988V9.91551C14.8063 9.70775 14.8063 9.5 14.8253 9.29225C14.8443 8.87674 14.8443 8.48012 14.8063 8.0835C14.6734 7.13917 14.0467 6.55368 13.0592 6.51591C12.0907 6.47813 11.2361 7.04473 10.9892 7.89463C10.9702 7.95129 10.9512 8.00795 10.9322 8.06461C10.8563 8.31014 10.7993 8.53678 10.7993 8.74453C10.7993 8.97117 10.8753 9.23559 11.0082 9.46223C11.1031 9.46223 11.2551 9.42445 11.331 9.38668C11.369 9.19781 11.331 8.97117 11.312 8.76342C11.312 8.70676 11.2931 8.6501 11.2931 8.61233C11.2741 8.53678 11.2551 8.44235 11.2171 8.32903C11.1601 8.12127 11.0842 7.91352 11.1791 7.70577C11.502 6.91253 12.2236 6.51591 13.1352 6.61034C14.0277 6.68589 14.5975 7.25249 14.7494 8.15905C14.9773 9.68887 13.9897 11.8608 12.7553 12.5219C11.5399 13.164 10.3815 12.8241 8.86224 11.3887L8.82425 11.3509C8.78627 11.3131 8.76728 11.2942 8.7293 11.2565C8.15958 10.7654 7.43793 10.6143 6.77325 10.841C6.14655 11.0676 5.70977 11.5775 5.57683 12.2763C5.50087 12.6918 5.51986 13.1074 5.53885 13.5606C5.55784 13.7684 5.55784 13.9761 5.55784 14.1839V14.4483L5.31096 14.3539C3.14601 13.5984 2.53831 13.8817 2.21546 14.6372C2.02556 15.0905 2.02556 15.2982 2.12051 15.4304L2.82317 14.1839ZM13.2871 12.7863C14.4645 12.8618 15.1482 11.9553 15.9458 10.1988L13.2871 12.7863ZM16.1927 9.66998L16.4585 9.95328L16.4016 10.0666C16.1357 10.6899 15.8508 11.2753 15.528 11.7664C15.7369 11.502 15.9648 11.1809 16.1927 10.841C16.3826 10.5577 16.7054 10.3877 17.0093 10.2177C17.1422 10.1421 17.2752 10.0666 17.3891 9.99105L17.598 9.85885L17.7879 10.3877C17.8829 10.671 17.9968 10.9354 18.0918 11.2187C18.1107 11.2376 18.1107 11.2753 18.1297 11.2942L18.1677 11.2753C18.1487 11.162 18.1487 11.0676 18.1487 10.9543C18.1297 10.6521 18.1297 10.331 17.9778 10.161C17.4651 9.5 16.8574 9.48111 16.1927 9.66998ZM7.38095 17.4891C5.57683 17.4891 4.93114 16.2803 4.36142 15.2038C4.22849 14.9394 4.09555 14.6938 3.94362 14.4672L3.69674 14.0706L4.15252 14.1839C5.08307 14.4105 5.65279 15.0716 6.20353 15.6948C6.6783 16.2237 7.15306 16.7714 7.85572 17.1113L8.48242 17.4135L7.79875 17.4702C7.66582 17.4702 7.51389 17.4891 7.38095 17.4891ZM4.53234 14.6938C4.58931 14.8072 4.64628 14.9016 4.70325 14.996C5.235 16.0159 5.74775 16.9602 7.11508 17.0736C6.64031 16.7336 6.27949 16.3181 5.91866 15.9026C5.50087 15.4493 5.08307 14.9771 4.53234 14.6938Z"
                fill="#CECECE" />
        </g>
        <g id="Group_7">
            <path id="Vector_13"
                d="M24.8902 14.0706C25.0991 14.4483 25.232 14.7316 25.3839 15.0149C26.0486 16.1859 26.9412 17.0169 28.3845 16.9414C29.7518 16.8658 30.4545 15.9215 30.8533 14.7883C31.1002 14.0706 31.2331 13.2585 31.2141 12.503C31.2141 11.6909 30.6444 11.1809 29.8088 11.1054C28.9542 11.0298 28.3465 11.4453 28.0047 12.2008C27.9287 12.3708 28.0806 12.6163 28.1186 12.8429C28.1566 13.164 28.2325 13.504 28.1946 13.8251C28.1946 13.9006 27.6248 14.0328 27.5679 13.9573C27.397 13.7117 27.34 13.3907 27.245 13.0885C27.226 12.994 27.264 12.8618 27.264 12.8618C26.2385 13.1074 25.251 13.4284 24.2445 13.5229C22.9151 13.6551 21.8706 13.0507 21.206 11.8608C20.9781 11.4453 20.7692 11.0109 20.4463 10.671C20.2184 10.4254 19.8196 10.3499 19.5158 10.1799C19.3828 10.4632 19.2309 10.7465 19.117 11.0298C19.06 11.162 19.079 11.3131 19.041 11.5964C18.3763 11.1054 18.5093 10.5577 18.8131 10.161C19.7627 8.87674 20.9211 9.48111 22.0226 9.9344C22.0226 9.29225 21.9656 8.68787 22.0416 8.12127C22.1745 7.08251 22.8582 6.44036 23.8267 6.34593C24.9471 6.25149 25.8777 6.79921 26.2195 7.8002C26.3335 8.15905 26.4854 8.51789 26.4854 8.87674C26.4854 9.14115 26.3335 9.44334 26.1436 9.65109C26.0676 9.72664 25.6308 9.65109 25.5738 9.55666C25.4599 9.31113 25.3649 8.95229 25.4789 8.70676C25.8397 7.87575 25.7258 7.40358 24.9661 6.98807C24.1495 6.55368 23.124 6.79921 22.7062 7.53579C21.8327 9.04672 23.257 12.2386 24.9851 12.5785C26.0676 12.8052 26.9792 12.4086 27.7198 11.6342C28.7263 10.5765 29.5429 10.331 30.5494 10.7843C31.423 11.162 31.8028 11.9742 31.7269 13.334C31.7079 13.6173 31.6889 13.8817 31.6699 14.2406C32.7713 13.7684 33.8918 13.2018 34.8223 14.3161C35.1072 14.6372 35.0312 15.2604 35.1262 15.7326C35.0123 15.7515 34.8983 15.7704 34.7844 15.8082C34.7274 15.7137 34.6704 15.6193 34.6324 15.5249C34.4995 15.1849 34.3666 14.826 34.2526 14.4861C33.8918 14.6938 33.474 14.826 33.1891 15.1093C32.9043 15.3926 32.7524 15.7893 32.5435 16.1481C31.6319 17.659 30.3595 18.1312 28.3845 17.7157C26.5044 17.3191 24.8712 15.8648 24.7003 14.4483C24.6813 14.3728 24.7762 14.2972 24.8902 14.0706ZM33.1701 14.1839C31.347 14.7694 30.8913 16.507 29.5619 17.2247C31.7458 17.4702 32.1446 15.6759 33.1701 14.1839ZM21.035 9.82108C20.9401 9.91551 20.8451 9.99106 20.7502 10.0855C21.6427 11.3131 22.0036 13.1451 24.2635 12.9752C23.124 11.8608 22.0795 10.841 21.035 9.82108Z"
                fill="#CECECE" />
            <path id="Vector_14"
                d="M29.6571 18.0557C29.2583 18.0557 28.8215 17.999 28.3467 17.9046C26.3717 17.4891 24.7005 15.9781 24.5106 14.4861C24.4916 14.3728 24.5486 14.2972 24.6245 14.1839C24.6625 14.1272 24.7005 14.0706 24.7385 13.995L24.9094 13.6928L25.0803 14.0139C25.1563 14.1461 25.2132 14.2594 25.2702 14.3728C25.3842 14.5805 25.4791 14.7694 25.5741 14.9583C26.3147 16.2803 27.2073 16.8469 28.4037 16.7903C29.5052 16.7336 30.2458 16.0726 30.7016 14.7505C30.9485 14.0706 31.0624 13.2962 31.0624 12.5219C31.0624 11.8419 30.5876 11.3887 29.828 11.3131C29.0874 11.2376 28.5366 11.5775 28.2138 12.2952C28.1948 12.333 28.2328 12.4652 28.2708 12.5596C28.2897 12.6541 28.3277 12.7296 28.3467 12.8241C28.3467 12.8807 28.3657 12.9563 28.3847 13.0129C28.4227 13.2962 28.4797 13.5795 28.4417 13.8628C28.4227 14.0139 28.2708 14.0706 28.0429 14.1272C27.6441 14.2217 27.5301 14.1461 27.4731 14.0706C27.3212 13.8251 27.2453 13.5606 27.1693 13.2773L27.1313 13.1451C27.1313 13.1262 27.1313 13.1262 27.1313 13.1074C26.9034 13.164 26.6565 13.2207 26.4476 13.2773C25.764 13.4662 25.0423 13.6362 24.3397 13.7117C22.9343 13.8439 21.8329 13.2396 21.1112 11.9553C21.0732 11.8797 21.0353 11.8042 20.9973 11.7286C20.8264 11.4076 20.6365 11.0676 20.3896 10.8032C20.2566 10.671 20.0477 10.5765 19.8388 10.501C19.7819 10.4821 19.7439 10.4632 19.6869 10.4443C19.6679 10.4632 19.6679 10.501 19.6489 10.5199C19.554 10.7087 19.459 10.9165 19.3641 11.1243C19.3451 11.1809 19.3261 11.2565 19.3261 11.3698C19.3261 11.4453 19.3071 11.5209 19.3071 11.6342L19.2691 11.9553L19.0033 11.7664C18.3766 11.2942 18.2816 10.671 18.7374 10.0666C19.6869 8.78231 20.8643 9.23559 21.9088 9.66998C21.9088 9.57555 21.9088 9.46223 21.9088 9.36779C21.8899 8.9334 21.8899 8.51789 21.9278 8.12127C22.0608 7.00696 22.8014 6.28927 23.8839 6.19483C25.0993 6.08151 26.1058 6.70477 26.4666 7.78131L26.5046 7.91352C26.6186 8.23459 26.7325 8.57455 26.7325 8.9334C26.7325 9.34891 26.4476 9.72664 26.3527 9.83996C26.3337 9.87773 26.2387 9.97217 25.9159 9.9344C25.745 9.91551 25.5361 9.85885 25.4601 9.70776C25.4031 9.55666 25.1942 9.06561 25.3652 8.70676C25.688 7.95129 25.5931 7.57356 24.9284 7.2336C24.1877 6.85587 23.2952 7.06362 22.9343 7.70577C22.5545 8.34791 22.6305 9.46223 23.1243 10.5199C23.599 11.5775 24.3587 12.3141 25.0803 12.4652C26.0488 12.6541 26.8844 12.3708 27.6441 11.5775C28.7075 10.4632 29.6001 10.1988 30.7016 10.6899C31.6701 11.1054 32.0689 11.9742 31.9929 13.4284C31.974 13.6173 31.974 13.8062 31.955 14.0139V14.0328C32.9615 13.5984 34.1009 13.164 35.0505 14.2783C35.2783 14.5427 35.3163 14.9394 35.3353 15.3171C35.3543 15.4871 35.3543 15.6382 35.3923 15.7704L35.4303 15.9592L34.7656 16.0915L34.6896 15.9781C34.6706 15.9592 34.6517 15.9215 34.6327 15.9026C34.5947 15.827 34.5377 15.7515 34.5187 15.6759C34.4238 15.4304 34.3288 15.166 34.2339 14.9205L34.1959 14.826C34.1389 14.8449 34.1009 14.8827 34.0439 14.9016C33.7971 15.0338 33.5502 15.1471 33.3793 15.3171C33.2084 15.4871 33.0754 15.7137 32.9615 15.9592C32.9045 16.0726 32.8475 16.1859 32.7716 16.2992C31.974 17.4702 31.0054 18.0557 29.6571 18.0557ZM24.8904 14.4672C25.0803 15.7704 26.6565 17.1302 28.4227 17.508C30.3407 17.9235 31.5182 17.4702 32.3918 16.0348C32.4487 15.9215 32.5057 15.827 32.5627 15.7137C32.6956 15.4493 32.8475 15.1849 33.0564 14.9583C33.2843 14.7505 33.5502 14.5994 33.8161 14.4672C33.93 14.4105 34.0439 14.3539 34.1389 14.2972L34.3288 14.1839L34.5187 14.675C34.6137 14.9205 34.7086 15.1849 34.8036 15.4304C34.8226 15.4682 34.8416 15.5249 34.8795 15.5626H34.9175C34.8985 15.4493 34.8985 15.3549 34.8795 15.2416C34.8605 14.9205 34.8226 14.5805 34.6706 14.4105C34.3288 14.0139 33.968 13.8628 33.5882 13.8439L33.3033 14.2594C33.0944 14.5805 32.9045 14.9016 32.7146 15.2227C32.0119 16.4503 31.3473 17.6024 29.5052 17.3946L28.8974 17.3191L29.4292 17.0358C29.9799 16.7525 30.3597 16.2803 30.7775 15.7704C31.3662 15.0527 31.974 14.335 33.0754 13.9761L33.4552 13.8628C32.9805 13.8817 32.4677 14.0895 31.898 14.335L31.4232 14.5427L31.4612 13.9006C31.4802 13.6928 31.4802 13.504 31.4992 13.3151C31.5751 12.0308 31.2523 11.2942 30.4357 10.9354C29.4862 10.5199 28.7645 10.7276 27.815 11.7475C26.9794 12.6352 25.9919 12.9752 24.9094 12.7485C24.0738 12.5785 23.2192 11.7475 22.6875 10.5954C22.1367 9.40557 22.0798 8.19682 22.5165 7.42247C22.9913 6.61034 24.1118 6.32704 25.0233 6.79921C25.8589 7.2336 26.0298 7.81909 25.631 8.74453C25.5741 8.87674 25.612 9.14115 25.726 9.40557C25.783 9.44334 25.9349 9.46223 26.0108 9.46223C26.1818 9.25447 26.2767 9.00895 26.2767 8.83897C26.2767 8.55567 26.1628 8.23459 26.0678 7.95129L26.0298 7.81909C25.726 6.91253 24.8904 6.40259 23.8459 6.49702C22.9343 6.57257 22.3456 7.15805 22.2317 8.10239C22.1747 8.48012 22.1937 8.87674 22.2127 9.29225C22.2127 9.48112 22.2317 9.68887 22.2317 9.89662V10.1799L21.7759 9.99106C21.605 9.91551 21.4531 9.85885 21.2821 9.7833L24.6625 13.1074L24.2447 13.1451C22.3646 13.2773 21.6999 12.0875 21.1112 11.0487C20.9403 10.7465 20.7694 10.4443 20.5795 10.1799L20.4845 10.0477L20.9023 9.66998C20.1997 9.46223 19.554 9.48111 18.9843 10.2555C18.7374 10.5954 18.7184 10.8976 18.9083 11.1809C18.9273 11.1054 18.9273 11.0298 18.9653 10.9543C19.0602 10.7465 19.1552 10.5388 19.2501 10.331C19.2881 10.2555 19.3261 10.161 19.3641 10.0855L19.44 9.91551L19.611 9.99106C19.7059 10.0288 19.8009 10.0666 19.8958 10.1233C20.1427 10.2177 20.4086 10.331 20.5985 10.5199C20.8833 10.8221 21.0732 11.1809 21.2632 11.5209C21.3011 11.5964 21.3391 11.672 21.3771 11.7475C22.0038 12.8996 23.0103 13.4473 24.2447 13.3151C24.9284 13.2585 25.5931 13.0696 26.2957 12.8807C26.5996 12.8052 26.9224 12.7107 27.2452 12.6352L27.4921 12.5785L27.4541 12.8807C27.4541 12.8996 27.4352 12.9752 27.4352 13.0129L27.4731 13.1451C27.5301 13.3529 27.5871 13.5795 27.682 13.7495C27.758 13.7495 27.9099 13.7117 28.0049 13.674C28.0049 13.4662 27.9859 13.2396 27.9479 13.0129C27.9289 12.9563 27.9289 12.8807 27.9099 12.8241C27.9099 12.7674 27.8719 12.6919 27.853 12.6163C27.796 12.4463 27.739 12.2575 27.815 12.0875C28.1948 11.2187 28.8974 10.7843 29.809 10.8787C30.7775 10.9732 31.3852 11.5775 31.3852 12.4652C31.3852 13.2773 31.2713 14.0895 31.0054 14.826C30.4927 16.2803 29.6001 17.0547 28.3657 17.1113C27.0364 17.1869 25.9919 16.5258 25.1942 15.0905C25.0803 14.9016 24.9853 14.7127 24.8714 14.4861C24.9094 14.505 24.9094 14.4861 24.8904 14.4672ZM32.6956 14.5994C32.0119 14.9583 31.5562 15.506 31.1194 16.0537C30.8155 16.4125 30.5117 16.7714 30.1508 17.0736C31.3283 16.998 31.822 16.1292 32.4107 15.0716C32.5057 14.9016 32.6006 14.7505 32.6956 14.5994ZM20.9973 10.1233C21.1682 10.3688 21.3201 10.6332 21.4531 10.8787C21.9848 11.8231 22.4976 12.7296 23.7889 12.8052L21.0163 10.0855L20.9973 10.1233Z"
                fill="#CECECE" />
        </g>
        <g id="Group_8">
            <path id="Vector_15"
                d="M18.5289 0.226639C20.6939 1.64314 21.1117 4.91054 19.2696 6.78032C19.0227 6.45924 18.7758 6.15706 18.5099 5.8171C18.2631 6.15706 18.0352 6.44036 17.8263 6.72366C16.1551 5.666 16.0601 1.60537 18.5289 0.226639ZM18.491 0.812126C16.9527 2.11531 16.6109 4.2495 17.7313 5.91153C18.2441 5.0994 18.8138 5.13718 19.3076 5.9493C20.409 4.13618 20.0292 2.00199 18.491 0.812126Z"
                fill="#CECECE" />
            <path id="Vector_16"
                d="M19.2505 7.04473L18.5099 6.1004L17.8642 6.9503L17.7123 6.87475C16.8957 6.36481 16.3829 5.11829 16.4209 3.73956C16.4589 2.11531 17.2185 0.736581 18.415 0.05666L18.5289 0L18.6239 0.05666C19.7253 0.774354 20.447 1.9831 20.5799 3.34294C20.7318 4.6839 20.295 5.96819 19.3835 6.87475L19.2505 7.04473ZM18.5099 5.51491L19.2695 6.47813C19.9912 5.666 20.333 4.55169 20.2001 3.3996C20.0671 2.17197 19.4594 1.11431 18.5099 0.45328C17.4844 1.07654 16.8387 2.30418 16.8007 3.75845C16.7628 4.92942 17.1426 5.96819 17.7693 6.45925L18.4719 5.51491C18.244 5.5338 18.0161 5.79821 17.8832 6.02485L17.7313 6.27038L17.5794 6.02485C16.4209 4.28728 16.7628 2.03976 18.377 0.67992L18.4909 0.5666L18.6049 0.661034C20.2381 1.90755 20.5989 4.17396 19.4594 6.06262L19.2885 6.32704L19.1176 6.06262C19.0037 5.8171 18.7758 5.5338 18.5099 5.51491ZM18.5099 5.13718C18.7948 5.13718 19.0606 5.28827 19.2885 5.59046C20.1241 3.9662 19.8203 2.15308 18.4909 1.05765C17.1995 2.24751 16.8957 4.07952 17.7313 5.57157C17.9782 5.28827 18.244 5.13718 18.5099 5.13718Z"
                fill="#CECECE" />
        </g>
        <g id="Group_9">
            <path id="Vector_17"
                d="M19.8389 7.63021C20.5035 6.76143 21.0923 6.00596 21.681 5.25049C22.1937 4.58946 22.8584 4.41948 23.599 4.8161C23.7889 4.92942 24.0358 5.32604 23.9599 5.45825C23.8459 5.68489 23.4471 5.98707 23.2952 5.93041C22.4216 5.64711 22.0228 6.25149 21.567 6.76143C21.1113 7.25248 20.6365 7.72465 19.8389 7.63021Z"
                fill="#CECECE" />
            <path id="Vector_18"
                d="M20.0478 7.83797C19.9718 7.83797 19.8959 7.83797 19.8199 7.81908L19.4971 7.78131L20.2947 6.74254C20.7315 6.17594 21.1303 5.666 21.5291 5.13717C22.1178 4.38171 22.8774 4.21173 23.694 4.64612C23.9409 4.77833 24.2638 5.28827 24.1498 5.53379C24.0169 5.79821 23.5611 6.21372 23.2572 6.1004C22.5926 5.89264 22.2697 6.25149 21.8709 6.70477C21.8139 6.76143 21.776 6.81809 21.719 6.87475C21.3012 7.30914 20.8264 7.83797 20.0478 7.83797ZM22.8205 4.79721C22.4406 4.79721 22.1178 4.98608 21.8139 5.36381C21.4151 5.87376 20.9973 6.40258 20.5795 6.96918L20.2187 7.44135C20.6935 7.38469 21.0353 7.06362 21.4151 6.62922C21.4721 6.57256 21.5101 6.5159 21.5671 6.45924C21.9849 5.98708 22.4406 5.45825 23.3522 5.74155C23.4282 5.74155 23.694 5.55268 23.789 5.3827C23.77 5.28827 23.6371 5.04274 23.5041 4.96719C23.2572 4.85387 23.0483 4.79721 22.8205 4.79721Z"
                fill="#CECECE" />
        </g>
        <g id="Group_10">
            <path id="Vector_19"
                d="M17.0855 7.76242C16.6487 7.5169 16.155 7.32803 15.7752 6.98807C15.1675 6.44036 14.7497 5.59046 13.6672 5.93042C13.5343 5.96819 13.1734 5.68489 13.1544 5.51491C13.1355 5.28827 13.2874 4.9672 13.4583 4.83499C14.085 4.38171 14.9206 4.60835 15.5093 5.36382C16.06 6.08151 16.6108 6.78032 17.1425 7.49801C17.1235 7.59244 17.1045 7.66799 17.0855 7.76242Z"
                fill="#CECECE" />
            <path id="Vector_20"
                d="M17.1993 8.04573L16.9904 7.93241C16.8574 7.85686 16.7245 7.78131 16.5726 7.72465C16.2497 7.55467 15.9269 7.38469 15.642 7.13917C15.5091 7.00696 15.3762 6.87475 15.2622 6.74255C14.8254 6.27038 14.4646 5.87376 13.724 6.11929C13.61 6.15706 13.4961 6.11929 13.3442 6.02485C13.3062 6.00597 12.9833 5.77933 12.9643 5.5338C12.9264 5.2505 13.1163 4.85388 13.3442 4.6839C14.0278 4.17396 14.9963 4.4006 15.661 5.2505C16.0408 5.74155 16.4207 6.23261 16.8005 6.74255L17.3512 7.46024L17.1993 8.04573ZM14.1418 5.66601C14.7875 5.66601 15.1673 6.1004 15.5281 6.47813C15.642 6.61034 15.756 6.74255 15.8889 6.85587C16.1168 7.06362 16.4207 7.21471 16.7245 7.38469C16.7625 7.40358 16.8005 7.42247 16.8574 7.44135L16.4966 6.96919C16.1168 6.47813 15.737 5.98708 15.3572 5.47714C14.8254 4.79722 14.1038 4.58946 13.572 4.98608C13.4391 5.08052 13.3252 5.34493 13.3442 5.49603C13.3631 5.55269 13.5531 5.72267 13.648 5.74155C13.8189 5.70378 13.9898 5.66601 14.1418 5.66601Z"
                fill="#CECECE" />
        </g>
        <path id="Vector_21"
            d="M13.3824 17.8479C13.2304 17.7724 13.1165 17.6779 13.0405 17.5646C12.9646 17.4513 12.9266 17.3569 12.9266 17.2435C12.9266 17.2058 12.9456 17.1869 12.9646 17.1869C13.0025 17.3757 13.0595 17.508 13.1355 17.5835C13.2114 17.6779 13.3064 17.7346 13.4393 17.8101C13.6102 17.8857 13.7812 17.9046 13.9141 17.8668C14.066 17.829 14.199 17.7157 14.3319 17.5646C14.4458 17.4135 14.5218 17.2435 14.5408 17.0547C14.104 16.8469 13.6482 16.7336 13.1545 16.7336C12.7747 16.7336 12.4138 16.7903 12.091 16.9225C12.2049 17.0169 12.2999 17.1113 12.3758 17.2247C12.4518 17.338 12.4898 17.4324 12.4898 17.5268C12.4898 17.5835 12.4708 17.6213 12.4138 17.6213C12.1669 17.6213 12.034 17.4135 11.977 16.9791C11.6162 17.1491 11.3503 17.3757 11.1794 17.6968C11.1414 17.7724 11.0845 17.9046 11.0275 18.0934C10.9895 18.1879 10.9895 18.3201 10.9895 18.4523C10.9895 19.0378 11.2174 19.4911 11.6542 19.831L11.7112 19.8688C11.7112 19.8877 11.6922 19.8877 11.6732 19.8877C11.6542 19.8877 11.5592 19.831 11.4453 19.7177C11.3124 19.6044 11.1984 19.4344 11.0845 19.2078C10.9705 18.9811 10.9325 18.7167 10.9325 18.4145C10.9325 18.2823 10.9515 18.169 10.9705 18.0746C11.0085 17.9235 11.0655 17.7913 11.1225 17.6779C11.2934 17.3569 11.5592 17.0924 11.9201 16.8847C11.6542 16.7336 11.2554 16.6581 10.7616 16.6581C10.04 16.6581 9.43228 16.8469 8.95751 17.2435C8.48274 17.6402 8.23586 18.1312 8.23586 18.7356C8.23586 19.3966 8.52072 19.8877 9.09044 20.2465C9.12842 19.9821 9.20439 19.7366 9.35631 19.5666C9.14742 19.3966 9.05246 19.17 9.05246 18.8867C9.05246 18.8678 9.07145 18.8489 9.12842 18.8489C9.1854 18.8489 9.20439 18.8867 9.20439 18.9622C9.20439 19.1889 9.26136 19.3777 9.3943 19.5288C9.50824 19.3589 9.66017 19.2455 9.83108 19.1511C10.002 19.0567 10.1539 19.0189 10.3248 19.0189C10.6857 19.0189 10.8756 19.1511 10.8756 19.4155C10.8756 19.5477 10.8186 19.6422 10.6857 19.7177C10.5527 19.7932 10.4008 19.831 10.2299 19.831C9.88806 19.831 9.60319 19.7555 9.41329 19.6233C9.26136 19.8499 9.1854 20.0765 9.1854 20.3221C9.41329 20.4354 9.66017 20.5109 9.92604 20.5487C10.002 20.5676 10.059 20.5676 10.059 20.5865L9.96402 20.6054C9.75512 20.6054 9.48925 20.5298 9.1854 20.3976C9.1854 20.6809 9.28035 20.9076 9.47026 21.0775C9.66017 21.2475 9.86906 21.342 10.1159 21.342C10.1539 21.342 10.2299 21.3231 10.3248 21.3042L10.3628 21.3231C10.3628 21.342 10.3248 21.3608 10.2679 21.3608C10.2109 21.3608 10.1349 21.3797 10.078 21.3797C9.7931 21.3797 9.54622 21.2853 9.3753 21.0964C9.1854 20.9076 9.10943 20.662 9.10943 20.3598V20.3221C8.78659 20.1521 8.53971 19.9255 8.3498 19.6421C8.1599 19.34 8.06494 19.0189 8.06494 18.6412C8.06494 18.0746 8.33081 17.5835 8.88154 17.2058C9.41329 16.8091 10.04 16.6203 10.7047 16.6203C11.2554 16.6203 11.6732 16.6958 11.977 16.8658V16.7714C11.977 16.5258 12.034 16.2992 12.1669 16.1103C12.2809 15.9215 12.4708 15.7704 12.6987 15.6759C12.7177 15.6193 12.7557 15.6004 12.7936 15.6004C12.8126 15.6004 12.8316 15.6004 12.8506 15.6193L12.8886 15.6004C12.9076 15.5437 12.9266 15.5249 12.9836 15.5249L13.0405 15.5626L13.0785 15.5437C13.0975 15.4682 13.1355 15.4304 13.1925 15.4304C13.2494 15.4304 13.2874 15.4682 13.3064 15.5437H13.3444C13.3634 15.506 13.3824 15.506 13.4203 15.506C13.4583 15.506 13.4963 15.5249 13.5153 15.5626L13.5533 15.5815L13.5913 15.5626C13.6102 15.5626 13.6482 15.5815 13.6862 15.6382C13.9711 15.7326 14.199 15.9026 14.3699 16.1292C14.5598 16.3748 14.6547 16.6392 14.6547 16.9791C15.0535 17.1869 15.3384 17.4513 15.5473 17.7724C15.7562 18.0934 15.8702 18.4334 15.8702 18.7922C15.8702 19.3211 15.6613 19.7555 15.2624 20.1143C15.5283 20.2843 15.7562 20.5109 15.9081 20.8131C16.079 21.1153 16.155 21.3986 16.155 21.7197C16.155 22.1919 15.9651 22.5885 15.6043 22.9095C15.2435 23.2306 14.8067 23.4006 14.3129 23.4006C14.104 23.4006 13.8761 23.3628 13.6292 23.2873C13.6672 23.4006 13.6862 23.5328 13.6862 23.6839C13.6862 24.0427 13.5343 24.3638 13.2114 24.6093C12.9076 24.8738 12.5468 24.9871 12.148 24.9871C11.8441 24.9871 11.5592 24.9304 11.2744 24.7982C10.9895 24.666 10.7616 24.5149 10.6097 24.3072C10.4578 24.1183 10.3818 23.9861 10.3818 23.9105L10.4008 23.8728L10.4388 23.9105C10.4958 24.0616 10.6097 24.2127 10.7806 24.3827C10.9515 24.5527 11.1604 24.6849 11.4263 24.7793C11.6922 24.8738 11.9391 24.9304 12.1859 24.9304C12.5468 24.9304 12.8696 24.7982 13.1355 24.5527C13.4203 24.2883 13.5533 24.005 13.5533 23.6461C13.5533 23.495 13.5343 23.3628 13.4773 23.2306C13.2684 23.1362 13.1165 23.0418 13.0025 22.9284C12.8886 22.8151 12.8316 22.7018 12.8316 22.6074C12.8316 22.5507 12.8696 22.5318 12.9266 22.5318C13.0025 22.5318 13.1165 22.5885 13.2684 22.7207C13.4013 22.834 13.5153 23.004 13.6102 23.1928C13.8571 23.2684 14.123 23.3062 14.3889 23.3062C14.7877 23.3062 15.1485 23.1551 15.4903 22.8529C15.8322 22.5507 15.9841 22.1352 15.9841 21.6064C15.9841 21.342 15.9081 21.0775 15.7752 20.8131C15.6233 20.5298 15.4334 20.3221 15.2055 20.171C15.0915 20.2465 14.9776 20.3221 14.8636 20.3598C14.7307 20.4165 14.5598 20.4543 14.3129 20.5109C14.2749 20.5109 14.218 20.5298 14.123 20.5298C13.9521 20.5298 13.7622 20.4921 13.5913 20.4354C13.4203 20.3787 13.2874 20.3032 13.1925 20.2465V20.341C13.2684 20.3598 13.3254 20.3976 13.3254 20.4543C13.3254 20.4921 13.3064 20.5109 13.2874 20.5298C13.2684 20.5487 13.2304 20.5676 13.2114 20.5676V20.8887C13.2114 20.9453 13.1925 20.9642 13.1735 20.9642C13.1545 20.9642 13.1545 20.9453 13.1545 20.8887V20.5487C13.1165 20.5487 13.0975 20.5298 13.0785 20.5109C13.0595 20.4921 13.0405 20.4543 13.0405 20.4354C13.0405 20.3787 13.0785 20.341 13.1735 20.3221V19.4533C13.1735 19.3966 13.1735 19.3589 13.1545 19.3211C13.1355 19.2833 13.1355 19.2644 13.1355 19.2266C13.1355 19.1889 13.1545 19.1511 13.1735 19.1322V19.0755C13.0975 19.0567 13.0595 19 13.0595 18.9433C13.0595 18.9056 13.0785 18.8867 13.0975 18.8489C13.1165 18.8111 13.1545 18.8111 13.1735 18.8111V18.7545C13.1545 18.7356 13.1355 18.6978 13.1355 18.66C13.1355 18.6223 13.1355 18.6034 13.1545 18.5656C13.1735 18.5278 13.1735 18.4901 13.1735 18.4523V18.2445C13.1735 18.1879 13.1925 18.169 13.2114 18.169C13.2304 18.169 13.2304 18.1879 13.2304 18.2445V18.4523C13.2304 18.5089 13.2304 18.5467 13.2494 18.5656C13.2684 18.6034 13.2684 18.6223 13.2684 18.66C13.2684 18.6978 13.2494 18.7356 13.2304 18.7545V18.8111C13.2684 18.8111 13.2874 18.83 13.3064 18.8489C13.3254 18.8867 13.3444 18.9056 13.3444 18.9433C13.3444 19.0189 13.3064 19.0567 13.2304 19.0755V19.1322C13.2494 19.1511 13.2684 19.1889 13.2684 19.2266C13.2684 19.2455 13.2684 19.2833 13.2494 19.3211C13.2304 19.3589 13.2304 19.3966 13.2304 19.4533V20.171L13.2684 20.1899C13.5153 20.341 13.8002 20.4354 14.123 20.4354C14.2369 20.4354 14.3129 20.4354 14.3509 20.4165C14.4838 20.3976 14.6547 20.3598 14.8826 20.2843C14.9776 20.2465 15.0915 20.1899 15.2055 20.1143C15.0346 20.0199 14.8636 19.9632 14.6737 19.9632C14.4458 19.9632 14.2939 19.9821 14.199 20.001C14.104 20.0199 14.047 20.0388 14.028 20.0388C13.9901 20.0388 13.9901 20.0199 13.9901 20.001L14.161 19.9632C14.3319 19.9254 14.4838 19.9255 14.6168 19.9255H14.6547C14.8636 19.9255 15.0725 19.9821 15.2624 20.0954C15.6613 19.7744 15.8512 19.34 15.8512 18.8111C15.8512 18.4712 15.7562 18.1501 15.5473 17.8479C15.3574 17.5457 15.0725 17.3191 14.6927 17.1302C14.6737 17.3191 14.5978 17.4891 14.4838 17.6402C14.3699 17.7913 14.2369 17.8857 14.066 17.9423C13.7812 17.9801 13.5913 17.9612 13.3824 17.8479ZM12.3948 18.6789C12.5088 18.9245 12.5468 19.17 12.5468 19.4533C12.5468 19.9821 12.3758 20.3976 12.053 20.7376C11.7302 21.0775 11.3693 21.2286 10.9895 21.2286C10.7236 21.2286 10.5337 21.172 10.3628 21.0587C10.2109 20.9453 10.1349 20.7942 10.1349 20.6431C10.1349 20.5298 10.1729 20.4165 10.2489 20.341C10.3248 20.2654 10.4008 20.2276 10.5148 20.2276C10.7806 20.2276 10.9325 20.341 10.9325 20.5676C10.9325 20.662 10.8946 20.7376 10.8376 20.7942C10.7806 20.8509 10.7047 20.8887 10.6287 20.8887C10.5148 20.8887 10.4198 20.8509 10.3248 20.7754C10.3248 20.9076 10.3818 21.002 10.5148 21.0775C10.6477 21.1531 10.8186 21.1909 11.0465 21.1909C11.2744 21.1909 11.5023 21.0587 11.7302 20.8131C11.9581 20.5676 12.072 20.2088 12.072 19.7555C12.072 19.3777 11.977 19.0378 11.7871 18.7356C11.5972 18.4523 11.3503 18.2445 11.0085 18.1312L10.9515 18.1123C10.8186 18.0557 10.6287 18.0368 10.4198 18.0368C10.04 18.0368 9.73613 18.1312 9.52723 18.339C9.29934 18.5278 9.1854 18.7545 9.1854 19C9.1854 19.0378 9.16641 19.0378 9.10943 19.0378C9.05246 19.0378 9.03347 19 9.03347 18.9245C9.03347 18.5656 9.1854 18.2634 9.50824 18.0368C9.81209 17.7913 10.2109 17.6779 10.7047 17.6779C10.8376 17.6779 10.9705 17.6968 11.1225 17.7346L11.1794 17.7535C11.7302 17.9046 12.129 18.2068 12.3758 18.6789C12.6037 18.4145 12.9456 18.1501 13.4014 17.9046C13.4203 17.8857 13.4393 17.8857 13.4583 17.8668C13.7242 17.6968 13.9141 17.5268 14.028 17.3569L14.066 17.3002L14.104 17.3191C14.104 17.3569 14.047 17.4324 13.9521 17.5457C13.8571 17.659 13.8002 17.7157 13.8002 17.7346C13.8002 17.7913 13.8381 17.8479 13.9141 17.9235L13.9711 17.9612C14.3129 18.169 14.4838 18.4145 14.4838 18.6789C14.4838 19 14.3129 19.3211 13.9711 19.6233C14.161 19.6988 14.3319 19.8121 14.4838 19.9632C14.5028 19.9821 14.5218 20.001 14.5408 20.0388C14.6358 20.1332 14.7117 20.2465 14.7497 20.3598L14.7877 20.4165C14.8446 20.5487 14.8636 20.6809 14.8636 20.832C14.8636 21.2097 14.7307 21.5119 14.4648 21.7763C14.199 22.0408 13.8761 22.1541 13.4963 22.1541C13.2874 22.1541 13.0785 22.0785 12.9076 21.9463C12.7367 21.8141 12.6417 21.6441 12.6417 21.4553C12.6417 21.342 12.6797 21.2286 12.7367 21.1342C12.8126 21.0398 12.9076 20.9831 13.0215 20.9453L13.0785 20.9264L13.1545 20.9076C13.2684 20.9076 13.3824 20.9453 13.4583 21.0209C13.5343 21.0964 13.5723 21.1909 13.5723 21.3042C13.5723 21.4175 13.5343 21.493 13.4773 21.5497C13.4203 21.6064 13.3444 21.6441 13.2304 21.6441C13.0215 21.6441 12.9266 21.5497 12.9266 21.342C12.9266 21.2097 13.0215 21.1153 13.2114 21.0964C13.2114 21.0398 13.1545 21.0209 13.0215 21.0209C12.9266 21.0209 12.8316 21.0587 12.7747 21.1531C12.7177 21.2475 12.6797 21.3608 12.6797 21.4742C12.6797 21.6253 12.7557 21.7575 12.9076 21.8897C13.0595 22.0219 13.2114 22.0785 13.3824 22.0785C13.6482 22.0785 13.8571 21.9652 14.0091 21.7197C14.142 21.4742 14.218 21.1531 14.218 20.7565C14.218 20.6809 14.218 20.6054 14.199 20.5676L14.18 20.4921C14.161 20.3598 14.123 20.2276 14.028 20.0765L13.9901 20.0199C13.9331 19.9066 13.8571 19.831 13.7622 19.7555C13.5343 19.9066 13.3444 19.9821 13.1925 19.9821C13.1545 19.9821 13.1165 19.9821 13.0595 19.9632L13.0025 19.9255C12.9836 19.9066 12.9646 19.8688 12.9646 19.831C12.9646 19.7744 12.9836 19.7366 13.0025 19.7177L13.0595 19.661C13.1545 19.6044 13.3064 19.5666 13.4963 19.5666C13.5723 19.5666 13.6672 19.5855 13.8002 19.6044C13.9331 19.4533 13.9901 19.3022 13.9901 19.1511C13.9901 19.0378 13.9711 18.9245 13.8951 18.83C13.8381 18.7167 13.7432 18.6223 13.5913 18.5089C13.4393 18.4145 13.3444 18.339 13.3064 18.2823C13.2684 18.2445 13.2304 18.169 13.1925 18.0746C13.1545 18.0746 13.0595 18.1312 12.8886 18.2445C12.7747 18.3012 12.5847 18.4712 12.3948 18.6789ZM9.43228 19.5666C9.62219 19.7177 9.85007 19.7932 10.1539 19.7932C10.3438 19.7932 10.4768 19.7555 10.5907 19.6799C10.6857 19.6044 10.7426 19.5099 10.7426 19.3777C10.7426 19.1889 10.5907 19.0755 10.3059 19.0755C9.96402 19.0944 9.67916 19.2455 9.43228 19.5666ZM9.73613 22.2296C9.73613 21.9841 9.88806 21.7763 10.1919 21.5686C10.4958 21.3608 10.8566 21.2664 11.2554 21.2664C11.6732 21.2664 12.015 21.3986 12.2999 21.6441L12.3569 21.6819C12.3948 21.6819 12.4708 21.6064 12.6037 21.4364C12.6227 21.4364 12.6417 21.4553 12.6417 21.4742C12.6417 21.5119 12.5847 21.5686 12.4898 21.6819C12.3948 21.7952 12.2619 21.8897 12.129 21.9652C11.8251 22.1352 11.6162 22.3052 11.5213 22.4752L11.5023 22.494L11.4643 22.4752C11.4643 22.4185 11.5972 22.2863 11.8631 22.0408C11.8631 21.9841 11.7681 21.9086 11.5972 21.8141C11.4073 21.7008 11.1604 21.6441 10.8376 21.6441C10.5527 21.6441 10.3059 21.7008 10.1159 21.8141C9.92604 21.9274 9.83108 22.0785 9.83108 22.2674C9.83108 22.3241 9.81209 22.3429 9.7931 22.3429C9.75512 22.3241 9.73613 22.2863 9.73613 22.2296ZM9.81209 22.2485C9.81209 22.4374 9.90705 22.6074 10.078 22.7396C10.2489 22.8718 10.4958 22.9473 10.8186 22.9473H10.9325C10.9705 22.8529 11.0275 22.7962 11.1035 22.7396C11.1794 22.6829 11.2364 22.664 11.2934 22.664C11.3883 22.664 11.4263 22.7018 11.4263 22.7585C11.4263 22.8718 11.2934 22.9662 11.0465 23.004C11.0275 23.0606 11.0085 23.1362 11.0085 23.2117C11.0085 23.4006 11.1035 23.5895 11.3124 23.7217C11.5213 23.8728 11.7302 23.9483 11.977 23.9483C12.1859 23.9483 12.3948 23.8917 12.5847 23.7594L12.6417 23.7217L12.6607 23.7406C12.6607 23.7783 12.5847 23.8161 12.4518 23.8917C12.3189 23.9672 12.148 24.005 11.977 24.005C11.7112 24.005 11.4643 23.9294 11.2554 23.7594C11.0275 23.5895 10.9136 23.3817 10.9136 23.1362C10.9136 23.0984 10.9136 23.0606 10.9325 23.004H10.8376C10.4958 23.004 10.2299 22.9284 10.04 22.7773C9.85007 22.6262 9.75512 22.4374 9.75512 22.2296C9.75512 22.173 9.77411 22.1541 9.7931 22.1541C9.7931 22.1541 9.81209 22.1919 9.81209 22.2485ZM11.0845 22.9284C11.1794 22.9095 11.2554 22.9095 11.2934 22.8718C11.3314 22.834 11.3693 22.8151 11.3693 22.7962C11.3693 22.7585 11.3503 22.7396 11.2934 22.7396C11.2174 22.7207 11.1414 22.7962 11.0845 22.9284ZM14.5408 16.9414C14.5218 16.6392 14.4458 16.3748 14.2559 16.167C14.085 15.9404 13.8571 15.7893 13.6102 15.6948H13.5343C13.4963 15.6948 13.4773 15.6759 13.4583 15.6382H13.4203L13.3634 15.6759C13.3444 15.6759 13.3254 15.6571 13.2874 15.6382H13.2304C13.2114 15.7137 13.1735 15.7515 13.1165 15.7515C13.0595 15.7515 13.0215 15.7137 12.9836 15.6382C13.0025 15.6571 12.9646 15.6759 12.9456 15.6759C12.9266 15.6759 12.9076 15.6759 12.8696 15.6571L12.8506 15.6759C12.8506 15.7326 12.8126 15.7704 12.7367 15.7704L12.6797 15.7515C12.2429 15.9781 12.015 16.337 12.015 16.828V16.8658C12.3758 16.6958 12.7557 16.6014 13.1165 16.6014C13.6102 16.6014 14.085 16.7147 14.5408 16.9414ZM12.3569 17.4891C12.3569 17.4324 12.3189 17.338 12.2619 17.2435C12.2049 17.1491 12.11 17.0547 12.015 16.9791C12.034 17.1491 12.072 17.2813 12.129 17.3757C12.1859 17.4702 12.2429 17.5268 12.3189 17.5268C12.3379 17.5268 12.3569 17.5268 12.3569 17.4891ZM13.3824 23.1173C13.3064 22.9473 13.2304 22.8151 13.1355 22.7207C13.0405 22.6262 12.9456 22.5696 12.8886 22.5696C12.8506 22.5696 12.8316 22.5885 12.8316 22.6262C12.8316 22.7018 12.8886 22.7773 12.9836 22.8718C13.0785 22.9662 13.2114 23.0418 13.3824 23.1173ZM13.7242 19.6421C13.6292 19.5855 13.5343 19.5666 13.4393 19.5666C13.3444 19.5666 13.2684 19.5855 13.1925 19.6233C13.1355 19.661 13.0975 19.6988 13.0975 19.7555C13.0975 19.8121 13.1355 19.8499 13.2304 19.8499C13.4013 19.8499 13.5723 19.7744 13.7242 19.6421Z"
            fill="#CECECE" />
        <path id="Vector_22"
            d="M17.2375 19.6799L17.2945 19.7177C17.6743 19.9066 17.8452 20.2465 17.8452 20.7376C17.8452 20.8887 17.8072 21.0398 17.7123 21.2097C17.6173 21.3797 17.4654 21.5686 17.2565 21.7952C17.0286 22.003 16.8577 22.1918 16.7438 22.3429L16.7248 22.3052C16.8007 22.1918 16.8387 22.1352 16.8387 22.0974L16.7817 22.0596C16.4209 21.8519 16.25 21.5308 16.25 21.1342C16.25 20.9264 16.307 20.7187 16.4019 20.5109C16.4969 20.3032 16.6678 20.0954 16.8957 19.8877C17.1236 19.6799 17.2945 19.5099 17.3705 19.3777L17.3894 19.4155C17.4084 19.4533 17.3515 19.5288 17.2375 19.6799ZM17.1805 21.6819C17.2755 21.6819 17.3705 21.6064 17.4274 21.4553C17.4844 21.3042 17.5224 21.1153 17.5224 20.9076C17.5224 20.6809 17.4464 20.4732 17.3135 20.2843C17.1805 20.0954 17.0476 20.0199 16.9337 20.0199C16.8577 20.0199 16.7817 20.1143 16.7248 20.2843C16.6678 20.4543 16.6488 20.6431 16.6488 20.832C16.6488 21.0775 16.7058 21.2853 16.8007 21.4364C16.8957 21.5875 17.0286 21.6819 17.1805 21.6819Z"
            fill="#CECECE" />
        <path id="Vector_23"
            d="M19.4782 21.2853V20.3598C19.4782 20.3221 19.4402 20.2843 19.3832 20.2276C19.3263 20.171 19.2693 20.1332 19.2503 20.1332C19.2123 20.1332 19.1554 20.171 19.0794 20.2654L19.0604 20.2465C19.0604 20.1899 19.2123 20.0388 19.4972 19.8499C19.5921 19.7744 19.6871 19.6799 19.782 19.5288C19.801 19.5288 19.82 19.5477 19.82 19.5666C19.82 19.5855 19.782 19.661 19.6871 19.7932C19.6871 19.8121 19.7251 19.8688 19.82 19.9443C19.915 20.0199 19.972 20.0577 20.0289 20.0577L20.1619 20.001L20.1809 20.0199C19.953 20.1521 19.858 20.2276 19.858 20.2654V21.4364C19.858 21.493 19.896 21.5497 19.953 21.6064C20.0289 21.663 20.0669 21.6819 20.1049 21.6819C20.1429 21.6819 20.2188 21.6252 20.3138 21.5119L20.3328 21.5497C20.3328 21.5686 20.2568 21.663 20.0859 21.833C19.915 22.003 19.782 22.1541 19.6681 22.3052L19.6491 22.2674C19.6491 22.2485 19.6681 22.2107 19.7061 22.173C19.7441 22.1352 19.7631 22.0974 19.7631 22.0596L19.7061 21.9841C19.5542 21.8519 19.4972 21.7197 19.4972 21.5875V21.3231C19.3832 21.5119 19.2313 21.6819 19.0794 21.7952C18.9275 21.9274 18.7565 22.0785 18.6046 22.2674C18.5856 22.2674 18.5666 22.2485 18.5666 22.2296C18.5666 22.2107 18.5856 22.173 18.6236 22.1352C18.6616 22.0785 18.6806 22.0596 18.6806 22.0219C18.6806 21.9652 18.6236 21.8897 18.4907 21.8141C18.3767 21.7386 18.2818 21.7008 18.2438 21.7008C18.2058 21.7008 18.1678 21.7197 18.1109 21.7575L18.0919 21.7386C18.0919 21.7197 18.1298 21.6819 18.1868 21.6441C18.3387 21.5686 18.4147 21.4553 18.4147 21.3042V20.2465C18.4147 20.1899 18.3957 20.1332 18.3387 20.0765C18.2818 20.0199 18.2438 19.9821 18.2248 19.9821C18.1678 19.9821 18.0729 20.0577 17.9589 20.1899L17.9399 20.1521C17.9399 20.0954 18.0349 19.9821 18.2438 19.7932C18.4527 19.6233 18.5666 19.5288 18.5856 19.5288L18.6046 19.5666L18.5287 19.6799L18.5666 19.7177C18.7186 19.7932 18.7755 19.9066 18.7755 20.0199V21.3608C18.7755 21.4175 18.8135 21.4742 18.8705 21.5497C18.9275 21.6252 19.0034 21.6441 19.0604 21.6441C19.1554 21.7386 19.2883 21.5875 19.4782 21.2853Z"
            fill="#CECECE" />
        <path id="Vector_24"
            d="M21.7379 21.6819L21.7569 21.7008C21.548 21.8519 21.3771 22.003 21.2441 22.1352C21.1112 22.2674 21.0352 22.3429 21.0162 22.3429L20.9972 22.3241C21.0732 22.2296 21.1112 22.173 21.1112 22.1541C21.1112 22.0974 21.0732 22.0219 20.9783 21.9274C20.8833 21.833 20.7504 21.7763 20.5605 21.7763C20.5415 21.7763 20.4845 21.8141 20.3895 21.8708C20.3706 21.8708 20.3516 21.8519 20.3516 21.833C20.3516 21.8141 20.4465 21.7575 20.6174 21.6441C20.7884 21.5308 20.9403 21.493 21.0352 21.493C21.1112 21.493 21.2821 21.5875 21.529 21.7763C21.548 21.7763 21.586 21.7575 21.6429 21.7197C21.6809 21.7008 21.7189 21.6819 21.7379 21.6819ZM20.7504 19.7366C20.7504 19.4722 20.7694 19.2833 20.8263 19.17C20.8643 19.0567 20.9783 18.9245 21.1682 18.7922C21.3391 18.66 21.434 18.6034 21.453 18.6034L21.472 18.6412L21.453 18.66C21.3391 18.7545 21.2631 18.8489 21.2251 18.9433C21.1872 19.0378 21.1682 19.1889 21.1682 19.4155V19.7366H21.453C21.491 19.7366 21.51 19.7555 21.51 19.7932C21.51 19.831 21.491 19.8499 21.453 19.8499H21.1682V20.6431C21.1682 21.0586 20.9403 21.4175 20.5035 21.6819C20.4845 21.7008 20.4465 21.7197 20.4275 21.7386L20.4085 21.7197V21.6819C20.4275 21.6819 20.4655 21.663 20.5225 21.6252C20.5795 21.5875 20.6364 21.5119 20.6744 21.4175C20.7314 21.3231 20.7504 21.1153 20.7504 20.832V19.8499H20.5415C20.5035 19.8499 20.4845 19.831 20.4845 19.7932C20.4845 19.7555 20.5035 19.7366 20.5415 19.7366H20.7504Z"
            fill="#CECECE" />
        <path id="Vector_25"
            d="M22.4979 21.4175C22.4979 21.493 22.5169 21.5686 22.5739 21.6441C22.6308 21.7197 22.6878 21.7575 22.7448 21.7575C22.8208 21.7575 22.8967 21.7197 22.9537 21.663L22.9727 21.7008C22.9727 21.7197 22.9157 21.7763 22.7828 21.8897C22.6498 21.9841 22.4789 22.1352 22.27 22.3429L22.251 22.3241C22.251 22.3052 22.27 22.2674 22.308 22.2296C22.346 22.1919 22.365 22.1541 22.365 22.1352L22.308 22.0596C22.1941 21.9463 22.1371 21.8141 22.1371 21.7008V20.3598C22.1371 20.3032 22.0991 20.2654 22.0421 20.2276C21.9852 20.1899 21.9282 20.1521 21.9092 20.1521C21.8902 20.1521 21.8332 20.1899 21.7573 20.2465L21.7383 20.2088C22.0801 19.9443 22.308 19.7555 22.403 19.6233L22.4409 19.5855C22.4599 19.5855 22.4789 19.6044 22.4789 19.6233C22.4789 19.6422 22.4219 19.7177 22.308 19.8499C22.308 19.8877 22.346 19.9255 22.4409 20.001C22.5169 20.0577 22.6119 20.1143 22.7258 20.1521C22.5929 20.2088 22.5359 20.2843 22.5359 20.341V21.4175H22.4979ZM22.1941 18.3201C22.251 18.3201 22.308 18.339 22.365 18.3956C22.4219 18.4523 22.4409 18.509 22.4409 18.5656C22.4409 18.6223 22.4219 18.6789 22.365 18.7356C22.308 18.7923 22.27 18.8111 22.1941 18.8111C22.1181 18.8111 22.0801 18.7923 22.0231 18.7356C21.9662 18.6789 21.9472 18.6223 21.9472 18.5656C21.9472 18.509 21.9662 18.4523 22.0231 18.3956C22.0801 18.339 22.1371 18.3201 22.1941 18.3201Z"
            fill="#CECECE" />
        <path id="Vector_26"
            d="M24.3398 21.4742C24.2828 21.5497 24.1879 21.6441 24.055 21.7763C23.922 21.9085 23.8081 22.003 23.6941 22.0596C23.5992 22.1163 23.4852 22.2296 23.3903 22.3807C23.3713 22.3807 23.3523 22.3618 23.3523 22.3429C23.3523 22.3241 23.4283 22.2296 23.5612 22.0785L23.5232 22.0408C23.2384 21.833 23.0864 21.5119 23.0864 21.0775C23.0864 20.6054 23.4093 20.1332 24.036 19.661C24.1499 19.5855 24.2828 19.4722 24.3968 19.34L24.4348 19.3588L24.2259 19.5855C24.3778 19.6988 24.5107 19.7932 24.6247 19.8877C24.6817 19.9443 24.7766 19.9632 24.9095 19.9632L24.9475 19.9821C24.9475 20.001 24.9285 20.0199 24.8905 20.0388C24.7576 20.1143 24.7006 20.2087 24.7006 20.3598V22.6074C24.7006 22.7396 24.7196 22.834 24.7386 22.8907C24.7766 22.9284 24.7956 22.9473 24.8526 22.9662C24.8905 22.9662 24.9095 22.9851 24.9095 23.004L24.8526 23.0229C24.6817 23.0795 24.4728 23.2306 24.2259 23.4761L24.1499 23.5517C24.1309 23.5517 24.1309 23.5517 24.1309 23.5328L24.1689 23.495C24.2828 23.3817 24.3398 23.2495 24.3398 23.0795V21.4742ZM24.3398 21.3608V20.2276C24.3398 20.171 24.2639 20.1143 24.1499 20.0199C24.017 19.9254 23.941 19.8877 23.903 19.8877C23.8461 19.8877 23.7701 19.9821 23.6751 20.1521C23.5612 20.3221 23.5232 20.5865 23.5232 20.9453C23.5232 21.1909 23.5802 21.3797 23.6751 21.493C23.7701 21.6064 23.884 21.663 24.017 21.663C24.0739 21.663 24.1309 21.6064 24.2259 21.5119C24.3018 21.4553 24.3398 21.3986 24.3398 21.3608Z"
            fill="#CECECE" />
        <path id="Vector_27"
            d="M26.5617 21.2853V20.3598C26.5617 20.3221 26.5237 20.2843 26.4667 20.2276C26.4098 20.171 26.3528 20.1332 26.3338 20.1332C26.2958 20.1332 26.2388 20.171 26.1629 20.2654L26.1439 20.2465C26.1439 20.1899 26.2958 20.0388 26.5807 19.8499C26.6756 19.7744 26.7706 19.6799 26.8655 19.5288C26.8845 19.5288 26.9035 19.5477 26.9035 19.5666C26.9035 19.5855 26.8655 19.661 26.7706 19.7932C26.7706 19.8121 26.8086 19.8688 26.9035 19.9443C26.9985 20.0199 27.0555 20.0577 27.1124 20.0577L27.2454 20.001L27.2643 20.0199C27.0365 20.1521 26.9415 20.2276 26.9415 20.2654V21.4364C26.9415 21.493 26.9795 21.5497 27.0365 21.6064C27.1124 21.663 27.1504 21.6819 27.1884 21.6819C27.2264 21.6819 27.3023 21.6252 27.3973 21.5119L27.4163 21.5497C27.4163 21.5686 27.3403 21.663 27.1694 21.833C26.9985 22.003 26.8655 22.1541 26.7516 22.3052L26.7326 22.2674C26.7326 22.2485 26.7516 22.2107 26.7896 22.173C26.8276 22.1352 26.8466 22.0974 26.8466 22.0596L26.7896 21.9841C26.6377 21.8519 26.5807 21.7197 26.5807 21.5875V21.3231C26.4667 21.5119 26.3148 21.6819 26.1629 21.7952C26.011 21.9274 25.84 22.0785 25.6881 22.2674C25.6691 22.2674 25.6501 22.2485 25.6501 22.2296C25.6501 22.2107 25.6691 22.173 25.7071 22.1352C25.7451 22.0785 25.7641 22.0596 25.7641 22.0219C25.7641 21.9652 25.7071 21.8897 25.5742 21.8141C25.4602 21.7386 25.3653 21.7008 25.3273 21.7008C25.2893 21.7008 25.2513 21.7197 25.1944 21.7575L25.1754 21.7386C25.1754 21.7197 25.2133 21.6819 25.2703 21.6441C25.4222 21.5686 25.4982 21.4553 25.4982 21.3042V20.2465C25.4982 20.1899 25.4792 20.1332 25.4222 20.0765C25.3653 20.0199 25.3273 19.9821 25.3083 19.9821C25.2513 19.9821 25.1564 20.0577 25.0424 20.1899L25.0234 20.1521C25.0234 20.0954 25.1184 19.9821 25.3273 19.7932C25.5362 19.6233 25.6501 19.5288 25.6691 19.5288L25.6881 19.5666L25.6122 19.6799L25.6501 19.7177C25.8021 19.7932 25.859 19.9066 25.859 20.0199V21.3608C25.859 21.4175 25.897 21.4742 25.954 21.5497C26.011 21.6252 26.0869 21.6441 26.1439 21.6441C26.2388 21.7386 26.3718 21.5875 26.5617 21.2853Z"
            fill="#CECECE" />
        <path id="Vector_28"
            d="M28.461 19.7177L28.5369 19.7744C28.7648 19.9066 28.8788 20.0577 28.8788 20.2276C28.8788 20.3221 28.8408 20.4165 28.7838 20.5109C28.7268 20.6054 28.6129 20.7376 28.442 20.8698C28.2711 21.002 28.1571 21.1153 28.1002 21.2097L28.0812 21.1909C28.0812 21.1342 28.1381 21.0587 28.2521 20.9453C28.366 20.832 28.442 20.7565 28.461 20.662C28.499 20.5865 28.5179 20.5109 28.5179 20.4354C28.5179 20.341 28.48 20.2465 28.404 20.171C28.328 20.0954 28.2711 20.0577 28.2521 20.0577C28.1761 20.0577 28.1002 20.1332 28.0432 20.2654C27.9862 20.3976 27.9482 20.6054 27.9482 20.8698C27.9482 21.1342 28.0242 21.342 28.1571 21.4742C28.2901 21.6064 28.461 21.6819 28.6129 21.6819C28.6509 21.6819 28.7268 21.6253 28.8218 21.5119C28.8408 21.5119 28.8598 21.5308 28.8598 21.5686C28.8598 21.6441 28.6889 21.7763 28.366 21.9841C28.1951 22.0785 28.1002 22.1541 28.0622 22.2107C28.0242 22.2674 28.0052 22.3241 27.9862 22.3807C27.9482 22.3807 27.9292 22.3618 27.9292 22.3429C27.9292 22.2485 27.9862 22.1541 28.1191 22.0408L28.0622 21.9841C27.7583 21.7763 27.5874 21.4742 27.5874 21.0587C27.5874 20.6809 27.7963 20.2843 28.2141 19.8688C28.347 19.7555 28.442 19.6233 28.499 19.4911C28.518 19.4911 28.5369 19.5099 28.5369 19.5288C28.48 19.6422 28.461 19.6988 28.461 19.7177Z"
            fill="#CECECE" />
    </g>
</svg>