<svg width="127" height="92" viewBox="0 0 127 92" fill="none" xmlns="http://www.w3.org/2000/svg">
<path d="M75.3032 5H118.657C120.598 5 122.172 6.5738 122.172 8.51516V83.5053C122.172 85.4468 120.598 87.0204 118.657 87.0204H75.3032M75.3032 5V87.0204M75.3032 5H51.8688M75.3032 87.0204H51.8688M51.8688 5H8.51516C6.5738 5 5 6.5738 5 8.51516V83.5053C5 85.4468 6.5738 87.0204 8.51516 87.0204H51.8688M51.8688 5V87.0204" stroke="white" stroke-width="8.7879" stroke-linecap="round" stroke-linejoin="round"/>
<path d="M34.293 33.4064C34.293 30.9804 31.8723 29.3147 29.9026 30.7309C25.4654 33.9212 22.5758 39.1287 22.5758 45.0108C22.5758 50.8928 25.4654 56.1005 29.9026 59.2905C31.8723 60.7066 34.293 59.0415 34.293 56.6155C34.293 49.2688 34.293 42.3592 34.293 33.4064Z" fill="white"/>
<path d="M92.879 33.4064C92.879 30.9804 95.2998 29.3147 97.2695 30.7309C101.707 33.9212 104.596 39.1287 104.596 45.0108C104.596 50.8928 101.707 56.1005 97.2695 59.2905C95.2998 60.7066 92.879 59.0415 92.879 56.6155C92.879 49.2688 92.879 42.3592 92.879 33.4064Z" fill="white"/>
</svg>
