<svg width="136" height="119" viewBox="0 0 136 119" fill="none" xmlns="http://www.w3.org/2000/svg">
<g clip-path="url(#clip0_66_100)">
<path d="M97.0818 87.3866H109.57C109.57 68.6242 109.57 49.9474 109.57 31.2707C99.8189 31.2707 90.1535 31.2707 80.488 31.2707V48.8337H73.3887C73.3887 40.4377 73.3887 33.4982 73.3887 31.2707C69.5396 31.2707 66.0327 31.2707 62.4403 31.2707C62.4403 37.1821 62.4403 43.0079 62.4403 48.8337H55.2553C55.2553 43.0079 55.2553 37.0965 55.2553 31.2707C45.5044 31.2707 35.9245 31.2707 26.3447 31.2707C26.3447 37.1821 26.3447 43.0079 26.3447 48.8337H19.4164C19.4164 43.1793 19.4164 37.4391 19.4164 31.7847C19.4164 26.3873 21.4692 24.2455 26.8579 24.2455C54.2289 24.2455 81.6 24.2455 108.886 24.2455C114.36 24.2455 116.498 26.3873 116.498 31.8704C116.498 50.2045 116.498 68.5385 116.498 86.8726C116.498 92.0986 114.274 94.3261 109.142 94.3261L97.0818 94.2404" fill="white"/>
<path d="M116.584 63.1411H129.072C129.072 44.3787 129.072 25.7019 129.072 7.0252C119.321 7.0252 109.655 7.0252 99.9899 7.0252V24.5882H92.8905C92.8905 16.1922 92.8905 9.2527 92.8905 7.0252C89.0415 7.0252 85.5346 7.0252 81.9421 7.0252C81.9421 12.9366 81.9421 18.7624 81.9421 24.5882H74.7572C74.7572 18.7624 74.7572 12.851 74.7572 7.0252C65.0063 7.0252 55.4264 7.0252 45.8465 7.0252C45.8465 12.9366 45.8465 18.7624 45.8465 24.5882H38.9182C38.9182 18.9338 38.9182 13.1937 38.9182 7.53924C38.9182 2.14183 40.971 0 46.3597 0C73.7308 0 101.102 0 128.387 0C133.862 0 136 2.14183 136 7.62491C136 25.959 136 44.293 136 62.6271C136 67.8531 133.776 70.0806 128.644 70.0806L116.584 69.995" fill="white"/>
<path d="M48.4981 119C34.9837 119 21.4692 119 7.86918 119C1.9673 119 0 117.03 0 111.204C0 92.9554 0 74.707 0 56.373C0 50.9756 2.05283 48.8337 7.44151 48.8337C34.8126 48.8337 62.1837 48.8337 89.4692 48.8337C94.9434 48.8337 97.0818 50.9756 97.0818 56.4587C97.0818 74.7927 97.0818 93.1268 97.0818 111.461C97.0818 116.687 94.8579 118.914 89.7258 118.914C75.9547 119 62.1837 119 48.4981 119ZM90.1535 111.975C90.1535 93.2124 90.1535 74.5357 90.1535 55.8589C80.4025 55.8589 70.7371 55.8589 61.0717 55.8589C61.0717 74.707 61.0717 93.2981 61.0717 111.975C70.9082 111.975 80.4881 111.975 90.1535 111.975ZM6.9283 111.975C16.7648 111.975 26.3447 111.975 35.839 111.975C35.839 93.1268 35.839 74.5357 35.839 55.8589C26.0881 55.8589 16.5082 55.8589 6.9283 55.8589C6.9283 74.6214 6.9283 93.2124 6.9283 111.975ZM53.9723 55.8589C50.1233 55.8589 46.6164 55.8589 43.0239 55.8589C43.0239 74.707 43.0239 93.2981 43.0239 111.889C46.7874 111.889 50.3799 111.889 53.9723 111.889C53.9723 93.2124 53.9723 74.6214 53.9723 55.8589Z" fill="white"/>
<path d="M80.1459 83.4457C80.0604 87.4724 78.4352 91.0706 75.0139 93.7265C74.4151 94.2406 73.1321 94.5832 72.5334 94.3262C71.8491 93.9835 71.1648 92.7841 71.1648 92.0131C71.0793 86.1016 71.0793 80.1902 71.1648 74.2787C71.1648 73.5076 71.9346 72.3082 72.6189 71.9655C73.2176 71.7085 74.4151 72.1369 75.0139 72.5652C78.4352 75.3068 80.0604 78.8194 80.1459 83.4457Z" fill="white"/>
<path d="M25.917 83.2744C25.917 86.0159 26.0025 88.8431 25.8314 91.5847C25.7459 92.5271 25.2327 93.9835 24.5484 94.1549C23.6931 94.4119 22.3245 93.9835 21.5547 93.3838C15.3107 87.9864 15.2251 78.648 21.2981 73.0793C22.0679 72.3939 23.6075 71.7085 24.3773 71.9655C25.1472 72.3082 25.7459 73.8503 25.8314 74.8784C26.088 77.7056 25.917 80.5328 25.917 83.2744Z" fill="white"/>
</g>
<defs>
<clipPath id="clip0_66_100">
<rect width="136" height="119" fill="white"/>
</clipPath>
</defs>
</svg>
