<svg width="137" height="111" viewBox="0 0 137 111" fill="none" xmlns="http://www.w3.org/2000/svg">
<g clip-path="url(#clip0_66_118)">
<path d="M113.5 73.7H128.1C128.1 51.8 128.1 30 128.1 8.2C116.7 8.2 105.4 8.2 94.1 8.2V28.7H85.8C85.8 18.9 85.8 10.8 85.8 8.2C81.3 8.2 77.2 8.2 73 8.2C73 15.1 73 21.9 73 28.7H64.6C64.6 21.9 64.6 15 64.6 8.2C53.2 8.2 42 8.2 30.8 8.2C30.8 15.1 30.8 21.9 30.8 28.7H22.7C22.7 22.1 22.7 15.4 22.7 8.8C22.7 2.5 25.1 0 31.4 0C63.4 0 95.4 0 127.3 0C133.7 0 136.2 2.5 136.2 8.9C136.2 30.3 136.2 51.7 136.2 73.1C136.2 79.2 133.6 81.8 127.6 81.8L113.5 81.7" fill="white"/>
<path d="M56.7 110.5C40.9 110.5 25.1 110.5 9.2 110.5C2.3 110.5 0 108.2 0 101.4C0 80.1 0 58.8 0 37.4C0 31.1 2.4 28.6 8.7 28.6C40.7 28.6 72.7 28.6 104.6 28.6C111 28.6 113.5 31.1 113.5 37.5C113.5 58.9 113.5 80.3 113.5 101.7C113.5 107.8 110.9 110.4 104.9 110.4C88.8 110.6 72.7 110.5 56.7 110.5ZM105.4 102.4C105.4 80.5 105.4 58.7 105.4 36.9C94 36.9 82.7 36.9 71.4 36.9C71.4 58.9 71.4 80.6 71.4 102.4C82.9 102.4 94.1 102.4 105.4 102.4ZM8.1 102.4C19.6 102.4 30.8 102.4 41.9 102.4C41.9 80.4 41.9 58.7 41.9 36.9C30.5 36.9 19.3 36.9 8.1 36.9C8.1 58.8 8.1 80.5 8.1 102.4ZM63.1 36.9C58.6 36.9 54.5 36.9 50.3 36.9C50.3 58.9 50.3 80.6 50.3 102.3C54.7 102.3 58.9 102.3 63.1 102.3C63.1 80.4 63.1 58.8 63.1 36.9Z" fill="white"/>
<path d="M93.7 69.1C93.6 73.8 91.7 78 87.7 81.1C87 81.7 85.5 82.1 84.8 81.8C84 81.3 83.2 80 83.2 79C83.1 72.1 83.1 65.2 83.2 58.3C83.2 57.4 84.1 56 84.9 55.6C85.6 55.3 87 55.8 87.7 56.3C91.7 59.5 93.6 63.7 93.7 69.1Z" fill="white"/>
<path d="M30.3 68.9C30.3 72.1 30.4 75.4 30.2 78.6C30.1 79.7 29.5 81.4 28.7 81.6C27.7 81.9 26.1 81.4 25.2 80.7C18 74.4 17.8 63.5 25 57C25.9 56.2 27.7 55.4 28.6 55.7C29.5 56.1 30.2 57.9 30.3 59.1C30.5 62.4 30.3 65.6 30.3 68.9Z" fill="white"/>
</g>
<defs>
<clipPath id="clip0_66_118">
<rect width="136.3" height="110.5" fill="white"/>
</clipPath>
</defs>
</svg>
