<svg width="126" height="56" viewBox="0 0 126 56" fill="none" xmlns="http://www.w3.org/2000/svg">
<g clip-path="url(#clip0_78_318)">
<path d="M41.087 55.7636C35.6087 55.7636 30.4435 55.7636 24.9652 55.7636C24.9652 52.2143 24.9652 48.8227 24.9652 45.3523C24.9652 42.434 25.0435 39.4368 24.887 36.5185C24.887 35.8875 24.0261 35.2565 23.5565 34.7044C23.087 35.3354 22.2261 35.9664 22.2261 36.5974C22.1478 42.1185 22.0696 47.7185 22.2261 53.2396C22.3044 55.2903 21.6783 56.0791 19.5652 55.9213C15.9652 55.7636 12.3652 55.7636 8.76522 55.9213C6.49566 56.0002 5.86957 55.2115 5.94783 53.003C6.10436 49.4537 6.02609 45.9833 6.02609 42.5129C0.860877 40.4622 7.34627e-06 39.2002 7.34627e-06 33.8368C7.34627e-06 30.1298 0.156529 26.4227 -0.0782535 22.7157C-0.313036 18.141 0.860877 14.6706 5.94783 13.7241C5.94783 9.85934 6.02609 6.1523 5.86957 2.52413C5.94783 0.5523 6.73044 -0.0786862 8.6087 0.00018706C12.287 0.0790603 15.9652 0.157934 19.6435 0.00018706C21.6 -0.0786862 22.3044 0.473427 22.2261 2.52413C22.0696 7.72976 22.1478 12.9354 22.2261 18.141C22.2261 19.2453 21.4435 21.2171 23.6348 21.2171C25.8261 21.2171 24.887 19.3241 24.887 18.2988C24.9652 12.3044 24.9652 6.38892 24.9652 0.236807C30.3652 0.236807 35.4522 0.236807 40.9304 0.236807C41.0087 1.10441 41.087 1.97202 41.087 2.83962C41.087 8.203 41.1652 13.6453 41.087 19.0086C41.087 20.7438 41.5565 21.296 43.3565 21.296C56.5044 21.296 69.6522 21.296 82.8783 21.296C84.8348 21.296 85.2261 20.5072 85.2261 18.772C85.1478 13.3298 85.2261 7.80864 85.1478 2.36638C85.1478 0.631173 85.6957 -0.0786862 87.4174 0.00018706C91.3304 0.0790603 95.2435 0.0790603 99.1565 0.00018706C100.878 0.00018706 101.27 0.710046 101.27 2.28751C101.191 7.80864 101.191 13.4086 101.27 18.9298C101.27 19.7185 102.052 20.5072 102.443 21.2171C102.913 20.4284 103.696 19.7185 103.696 18.9298C103.774 13.6453 103.774 8.36075 103.774 2.99737C103.774 2.05089 103.774 1.18329 103.774 0.00018706C108.861 0.00018706 113.713 -0.0786862 118.487 0.0790603C118.957 0.0790603 119.739 1.26216 119.817 1.89314C119.974 5.28469 119.817 8.59737 119.974 11.9889C119.974 12.6988 120.757 13.803 121.383 14.0396C124.513 15.3016 125.922 17.51 125.922 20.9016C125.843 25.7129 125.922 30.5241 125.922 35.2565C125.922 38.8847 124.591 40.6199 121.304 41.9608C120.678 42.1974 119.974 43.3016 119.974 44.0903C119.817 47.1664 119.817 50.3213 119.974 53.3974C120.052 55.2903 119.27 55.8424 117.47 55.8424C113.713 55.7636 109.957 55.6847 106.2 55.8424C104.322 55.9213 103.696 55.3692 103.774 53.3974C103.852 47.9551 103.852 42.434 103.774 36.9917C103.774 36.203 102.913 35.3354 102.443 34.5467C102.052 35.3354 101.348 36.1241 101.348 36.9129C101.27 42.3551 101.191 47.8762 101.348 53.3185C101.348 55.2115 100.722 55.8424 98.9217 55.7636C95.1652 55.6847 91.4087 55.6847 87.6522 55.7636C85.8522 55.8424 85.1478 55.2115 85.1478 53.3185C85.2261 47.8762 85.1478 42.3551 85.2261 36.9129C85.2261 35.0199 84.6783 34.4678 82.8 34.4678C69.6522 34.5467 56.5826 34.5467 43.4348 34.4678C41.3217 34.4678 40.9304 35.2565 41.0087 37.1495C41.087 43.3805 41.087 49.3748 41.087 55.7636Z" fill="white"/>
</g>
<defs>
<clipPath id="clip0_78_318">
<rect width="126" height="56" fill="white"/>
</clipPath>
</defs>
</svg>
