<svg width="121" height="79" viewBox="0 0 121 79" fill="none" xmlns="http://www.w3.org/2000/svg">
<g clip-path="url(#clip0_78_311)">
<path d="M0 0C40.3333 0 80.6667 0 121 0C121 25.8856 121 51.7712 121 77.6569C117.445 77.6569 114.012 77.6569 110.334 77.6569C110.334 76.6801 110.334 75.8253 110.334 74.9706C110.334 54.4575 110.334 33.8223 110.334 13.3091C110.334 11.2334 109.721 10.745 107.637 10.745C76.1307 10.8671 44.6241 10.8671 13.1175 10.745C10.9108 10.745 10.5431 11.3555 10.5431 13.4312C10.6657 33.9444 10.5431 54.4575 10.5431 74.8485C10.5431 77.779 10.5431 77.779 7.60081 77.779C5.14894 77.779 2.57447 77.779 0 77.779C0 51.7713 0 26.0077 0 0Z" fill="white"/>
<path d="M81.157 69.354C66.4458 69.354 52.1023 69.354 37.3911 69.354C37.3911 70.9413 37.3911 72.2844 37.3911 73.7496C37.2685 76.9243 35.4296 78.8779 32.7325 79C29.9129 79 28.074 76.9243 27.9514 73.8717C27.9514 72.4065 27.9514 71.0634 27.9514 69.2319C26.1125 69.2319 24.6413 69.2319 23.0476 69.2319C21.8217 69.2319 21.2087 68.8656 21.2087 67.5224C21.2087 60.9289 21.2087 54.4575 21.2087 47.864C21.2087 46.643 21.6991 46.2767 22.8024 46.2767C24.5187 46.2767 26.1125 46.1546 27.8288 46.2767C29.2999 46.3988 29.9129 45.7883 30.4032 44.5673C32.7325 39.0727 35.1844 33.5781 37.5137 28.0835C38.1266 26.7404 38.8622 26.252 40.3333 26.252C53.3283 26.252 66.2006 26.252 79.1955 26.252C80.6667 26.252 81.4022 26.7404 81.8926 28.0835C84.0993 33.5781 86.4286 39.0727 88.6353 44.5673C89.1256 45.7883 89.7386 46.5209 91.2097 46.2767C92.6809 46.1546 94.2746 46.2767 95.7457 46.2767C96.9716 46.2767 97.462 46.643 97.462 47.9861C97.462 54.4575 97.462 60.9289 97.462 67.4003C97.462 68.7435 96.9716 69.2319 95.6231 69.2319C94.0294 69.2319 91.9453 68.8656 91.0871 69.7203C90.229 70.575 90.7194 72.6507 90.5968 74.238C90.3516 77.1685 88.3901 79.1221 85.693 79C83.1185 78.8779 81.2796 76.9243 81.2796 73.9938C81.1571 72.5286 81.157 70.9413 81.157 69.354ZM77.6018 41.7589C76.7437 39.5611 76.0081 37.8516 75.15 36.1422C74.9048 35.6538 73.924 35.2875 73.311 35.2875C63.9939 35.2875 54.7994 35.2875 45.4823 35.2875C44.8693 35.2875 44.0111 35.5317 43.8886 35.898C42.9078 37.7295 42.1722 39.6832 41.1915 41.881C53.5735 41.7589 65.3425 41.7589 77.6018 41.7589ZM32.8551 62.6384C35.4296 62.6384 37.6363 60.6847 37.6363 58.2427C37.6363 55.6785 35.5522 53.6028 32.8551 53.6028C30.2806 53.6028 28.1966 55.6785 28.1966 58.1206C28.074 60.6847 30.1581 62.6384 32.8551 62.6384ZM85.8156 62.6384C88.3901 62.6384 90.4742 60.5626 90.5968 58.1206C90.5968 55.6785 88.3901 53.4807 85.693 53.4807C83.1185 53.4807 81.0345 55.4343 81.0345 57.9985C81.0345 60.6847 83.1185 62.7605 85.8156 62.6384Z" fill="white"/>
</g>
<defs>
<clipPath id="clip0_78_311">
<rect width="121" height="79" fill="white"/>
</clipPath>
</defs>
</svg>
