<svg width="108" height="91" viewBox="0 0 108 91" fill="none" xmlns="http://www.w3.org/2000/svg">
<g clip-path="url(#clip0_104_16)">
<path d="M78.9 51.0998C70.4 51.0998 62.2 51.0998 53.8 51.0998C53.8 55.2998 53.8 59.2998 53.8 63.4998C50.1 63.4998 46.7 63.4998 43.1 63.4998C43 62.7998 43 62.0998 43 61.4998C43 46.2998 43 30.9998 43 15.7998C43 8.49979 47.6 2.59979 54.3 0.999789C62.8 -1.00021 71.4 5.49979 71.8 14.2998C71.9 17.4998 69.8 20.1998 66.9 20.4998C64.1 20.7998 61.5 18.6998 61.1 15.5998C60.8 13.4998 60.1 11.9998 57.9 11.5998C56.1 11.2998 54.2 12.4998 54.1 14.4998C53.9 16.9998 54 19.4998 54 22.2998C55.2 22.2998 56.2 22.2998 57.2 22.2998C63.7 22.2998 70.3 22.2998 76.8 22.2998C78.4 22.2998 79.1 21.8998 79 20.1998C78.9 18.0998 78.9 15.8998 79 13.6998C79.4 6.59979 85.3 0.39979 92 -0.000210471C99.7 -0.40021 106.1 4.39979 107.5 11.7998C107.7 12.6998 107.7 13.6998 107.7 14.6998C107.5 17.3998 105.2 19.5998 102.6 19.6998C99.9 19.7998 97.6 17.8998 97.1 15.1998C97 14.7998 97.1 14.2998 97 13.8998C96.6 11.9998 95.4 10.8998 93.4 10.8998C91.5 10.8998 90.4 12.0998 90 13.8998C89.8 14.7998 89.9 15.6998 89.9 16.5998C89.9 31.4998 89.9 46.2998 89.9 61.1998C89.9 63.3998 89.3 64.0998 87.2 63.8998C85.1 63.6998 83 63.7998 81 63.8998C79.5 63.9998 79 63.3998 79.1 61.9998C78.9 58.2998 78.9 54.8998 78.9 51.0998ZM78.6 33.1998C70.3 33.1998 62.2 33.1998 53.8 33.1998C53.8 34.9998 53.9 36.5998 53.8 38.1998C53.7 39.7998 54.3 40.1998 55.8 40.1998C61.5 40.0998 67.2 40.1998 73 40.1998C79.4 40.1998 79.4 40.1998 78.8 33.5998C78.8 33.5998 78.7 33.4998 78.6 33.1998Z" fill="white"/>
<path d="M0 31.3999C13.8 31.3999 27.3 31.3999 41 31.3999C41 34.8999 41 38.2999 41 41.8999C27.3 41.8999 13.7 41.8999 0 41.8999C0 38.4999 0 34.9999 0 31.3999Z" fill="white"/>
<path d="M107.4 42C102 42 96.9 42 91.5 42C91.5 38.5 91.5 35.1 91.5 31.5C96.7 31.5 101.9 31.5 107.4 31.5C107.4 34.9 107.4 38.3 107.4 42Z" fill="white"/>
<path d="M66.2 68.9996C62.9 68.7996 60.1 67.4996 58.1 64.8996C57.6 64.2996 57.9 63.0996 57.9 62.0996C58.8 62.1996 60 61.8996 60.6 62.3996C65.2 66.1996 67.4 66.1996 72.1 62.3996C72.7 61.8996 73.9 62.1996 74.8 62.1996C74.7 63.0996 75 64.2996 74.6 64.8996C72.4 67.5996 69.6 68.8996 66.2 68.9996Z" fill="white"/>
<path d="M9.9 70.6998C7.2 70.5998 4.4 69.2998 2.4 66.6998C1.9 66.1998 2.2 64.9998 2.2 63.9998C3.1 64.0998 4.3 63.7998 4.9 64.2998C9.4 67.9998 11.9 67.9998 16.2 64.3998C16.8 63.8998 18.3 63.6998 18.9 63.9998C20.1 64.7998 19.5 65.8998 18.8 66.8998C16.9 69.1998 13.6 70.7998 9.9 70.6998Z" fill="white"/>
<path d="M52 79.8997C48.6 79.8997 45.8 78.4997 43.7 75.8997C43.2 75.2997 43.5 74.0997 43.5 73.1997C44.4 73.2997 45.6 72.9997 46.2 73.4997C50.8 77.2997 53.1 77.2997 57.6 73.4997C58.2 72.9997 59.4 73.2997 60.3 73.1997C60.2 74.0997 60.5 75.3997 60 75.9997C58 78.3997 55.3 79.7997 52 79.8997Z" fill="white"/>
<path d="M32.4 56.3998C28.9 56.3998 26.2 54.9998 24 52.5998C23.2 51.6998 22.7 50.6998 23.8 49.6998C24.9 48.6998 25.8 49.2998 26.7 50.0998C30.5 53.6998 33.8 53.6998 37.7 50.0998C38.6 49.1998 39.5 48.6998 40.6 49.7998C41.6 50.7998 41.1 51.7998 40.3 52.6998C38.1 54.9998 35.5 56.3998 32.4 56.3998Z" fill="white"/>
<path d="M26.7 88.6998C23.4 88.5998 20.7 87.2998 18.5 84.7998C17.7 83.8998 17.2 82.6998 18.4 81.9998C19 81.5998 20.4 81.8998 21 82.3998C25.3 86.0998 27.9 85.9998 32.3 82.3998C32.9 81.8998 34.3 81.6998 34.9 82.0998C36.1 82.8998 35.6 83.9998 34.8 84.8998C32.7 87.2998 30 88.6998 26.7 88.6998Z" fill="white"/>
<path d="M96.4 78.0999C93.5 77.9999 90.7 76.6999 88.6 74.0999C88.1 73.4999 88.4 72.2999 88.4 71.3999C89.3 71.4999 90.5 71.2999 91.1 71.6999C95.7 75.4999 97.8 75.4999 102.5 71.6999C103.1 71.1999 104.3 71.4999 105.2 71.3999C105.1 72.2999 105.4 73.4999 105 74.0999C103.3 76.5999 100 78.0999 96.4 78.0999Z" fill="white"/>
<path d="M78.5 90.5996C75.6 90.4996 72.9 89.1996 70.8 86.7996C70.3 86.1996 70.1 84.5996 70.5 83.9996C71.3 82.8996 72.4 83.3996 73.3 84.2996C77.3 87.9996 80.3 88.0996 84.3 84.2996C85.2 83.3996 86.3 82.7996 87.1 83.9996C87.5 84.5996 87.4 86.1996 86.8 86.7996C84.9 89.2996 82.1 90.5996 78.5 90.5996Z" fill="white"/>
</g>
<defs>
<clipPath id="clip0_104_16">
<rect width="107.6" height="90.6" fill="white"/>
</clipPath>
</defs>
</svg>
