<svg width="96" height="94" viewBox="0 0 96 94" fill="none" xmlns="http://www.w3.org/2000/svg">
<g clip-path="url(#clip0_78_315)">
<path d="M47.3992 66.4392C44.5953 69.901 42.0584 73.0964 39.388 76.2919C35.249 81.3514 31.2434 86.544 26.9708 91.6035C23.7663 95.4647 17.8915 94.5327 16.2893 89.8726C15.4882 87.476 16.0223 85.3457 17.6245 83.3486C24.4339 75.0936 31.1099 66.7055 37.9193 58.3174C38.9875 56.986 39.121 56.1871 37.9193 54.8556C34.8484 51.3939 32.0445 47.799 28.9736 44.3372C28.573 43.8046 27.6384 43.4052 26.9708 43.4052C21.4965 43.8046 16.6898 42.0738 12.2837 39.0114C5.07372 33.6857 0.400559 26.7622 2.65986e-06 17.7083C-0.534072 7.05677 7.47705 0.798982 17.8915 3.32873C29.9082 6.25791 39.5216 19.1729 38.7204 30.7565C38.7204 31.2891 38.7204 31.8216 38.5869 32.2211C37.3853 34.7508 38.5869 36.4817 40.1892 38.3457C42.5925 41.0086 44.7288 43.8046 47.2657 46.7338C48.4673 45.2692 49.5355 43.8046 50.7371 42.4732C51.4047 41.6743 51.9388 40.8755 52.6064 40.2097C54.0751 38.7452 54.4757 37.1474 54.2086 35.1503C53.6746 31.2891 54.4757 27.6942 57.2796 24.4987C63.2879 17.3089 69.0292 9.71966 74.904 2.26357C77.0403 -0.399318 77.8415 -0.665607 81.4465 1.19842C81.0459 1.73099 80.6453 2.39672 80.2448 2.92929C75.4381 8.9208 70.765 14.9123 65.9583 20.9038C64.6231 22.6347 64.6231 24.3656 65.9583 25.4307C67.2935 26.4959 69.0292 26.0964 70.3644 24.3656C70.4979 24.2324 70.6314 24.0993 70.765 23.9661C75.3046 17.9746 80.1113 11.9831 84.7844 6.12476C85.185 5.59218 85.5855 5.19275 86.1196 4.52703C87.3213 5.45904 88.3894 6.25791 89.7246 7.18992C89.1905 7.85564 88.79 8.52136 88.3894 9.18708C83.5827 15.3117 78.6426 21.3032 73.8359 27.4279C72.9013 28.6262 72.3672 29.9576 73.4353 31.0228C74.1029 31.6885 75.4381 32.0879 76.5063 32.0879C77.1739 32.0879 77.975 31.1559 78.509 30.6233C83.3157 24.6318 88.1224 18.6403 92.7955 12.6488C93.1961 12.1163 93.5967 11.7168 94.2643 10.918C94.9318 12.2494 95.5994 13.3146 96.1335 14.5129C96.267 14.9123 96.1335 15.7112 95.733 16.1106C88.9235 24.765 82.2476 33.5525 75.0376 41.8075C73.4353 43.6715 70.2309 44.3372 67.5605 44.8698C65.2907 45.2692 63.822 46.0681 62.4868 47.799C60.6175 50.3287 58.6147 52.7253 56.612 55.1219C55.6773 56.1871 55.8109 56.8528 56.7455 57.7848C63.9555 66.3061 71.1655 74.8273 78.242 83.3486C81.1794 86.9435 80.1113 91.7367 76.1057 93.4675C73.4353 94.5327 70.6314 93.7338 68.6287 91.2041C62.0862 83.4817 55.6773 75.7593 49.1349 68.0369C48.4673 67.6375 48.0668 67.2381 47.3992 66.4392Z" fill="white"/>
</g>
<defs>
<clipPath id="clip0_78_315">
<rect width="96" height="94" fill="white"/>
</clipPath>
</defs>
</svg>
