<svg width="92" height="90" viewBox="0 0 92 90" fill="none" xmlns="http://www.w3.org/2000/svg">
<g clip-path="url(#clip0_103_2)">
<path d="M50.1409 89.9998C43.6595 89.9998 37.2681 89.9998 30.7867 89.9998C26.1057 89.9998 23.4951 88.3 21.6947 84.0058C14.7632 67.3656 7.74168 50.7255 0.810175 34.0853C-1.62035 28.2702 1.62035 22.4551 7.8317 21.6499C11.5225 21.2026 15.1233 23.2603 16.7436 26.9282C20.0744 34.801 23.4051 42.7632 26.6458 50.636C28.2661 54.3934 29.7965 58.2404 31.4168 61.9978C33.4873 66.8288 37.2681 69.2443 42.4892 69.3338C48.1605 69.4233 53.9217 69.4233 59.593 69.3338C61.7534 69.3338 63.2838 69.96 64.6341 71.6599C67.6047 75.5068 70.7554 79.1748 73.9061 82.9322C75.0763 84.3636 75.7065 85.8845 74.8963 87.6738C73.9961 89.5525 72.4658 90.0893 70.4853 89.9998C63.6438 89.9998 56.8924 89.9998 50.1409 89.9998Z" fill="white"/>
<path d="M51.7613 42.4054C52.9315 44.9998 53.8317 47.4153 54.9119 49.6519C55.092 50.0097 55.9922 50.1887 56.5323 50.1887C60.7632 50.1887 64.9041 50.2781 69.135 50.1887C71.5656 50.1887 73.366 51.0833 74.8063 52.962C79.7573 59.2245 84.7984 65.3974 89.8395 71.5704C91.4599 73.5386 92.3601 75.7752 91.6399 78.3696C90.9198 80.8746 89.2994 82.3954 86.7789 82.9322C84.2583 83.469 82.0979 82.4849 80.5675 80.5167C76.6067 75.5962 72.5558 70.7652 68.775 65.6658C67.2446 63.6082 65.5343 62.7135 62.8337 62.803C56.4423 62.9819 49.9609 62.803 43.4795 62.8925C40.3288 62.8925 38.0783 61.5505 36.818 58.5982C33.6673 51.0833 30.4266 43.5684 27.366 36.0535C24.6654 29.3437 29.7065 22.1867 36.908 22.4551C39.3386 22.5445 41.319 23.7076 43.0294 25.2284C45.3699 27.2861 47.5303 29.4332 49.8708 31.4014C50.501 31.9382 51.4912 32.3855 52.3014 32.3855C56.4423 32.475 60.5832 32.5644 64.7241 32.3855C68.3249 32.296 70.3053 34.8905 70.3953 37.3954C70.4853 40.1688 68.1448 42.4054 64.9041 42.4054C61.2133 42.4948 57.4325 42.4054 53.7417 42.4054C53.3816 42.4054 52.7515 42.4054 51.7613 42.4054Z" fill="white"/>
<path d="M28.8963 20.9344C22.955 20.9344 18.364 16.3718 18.364 10.4672C18.364 4.65209 23.045 0 28.8963 0C34.6575 0 39.3386 4.65209 39.4286 10.3777C39.5186 16.2823 34.8376 20.9344 28.8963 20.9344Z" fill="white"/>
<path d="M59.4129 13.6878C59.593 9.12515 61.9335 5.63609 65.1742 2.59434C65.8943 1.87863 66.7045 2.05756 67.4247 2.6838C74.9863 10.0198 74.8963 17.5347 67.3346 24.6918C66.8845 25.1391 65.4442 25.1391 64.9941 24.6918C61.8434 21.7395 59.5029 18.3399 59.4129 13.6878Z" fill="white"/>
<path d="M61.0333 25.5866C55.9922 25.6761 50.9511 22.6343 49.5108 17.8033C48.7906 15.4773 48.7006 13.0618 48.3405 10.6462C48.1605 9.48323 48.7906 8.67806 50.0509 8.76752C51.8513 8.85698 53.6517 9.12537 55.4521 9.39376C55.7221 9.48323 56.2622 10.1095 56.1722 10.4673C55.092 16.1035 57.0724 20.8451 60.5832 25.1393C60.8532 25.2288 60.9433 25.3182 61.0333 25.5866Z" fill="white"/>
<path d="M71.2055 25.7655C72.0157 24.6025 72.6458 23.7973 73.1859 22.9921C75.7065 19.4136 76.8767 15.3877 75.9765 11.004C75.7065 9.75156 76.0665 9.30424 77.3268 9.21478C78.9472 9.12532 80.5675 8.85693 82.1879 8.76746C83.1781 8.678 83.7182 9.21478 83.8982 10.1989C85.2485 17.4454 80.0274 24.6919 72.7358 25.676C72.3757 25.7655 72.0157 25.7655 71.2055 25.7655Z" fill="white"/>
</g>
<defs>
<clipPath id="clip0_103_2">
<rect width="92" height="90" fill="white"/>
</clipPath>
</defs>
</svg>
