<svg width="123" height="78" viewBox="0 0 123 78" fill="none" xmlns="http://www.w3.org/2000/svg">
<g clip-path="url(#clip0_104_10)">
<path d="M60.497 0C88.4755 1.26658 108.536 13.6157 122.261 36.7307C123.739 39.1583 123.106 41.5859 120.888 42.8525C118.777 44.1191 116.243 43.5913 114.87 41.1637C110.964 34.4087 106.213 28.3924 100.195 23.3261C74.4335 1.47767 36.3193 4.96076 14.9923 31.2422C12.5639 34.1976 10.5579 37.5751 8.44635 40.7415C6.6515 43.3802 4.43433 44.2246 2.11159 42.958C-0.211159 41.5859 -0.633477 39.1583 0.950214 36.4141C11.5082 18.1543 26.9227 6.43843 47.5107 1.68877C52.0506 0.738836 56.9073 0.422192 60.497 0Z" fill="white"/>
<path d="M109.275 46.8635C109.275 49.3966 108.219 50.7687 106.424 51.5076C104.524 52.2464 102.623 51.5076 101.356 49.7132C99.7725 47.4967 98.4 45.1747 96.7107 43.0637C77.1785 18.7877 39.6979 21.0042 23.1219 47.4967C22.6996 48.13 22.2773 48.8689 21.8549 49.5022C20.2712 51.8242 17.8429 52.352 15.7313 50.9798C13.6197 49.6077 13.1974 47.1801 14.57 44.7525C21.9605 32.2978 32.5185 23.7484 46.4549 19.6321C70.3159 12.5603 96.2884 23.2207 108.536 44.9636C108.958 45.7024 109.169 46.5468 109.275 46.8635Z" fill="white"/>
<path d="M81.6129 64.7009C80.9794 65.6509 80.4515 67.023 79.5013 67.6563C74.3279 71.0338 69.0489 74.2003 63.8755 77.4723C62.2919 78.4222 60.7082 78.3166 59.23 77.3667C54.2678 74.3058 49.2 71.2449 44.2378 68.0785C41.5983 66.3897 41.176 63.8566 42.8652 61.3234C51.4172 48.8687 71.8996 49.0798 80.3459 61.64C80.8738 62.3789 81.085 63.4344 81.6129 64.7009Z" fill="white"/>
<path d="M60.2858 34.6196C75.7004 35.1474 86.7863 41.0581 94.4936 52.8794C96.1828 55.4126 95.7605 58.0513 93.4378 59.4234C91.3262 60.69 88.7923 60.0567 87.2086 57.6291C80.6627 47.8131 71.3717 42.9579 59.5468 43.5912C49.8335 44.119 42.1262 48.6575 36.4249 56.5736C36.0026 57.1014 35.6858 57.6291 35.3691 58.1568C33.7854 60.1623 31.2515 60.69 29.3511 59.4234C27.3451 58.0513 26.8172 55.5181 28.1897 53.4072C33.6798 44.6467 41.3871 38.8416 51.4172 36.2028C54.6901 35.2529 58.1742 34.9363 60.2858 34.6196Z" fill="white"/>
</g>
<defs>
<clipPath id="clip0_104_10">
<rect width="123" height="78" fill="white"/>
</clipPath>
</defs>
</svg>
